<?xml version="1.0" encoding="utf-8"?>
<!-- Generator: Adobe Illustrator 24.1.2, SVG Export Plug-In . SVG Version: 6.00 Build 0)  -->
<svg version="1.1" id="Слой_1" xmlns="http://www.w3.org/2000/svg" xmlns:xlink="http://www.w3.org/1999/xlink" x="0px" y="0px"
	 viewBox="0 0 64 64" style="enable-background:new 0 0 64 64;" xml:space="preserve">
<style type="text/css">
	.st0{font-family:'ArialMT';}
	.st1{font-size:15.14px;}
</style>
<g id="Chair-2">
	<path d="M24.9,9.2c0.7,0,1.3-0.6,1.3-1.3l0,0c0-0.7-0.6-1.3-1.3-1.3l0,0c-0.7,0-1.3,0.6-1.3,1.3S24.2,9.2,24.9,9.2z"/>
	<path d="M11.3,25.1v8.2c0,3,1.8,5.7,4.6,6.9l-1.8,6.5c-0.4,1.7,0.7,3.4,2.4,3.7c1.6,0.3,3.2-0.6,3.7-2.1l2-7.6h22.2l2,7.6
		c0.5,1.7,2.3,2.6,3.9,2c1.5-0.5,2.5-2.1,2.1-3.7l-1.7-6.5c2.8-1.2,4.6-3.9,4.6-6.9v-8.2c0-4-2.7-7.4-6.5-8.4L50,7.5
		c0.3-1.7-0.1-3.5-1.3-4.8c-1.2-1.3-2.9-2-4.6-2H22.4c-1.8,0-3.5,0.7-4.6,2c-1.1,1.3-1.6,3.1-1.3,4.8l1.3,9.2
		C14,17.7,11.3,21.2,11.3,25.1z M18.3,47.9c-0.2,0.6-0.8,1-1.4,0.8c-0.6-0.2-1-0.8-0.8-1.4l1.7-6.6c0.3,0,0.7,0.1,1,0.1h1.3
		L18.3,47.9z M50.5,47.3c0.2,0.6-0.2,1.2-0.8,1.4c-0.6,0.2-1.2-0.2-1.4-0.8l-1.9-7h1.3c0.3,0,0.7,0,1-0.1L50.5,47.3z M18.5,7.2
		c-0.2-1.1,0-2.3,0.7-3.2c0.8-0.9,2-1.3,3.2-1.3h21.7c1.2,0,2.4,0.4,3.2,1.3c0.7,0.9,1,2.1,0.8,3.2l-1.3,9.2h-0.2
		c-1.5,0-2.7,1.2-2.7,2.6v6.6c-0.7-0.5-1.6-0.7-2.5-0.8H25.1c-0.9,0-1.7,0.3-2.5,0.8V19c0-1.5-1.2-2.7-2.7-2.6h-0.2L18.5,7.2z
		 M22.7,29.4c0-1.4,1.1-2.5,2.5-2.5c0,0,0,0,0,0h16.2c1.4,0,2.5,1.1,2.5,2.5c0,0,0,0,0,0v2.5H22.7L22.7,29.4z M20,18.4
		c0.4,0,0.7,0.3,0.7,0.6v12.8h-0.6c-0.6,0-1,0.4-1,1s0.4,1,1,1h26.3c0.6,0,1-0.4,1-1s-0.4-1-1-1h-0.6V19c0-0.4,0.3-0.7,0.7-0.6
		c3.7,0,6.7,3,6.8,6.7v8.2c0,3-2.5,5.5-5.5,5.5h0h-29c-3,0-5.5-2.4-5.5-5.5c0,0,0,0,0,0v-8.2C13.3,21.4,16.3,18.4,20,18.4L20,18.4z"
		/>
	<path d="M33.3,9.2c0.7,0,1.3-0.6,1.3-1.3l0,0c0-0.7-0.6-1.3-1.3-1.3l0,0C32.6,6.7,32,7.3,32,8S32.6,9.2,33.3,9.2z"/>
	<path d="M41.6,9.2c0.7,0,1.3-0.6,1.3-1.3l0,0c0-0.7-0.6-1.3-1.3-1.3l0,0c-0.7,0-1.3,0.6-1.3,1.3S40.9,9.2,41.6,9.2z"/>
	<path d="M24.9,15.2c0.7,0,1.3-0.6,1.3-1.3l0,0c0-0.7-0.5-1.3-1.2-1.3c0,0,0,0,0,0l0,0c-0.7,0-1.3,0.6-1.3,1.3S24.2,15.2,24.9,15.2
		L24.9,15.2z"/>
	<path d="M33.3,15.2c0.7,0,1.3-0.6,1.3-1.3l0,0c0-0.7-0.5-1.3-1.2-1.3c0,0,0,0,0,0l0,0c-0.7,0-1.3,0.6-1.3,1.3S32.6,15.2,33.3,15.2
		L33.3,15.2z"/>
	<path d="M41.6,15.2c0.7,0,1.3-0.6,1.3-1.3l0,0c0-0.7-0.5-1.3-1.2-1.3c0,0,0,0,0,0l0,0c-0.7,0-1.3,0.6-1.3,1.3S40.9,15.2,41.6,15.2
		L41.6,15.2z"/>
	<path d="M29.1,21.3L29.1,21.3c0.7,0,1.3-0.6,1.3-1.3l0,0c0-0.7-0.6-1.3-1.3-1.3s-1.3,0.6-1.3,1.3S28.4,21.3,29.1,21.3z"/>
	<circle cx="37.4" cy="20" r="1.3"/>
</g>
<path d="M-3.9,12"/>
<text id="svg_24" transform="matrix(1.2344 0 0 1 4.5833 61.0781)" class="st0 st1">Стулья</text>
</svg>
