<?xml version="1.0" encoding="utf-8"?>
<!-- Generator: Adobe Illustrator 24.1.2, SVG Export Plug-In . SVG Version: 6.00 Build 0)  -->
<svg version="1.1" id="Слой_1" xmlns:xodm="http://www.corel.com/coreldraw/odm/2003"
	 xmlns="http://www.w3.org/2000/svg" xmlns:xlink="http://www.w3.org/1999/xlink" x="0px" y="0px" viewBox="0 0 1474 116.2"
	 style="enable-background:new 0 0 1474 116.2;" xml:space="preserve">
<style type="text/css">
	.st0{fill-rule:evenodd;clip-rule:evenodd;fill:#140F6D;}
	.st1{fill-rule:evenodd;clip-rule:evenodd;fill:#F79F19;}
	.st2{fill-rule:evenodd;clip-rule:evenodd;fill:#EB001A;}
	.st3{fill-rule:evenodd;clip-rule:evenodd;fill:#FE5F01;}
	.st4{fill-rule:evenodd;clip-rule:evenodd;fill:#002283;}
	.st5{fill-rule:evenodd;clip-rule:evenodd;fill:#E61B25;}
	.st6{fill-rule:evenodd;clip-rule:evenodd;fill:#F99F1B;}
	.st7{fill-rule:evenodd;clip-rule:evenodd;fill:#1A1F71;}
	.st8{fill-rule:evenodd;clip-rule:evenodd;fill:#FFFFFF;}
	.st9{fill-rule:evenodd;clip-rule:evenodd;fill:#7779A2;}
	.st10{fill-rule:evenodd;clip-rule:evenodd;fill:#024978;}
	.st11{fill-rule:evenodd;clip-rule:evenodd;fill:#014877;}
	.st12{fill-rule:evenodd;clip-rule:evenodd;fill:#FCFDFD;}
	.st13{fill-rule:evenodd;clip-rule:evenodd;fill:#FAFBFC;}
	.st14{fill-rule:evenodd;clip-rule:evenodd;fill:#005994;}
	.st15{fill-rule:evenodd;clip-rule:evenodd;fill:#0531AC;}
	.st16{fill-rule:evenodd;clip-rule:evenodd;fill:#FA9C10;}
	.st17{fill-rule:evenodd;clip-rule:evenodd;fill:#1B3E77;}
	.st18{fill-rule:evenodd;clip-rule:evenodd;fill:#F08048;}
	.st19{fill-rule:evenodd;clip-rule:evenodd;fill:#EB603D;}
	.st20{fill-rule:evenodd;clip-rule:evenodd;fill:#030303;}
	.st21{fill-rule:evenodd;clip-rule:evenodd;fill:#FEFEFE;}
</style>
<g id="Слой_x0020_1">
	<g id="_850893920">
		<path class="st0" d="M145.6,82.4h6.2c0.4-1.6,2.6-5.5,3.4-7.2c0.7-1.4,2.8-6.1,3.8-6.8c0,3.4,2.3,10.8,2.4,14
			c7.7,0,5,2.3,12.1-11.8c1-2,5.7-11.1,6-12.4c-9.7,0-6.5,0-13.2,12.8l-0.8,1.2c0-1.5-0.3-2.2-0.5-3.6l-1.8-10.8
			c-6.7,0-6.2,0.8-10.3,9.9l-2.4,4.5c0-3.6-1-10.3-4.6-12.8c-2.3-1.6-3.7-1.2-7.3-1.2c-2.9,0-6.2,0.2-8.5-0.3c0.3,1-0.1,0.6,1.4,1
			l5.4,2.1c2.1,1,4.6,2.6,5.6,4.6C143.3,67.4,145,79.4,145.6,82.4L145.6,82.4L145.6,82.4z M67.1,37.6c-1.3,0.3-2.1,0.7-2.7,1.7
			c1.1,1.6,0.2,0.7,1,0.7c0,0.8-0.2,0.7,0.3,0.7c0,0.7-0.1,0.1,0.3,0.1c0.4,1-0.1,0.2,0.6,1c0.2,0.3,0.5,0.5,0.8,0.8
			c0.1,0.1,0.6,0.6,0.7,0.7c1,0.7,0.1,0.3,1.3,0.8c-0.1,0.7-0.5,0.1,0.1,0.6c0.7,0.5-0.3,0.2,0.6,0.1c0.4,1.1-0.3,0.2,0.6,1.1
			c0.6,0.6,0.1,0.3,0.8,0.3c0.4,1-0.2,0.3,0.4,0.9c0.7,0.6-0.2,0.2,0.6,0.1c0.5,1.3,0.3,0.8,1.2,1.7c0.7,0.9,0.2,0.4,1.2,0.7
			c0,0.9-0.6-0.3,0.3,1c1-0.7,2.5-3.9,3.3-5.2c0.7-1.1,1-1.7,1.6-2.8c0.8-1.3,1-1.7,1.6-3.2l4.7-7.6c0.8-1.3,1.4-2.5,2.2-3.9
			c0.6-1.2,2-3.1,2.3-4.2c-1,0.5-3.7,1.9-4.2,2.7c-1.2,0.2-1,0.1-2,0.7c0,0-0.5,0.3-0.6,0.5c-0.7,0.6-0.2,0-0.8,0.9
			c-0.6-0.1-0.1-0.3-0.9,0.1c-0.8,0.4-0.3,0.1-0.5,0.5c-1.7,0.3-0.3-0.1-1.7,0.7c-0.5,0.2-0.9,0.5-1.3,0.7c-0.5,0.3-1.7,0.9-2,1.4
			c-0.9,0.3-0.7,0.2-1.4,0.7c-0.7,0.5-0.5,0.3-0.7,0.7c-2,0.7-2.7,1.4-4.5,2.2c-0.7,0.4-0.4,0.1-0.9,0.6c-0.6,0.6-0.2,0.1-0.4,0.6
			c-1.3,0-1.6,0.3-2,1l0.1,0L67.1,37.6L67.1,37.6z M48.6,85.2c0,0.9-0.1,0.7,0.2,1.4c0.3,1,0.1,0.7,0.5,0.9c0.1,1.1,0,0.6,0.2,1.5
			c0,0.1,0.1,0.5,0.1,0.5c0.2,0.5,0.1,0.4,0.3,0.6c0.1,1.8,0.6,1.8,0.7,3.7c0.3,0.3,0.2,0.1,0.3,0.8c0.4,1.3,0.3,2,1,3.2
			c0.1,1.4,0.5,2.1,0.7,3.2c0.2,0.6,0.2,0.8,0.3,1.4c0.2,0.5,0.6,1.8,0.7,2.4l0.6,1.7c0,0,0.1,0.1,0.1,0.1c0.1,1.4,0.2,0.9,0.3,2.3
			c0.3,0.6,0.9,2.7,1,3.5c0.4,1.4,0.1,1.6,1,2.3c0.2-2.2,1.2-4.1,1.4-6.5c0.5-0.3,0,0.4,0.4-0.6l2.3-9.2c0.5-0.6,2-6.7,2-8
			c0.7-0.7,1.3-3.8,1.4-5.1c0.4,0.1,0.3,0.9,0.3-0.3c-0.2-0.2-0.8-0.3-1-0.3H55c-1.2,0-2.3,0-3.4,0c-0.4,0-1.4-0.1-1.7,0
			c-1.9,0.2-0.8,0-1.4,0.5l0.1-0.1L48.6,85.2L48.6,85.2z M67.1,74.5c-0.7,0-0.2-0.3-1.4,0.9c-0.8,0.8-1,0.7-1.3,1.8
			c0.8,0.4,0.8,0.4,1.7,0.7c-0.1,0.4-0.9,0.3,0.3,0.3c0.5,0.6-0.1,0.2,0.7,0c0.7,1.6-0.2,0.6,1.4,1.4l0.9,0.6c1,0.7,1.8,1,3.1,1.4
			c0.1,0.5-0.3,0.1,0.5,0.6c0.8,0.5,0.4,0.2,1.2,0.5c0.5,0.9,0.3,0.4,1,0.7c0.4,0.9,0.1,0.2,0.7,0c0.6,1,0.1,0.1,0.6,0.7
			c0.3,0.4,0.3,0.2,0.6,0.6c1.4,0.6,1,0.7,2.6,1c0.1,0.5-0.3,0.1,0.5,0.6c0.8,0.5,0.4,0.2,1.2,0.5c-0.1,0.4-0.9,0.3,0.3,0.3
			c0.4,0.5,0,0.1,0.8,0.3c0.1,0.1,0.1,0.1,0.1,0.1c0,0.1,0.1,0.1,0.1,0.1c0.6,0.3,0.1,0.1,0.6,0.2c0.6,0.7-0.3,0,0.8,0.7
			c0.1,0.1,0.8,0.4,0.9,0.5l5.8,3.4L87.2,86c-0.1-0.7-0.1-0.7-0.5-1.2c0,0-0.4-0.5-0.5-0.6c-0.5-0.5-0.1-0.1-0.7-0.5
			c0-0.9,0.3-0.2-0.2-1c-0.5-0.7-0.2-0.3-0.9-0.7c0.5-0.9,0.4-0.3,0-0.7c0-1.4,0.1-0.1-0.7-0.7c0.1-0.6,0.3-0.1-0.1-0.9
			c-0.4-0.8-0.1-0.3-0.5-0.5c0-1.9,0.1-0.3-0.4-1.3c-0.7-1.2-0.1-0.3-0.6-0.6c-0.3-1.4,0.1-0.3-0.4-1.1c-0.5-0.8-0.3-0.4-0.6-0.6
			c-0.1-0.8-0.1-0.7-0.5-1.4c-0.1-0.1-0.4-0.5-0.5-0.6c-0.6-0.6,0.3,0.1-0.7-0.5c0.5-0.9,0.4-0.3,0-0.7c0-1.4,0.1-0.2-0.3-0.3
			c-0.2-0.6-0.1-0.5-0.5-1.2c-0.5-0.8,0-0.3-0.6-0.5c-0.3-1.6-0.1-0.6-0.8-2c-0.3-0.7-0.4-0.7-0.6-1.4c-0.9-0.9-0.5-0.3-1-1.4
			c-0.4,0.3-0.6,0.3-1,0.8c-0.5,0.6-0.4,0.4-0.5,0.9c-1,0.5-0.2-0.1-1,0.6c-0.3,0.2-0.6,0.6-0.9,0.9c-0.7,0.7-0.9,0.9-1.4,1.7
			c-0.9,0.5-1.2,1-2,1.7c-0.3,0.3-0.6,0.5-0.9,0.8c-0.9,1-0.4,0.2-0.9,1.5v0h0L67.1,74.5z M86.4,50.6c-0.9-0.2-2.1-0.3-2.9-0.7v4.6
			v7.1v4.7c0.3-0.1,1-0.3,1-0.3c1.1-0.5,0.2,0.3,1-0.7c1.6,0.6,0.9,0.3,2.3,0c1.3,0,0.5,0.2,0.8-0.7c1.8,0.7,0.9,0.2,2.4,0
			c0.9-0.1,1-0.1,1.8-0.3c1.1-0.2,0.3,0.3,1-0.4c0.2,0,0.7,0,0.9,0c1.1-0.3,0.2,0.1,0.6-0.3l3.3-0.7c1.7,0,3.9-0.7,5.5-1l17.1-4.1
			c-1.4,0-3.1-0.5-4.6-0.8L101.9,54c-1-0.5-0.5-0.3-1.9-0.3c-0.1-0.1-0.1-0.2-0.1-0.1c-0.1,0.1-0.1-0.1-0.2-0.1
			c-0.6-0.1-0.4-0.1-1.2-0.1c-0.5-0.8-1-0.3-1.7,0c-0.8-1,0.1-0.1-1-0.7c-0.1,0-0.8-0.2-1-0.3L93.1,52l-1.7-0.3
			c-1.3-0.1-0.8-0.2-2.4-0.3c-0.8,0,0.1,0.1-0.3-0.3h-1.4c-0.4-0.5,0.1-0.2-0.9-0.3l-0.1-0.1h0V50.6z M55.9,31.5
			c10,0,9.2,0.9,8.1-3.3l-0.6-1.3c-0.1-1-0.1-1.2-0.4-2.2c0-0.1-0.2-0.7-0.2-0.8c-0.3-0.9-0.1-0.5-0.4-0.7c0-1.4-0.6-3.4-1-4.4
			c-0.1-0.5-0.2-1.6-0.4-2c-0.7-2-0.1-0.7-1-1.4c0.4-1.1,0-3.1-0.7-3.8c-0.1-1.6-0.5-2.2-0.7-3.5C58,6.7,56.9,3,56.8,1.4
			c-0.9,0.7-1,2.4-1.6,4.5c-0.7,2.7-3.8,13.4-3.8,15.3c-0.4,0.3-0.1-0.3-0.4,0.7l-2.3,9c0.5,1-0.5,0.3,1.4,0.6c0.2,0.1,1.7,0,2.1,0
			C53.3,31.4,54.5,31.4,55.9,31.5L55.9,31.5L55.9,31.5L55.9,31.5z M43.9,79.7c1,0.1,1,0,2.5-1c1-0.6,1.7-0.9,2.7-1.4L46,74.2
			c-0.3-0.4-0.4-0.6-0.8-0.9c-0.9-0.8-0.3-0.3-1.3-0.8c0.1-0.6,0.3-0.3-0.3-0.7l-1.8-1.7c-0.5-1,0.1-0.6-1.2-1
			c0-0.6,0.3-0.1-0.3-0.8c-0.8-0.9-0.1-0.2-0.7-0.4c-0.5-1-1.1-1.6-2-2.2c-0.3,1.3-0.9,1.7-1.4,2.7l-14,24.2l4.4-2.4l3.8-2.4
			c0.9-0.2,0.9-0.3,1.8-0.9c0.2-0.1,0.8-0.4,0.9-0.5c0.6-0.6,0.3,0.1,0.4-0.7c1.4-0.2,1.4-0.1,2-1c1.2-0.2,1.8-0.5,2.5-1.4
			c0.7-0.1,0.6-0.1,1-0.3c0.7-0.4,0.5-0.3,0.7-0.7c1-0.3,1.5-0.5,2.4-1c0.1-0.1,1-0.6,1-0.7C44,79.9,43.2,80.8,43.9,79.7L43.9,79.7
			L43.9,79.7L43.9,79.7z M42.7,45.2c1.4-0.7,2.2-1.9,3.3-3c1.1-1.1,2.2-2,3-3.1c-1.2-0.6-2-0.9-3.1-1.7l-1.7-0.9
			c-0.7-0.6-1.2-0.6-1.8-1.2c-1-0.5-0.2-0.1-1-0.6c-0.8-0.4-0.3-0.2-1-0.5c-0.6-0.6-0.3-0.5-1.1-0.8c-1.3-0.6-0.7-0.4-1.5-0.2
			c-0.7-1.6,0.2-0.5-1.4-1.4c-0.8-0.4-0.9-0.1-1.4-1c-2-0.7-7.3-4-9.7-5.3C24.2,24.9,23,24,22,23.7L28.5,35c1.1,2,1.4,3.1,2.7,3.7
			c-0.2,1.1-0.2,0.7,0.4,1.7c0.6,1,0.5,0.6,1,2c0.9,0.9,1.1,2,2,3c0.3,1,0.6,1.6,1.4,2.4c0.4,1.2,1,1.7,1.4,2.9
			c0.7-0.4,0.3-0.1,0.3-0.7c1.6-0.6,1.3-0.8,2.8-2.3C41.3,46.9,42.3,46.1,42.7,45.2L42.7,45.2L42.7,45.2L42.7,45.2z M21.7,63.9
			c0.5,0.6,0.1,0.3,1.4,0.3c0.4,0.5,1,0.5,1.8,0.7c1.2,0.3,2.2,0.6,3.5,0.9c2,0.6,1.6,0.1,1.6-2.3c-0.1-3.1,0-6.3,0-9.5
			c0-1,0.3-5-0.7-3.9c-1.4,0.1-0.6-0.3-1.2,0.3c-1.2,0.1-3,0.3-3.6,1c-2.1,0.1-15,3.8-18.2,4.6c-1.9,0.5-4.1,1.4-6,1.5L14,62
			c1.6,0.5,3.4,1.1,5.2,1.2c0.2,0.3-0.2,0.1,0.7,0.4C20.5,63.8,20.7,63.8,21.7,63.9L21.7,63.9L21.7,63.9L21.7,63.9z M333.8,61.2h1
			c1,0,0.9,0.4,1,1.4h-2V61.2L333.8,61.2L333.8,61.2z M332.1,66.7c2.3-0.1,1.7-0.4,1.7-2.7h1c0.7,2.4,1.8,2.7,3.4,2.7
			c-0.2-0.9-1.2-2-1.7-2.7c0.8-1.2,1-0.5,1-2.4c0-2.2-3.5-1.7-5.5-1.7V66.7z M335.1,68.7c-6.5,0-7.7-8-2.7-10.3
			c2-0.9,4.4-0.6,5.9,0.9c1.6,1.5,2.4,3.2,1.5,5.8c-0.4,1.1-0.8,1.8-1.7,2.4C337.5,67.9,335.7,68.7,335.1,68.7L335.1,68.7z
			 M328.3,62.2c0,2.4-0.1,3.7,1.6,5.6c3.3,3.6,11.4,2.5,11.4-4.9c0-5.3-6.9-8.2-11-4.5C329.6,59,328.3,60.9,328.3,62.2L328.3,62.2
			L328.3,62.2z M193.1,62.9c2.2,0,4.1,1.6,4.1,3.8v1h-10.3C187.1,64.8,189.9,62.9,193.1,62.9L193.1,62.9L193.1,62.9z M179.4,71.1
			c0,10.1,11,15.1,21.5,9.6c0-2,0.3-3.9,0.7-5.5c-0.9,0.1-13.4,5.5-15.4-3.1h17.4c1.6-7.1-1.7-14.7-9.6-14.7
			c-6.6,0-10.7,2.2-13.5,8.1C180.1,66.7,179.4,69.5,179.4,71.1L179.4,71.1L179.4,71.1z M299.3,86.1c-3.2,0-2.3-0.5-4.1-1
			c0,2.2-0.7,3.8-0.7,6.2c5.2,2.5,10.8,0.4,14.2-4.2l10.9-19.1c1-2,4.9-8.3,5.2-9.8c-9,0-7-0.4-11.3,7.8c-0.5,0.9-0.9,1.4-1.4,2.4
			l-1.9,3.9c-0.2,0.5-0.1,0.3-0.4,0.7c-0.4,0.6-0.1,0.2-0.4,0.6l-4.1-15.4h-7.5l4.9,15.6c2.2,6.5,3.2,8-0.1,10.8
			C302.1,85.1,300.5,86.1,299.3,86.1L299.3,86.1L299.3,86.1L299.3,86.1z M279.5,77.6c-6,0-4.4-6.2-0.3-6.2
			C290.7,71.4,284.2,77.6,279.5,77.6z M273,64.6c0.6-0.1,9.2-3.2,12.4-0.1c1.1,1,0.9,1.9,0.9,3.9c-2-0.5-3.9-1.7-7.5-1.7
			c-10.7,0-12.7,10.6-7.6,14.4c4.7,3.5,9.8,1.8,14.1-1.1c2.1,3.9,5.6,2.8,8.9,2c0.1-1.8,0.7-3,0.7-5.1h-2.4c-1-3.8,1-6.3,1-11.3
			c0-10.3-15.8-8.7-18.9-7C273,59.5,273.9,60.7,273,64.6L273,64.6L273,64.6L273,64.6z M253.5,63.6c3.6,0,5.8,2.2,5.8,5.8
			c0,10.1-13.1,8.5-12.6,2.8c0.1-0.9,0.5-3.5,0.7-4.5C248,65.4,250.7,63.6,253.5,63.6L253.5,63.6L253.5,63.6z M248.8,60.2
			L248.8,60.2z M248.8,60.2c0-1.4-0.1-1.1,0.3-2h-7.2c-0.2,2.5-0.9,5.8-1.3,8.2c-1.2,7.2-2.8,19.8-4.1,25.6c4.3,0,6.5,0.5,7.6-3
			l1.3-9.3c1.8,0.5,5.3,5.3,13,2.4c11.1-4.1,11.7-25.9-3.5-24.7c-3.1,0.2-4.6,1.9-6.2,2.7L248.8,60.2L248.8,60.2L248.8,60.2z
			 M221.5,76.9c-1.5,0-3.8-1-4.7-1.8c-1.8-1.4-1.4-2-1-4.6c0.5-2.7,0-3.3,1.6-4.8c4.4-4.3,11.9-1.8,10.7,4.8
			c-0.5,2.6-1.6,4.7-3.9,5.7C223.9,76.3,221.8,76.9,221.5,76.9L221.5,76.9L221.5,76.9L221.5,76.9z M207.8,82.3h6.2
			c0.1-1.6,0.3-1.4,0.3-3.1c1.4,1,1.4,1.6,3.3,2.5c4.7,2.3,10.1,1,13.4-2.2c1.9-1.9,3.6-4.8,4.1-7.9c2.1-13-9.2-17.2-16.2-12.4
			c-0.7,0.5-0.8,0.7-1.5,1.2l1.6-9.7c0.5-2.9,0.8-2.6-2.6-2.6c-4,0-4.6,2.6-5,5.9c-0.5,3.5-0.9,6.4-1.5,9.8L207,80.7
			C206.9,81.9,206.6,82.4,207.8,82.3L207.8,82.3L207.8,82.3L207.8,82.3z"/>
		<path class="st1" d="M1012.2,16.3v0.3c0.1,0.1,0.2,0.1,0.3,0.2c3.9,2.9,2.3,2.2,4.1,3.8l4.1,4.1c1,1.1,0.9,1.2,1.8,2.4
			c6.6,8.3,10.8,21.7,10.7,33c-0.1,11.2-4.4,24.6-11.3,32.8c-0.7,0.9-0.9,1.2-1.7,2.1c-4.8,5.6-4.4,4.2-8,7.8c1,0.5,0.1-0.1,1,0.6
			c10,6.7,17.7,10.5,31.4,10.9c19.3,0.6,33.8-8.1,44.8-21.1c10.8-12.8,14.9-35.6,8.6-51.3c-1.2-5-5.7-12.5-8.9-16.4l-3.9-4.6
			c-12.7-12.4-31.2-18.9-50-15.1C1020.6,8.7,1016,14.5,1012.2,16.3L1012.2,16.3L1012.2,16.3L1012.2,16.3z"/>
		<path class="st2" d="M1014.3,101.5c-0.9-1.9-2.7-2.7-4.2-3.9c-1.5-1.4-2.3-2.6-3.8-4.3c-7.8-8.9-12.6-22.3-12.6-35
			c0-13.5,4.8-25.7,12.8-35.2c1.9-2.2,5.8-6.3,8.2-7.8V15c-0.9-0.5-1.8-1.3-2.7-1.9c-5.9-3.9-16.4-9-23.1-9
			c-10.1-2.1-21.1,0.3-29.6,3.7c-24.1,9.8-39.4,38.1-30.9,66.5c5,16.6,17.8,29.4,33.1,35.1c8.9,3.3,19.6,4.5,29.4,2.6
			C998.3,110.6,1009.4,106.3,1014.3,101.5L1014.3,101.5L1014.3,101.5L1014.3,101.5z"/>
		<path class="st3" d="M1014.3,101.5l0.3,0c3.6-3.6,3.2-2.2,8-7.8c0.9-1,1-1.3,1.7-2.1c6.9-8.3,11.2-21.7,11.3-32.8
			c0.1-11.4-4.1-24.7-10.7-33c-0.9-1.2-0.9-1.3-1.8-2.4l-4.1-4.1c-1.8-1.6-0.1-0.9-4.1-3.8c-0.1-0.1-0.2-0.1-0.3-0.2
			c-2.4,1.5-6.3,5.6-8.2,7.8c-8,9.5-12.8,21.7-12.8,35.2c0,12.6,4.8,26,12.6,35c1.5,1.7,2.3,2.9,3.8,4.3
			C1011.6,98.9,1013.4,99.7,1014.3,101.5L1014.3,101.5L1014.3,101.5L1014.3,101.5z"/>
		<path class="st4" d="M456.5,91h6.7l1.6-3.9c0.3-0.9,0.7-1.7,1-2.5c0.2-0.4,0.3-0.8,0.5-1.2c0.1-0.3,0.5-1,0.5-1.3c0,0,0,0,0,0
			l3.5-8.1l1.7-4.1c0-0.2,0.1-0.3,0.2-0.5l1.9-4.6c0.1-0.3,0.3-0.7,0.5-1l0.6-1.5c0.1-0.2,0.2-0.3,0.1-0.5l3.9-9.2
			c0-0.1,0.1-0.3,0.2-0.5l3-7.1c0.1-0.2,0.2-0.3,0.1-0.5c0.1-0.1,0.2-0.3,0.3-0.5l1.1-2.6c0.1-0.3,0.3-0.7,0.5-1
			c0.1-0.3,0.3-0.7,0.4-1l1.3-3.1c0.1-0.3,0.3-0.6,0.3-0.9l0.1-0.2c0-0.1,0.1-0.1,0.1-0.2c0.1-0.2,0.1-0.3,0.2-0.4l2.2-5.4
			c0.1-0.3,0.3-0.6,0.3-0.9c0.1-0.1,0,0,0.1-0.1l2.3-5.5h-4.5h-5.8h-0.7h-3.3h-3.3h-1c-0.1,0.1-0.1,0.1-0.1,0.2
			c-0.2,0.5-0.9,2.2-1.1,2.8c-0.1,0.1-0.1,0.3-0.2,0.5l-1.4,3.6c-0.1,0.1-0.9,2.1-1,2.4c-0.3,0.8-0.6,1.6-0.9,2.4l-0.9,2.4
			c-0.3,0.8-0.7,1.6-0.9,2.4L466,41c-0.6,1.6-1.5,3.6-2.1,5.2c-0.1,0.3-0.3,0.8-0.4,1.1c-0.1,0.1-0.1,0.1-0.1,0.2
			c0,0.1-0.1,0.2-0.1,0.3l-1.5,3.7l-3.1,7.8c-0.1,0.2-0.1,0.4-0.2,0.6l-2.1,5.3l-1.2,3.1c0,0,0,0,0,0c0,0,0,0.1,0,0.1
			c0,0.1,0,0-0.1,0.1c-0.1,0.2-0.1,0.3-0.3,0.5c0-0.3-0.1-0.5-0.1-0.9l-0.5-2.5l-1.2-6.2c-0.1-0.7-1.1-6.1-1.2-6.3L448,32.3
			l-0.4-2.1c-0.3-1.4-0.5-2.5-1.3-3.7c-0.2-0.4-0.8-1.2-1.2-1.4c-0.3-0.5-1.5-1.4-2.1-1.6c-0.5-0.2-0.9-0.4-1.4-0.5
			c-0.4-0.1-1.2-0.3-1.6-0.3c-0.3,0-0.7-0.1-1.1-0.1s-0.9,0-1.2,0h-7.4h-3.3h-0.7h-2.5h-3.3H418h-0.7h-3.3c-0.1,0-4.7-0.1-4.8,0.1
			l-0.2,1c-0.1,0.3-0.2,0.7-0.2,1c0.5,0,4.5,1,5,1.2c0.3,0.1,0.5,0.1,0.8,0.2c0.2,0.1,0.6,0.2,0.9,0.2c0.2,0.1,0.7,0.2,1,0.3
			c0.3,0.1,0.6,0.2,0.9,0.3c0.7,0.2,1.3,0.4,1.9,0.7c0.3,0.1,0.7,0.2,0.9,0.3c0.5,0.1,1,0.3,1.5,0.5c0.3,0.1,0.5,0.1,0.7,0.3
			c0.2,0.1,0.5,0.2,0.7,0.3l1,0.5c0.3,0.1,0.7,0.3,1,0.5c0.7,0.3,1.4,0.7,2,1.1c2.6,1.4,3.2,4.6,3.8,7.3l2.3,8.9
			c0,0.3,0.6,2.3,0.7,2.7c0.2,1,0.5,1.8,0.7,2.8c0.5,1.8,1,3.7,1.4,5.5c0.5,1.8,1,3.7,1.4,5.5c0.5,1.8,1,3.7,1.4,5.5
			c0.5,1.8,1,3.7,1.4,5.5c0.5,1.8,1,3.7,1.4,5.5l2.9,11.1h5.5h2.5h0.7h3.3l-0.1-0.1L456.5,91z M515.1,86.3c0,0.5-0.3,1.5-0.3,2.1
			l1.4,0.5c1,0.3,1.7,0.6,2.7,0.9l2.8,0.7c0.3,0,0.7,0.1,1,0.2c0.3,0,0.9,0.1,1.2,0.2c0.7,0.1,3.3,0.6,3.9,0.6l5,0.4
			c0.5,0.1,1.2,0,1.8,0c0.6,0,1.2,0,1.7,0s0.9-0.1,1.5-0.1c0.3,0,0.5,0,0.9-0.1l1.6-0.1c0.2,0,0.6-0.1,0.8-0.1
			c0.5,0,1.1-0.1,1.6-0.2c0.3,0,0.5-0.1,0.7-0.1c0.2,0,0.5-0.1,0.7-0.1c0.2-0.1,0.6-0.1,0.8-0.2c0.3-0.1,0.5-0.1,0.7-0.1
			c0.5-0.1,1-0.2,1.5-0.4c0.5-0.1,2.3-0.7,2.8-0.9l0.9-0.4c0.9-0.2,3.4-1.6,4.2-2.1c0.3-0.1,1.2-0.7,1.3-0.9
			c0.2-0.1,0.5-0.3,0.7-0.5c0.4-0.3,1.6-1.3,1.8-1.6c0.2-0.1,0.3-0.2,0.5-0.4l1.3-1.4c0.1-0.1,0.2-0.2,0.3-0.3
			c0.1-0.1,0.1-0.1,0.1-0.2c0.1-0.1,0,0,0.1-0.2c0.1,0,0,0,0.1-0.1c0.1-0.1,0.1-0.1,0.1-0.1l1.3-1.9c0.1-0.2,0.3-0.7,0.5-0.8
			c0.4-1,0.9-1.7,1.3-3.1c0.1-0.2,0.1-0.3,0.1-0.6c0.1-0.2,0.1-0.4,0.1-0.7c0-0.1,0,0,0.1-0.1c0-0.1,0-0.1,0.1-0.2L565,73
			c0.1-0.5,0.2-1,0.2-1.6c0.1-1.2,0.2-2.2,0.2-3.5c0-2.9-0.9-5.7-2.4-8.1c-0.3-0.4-1.2-1.8-1.5-2c-0.3-0.5-0.3-0.3-0.5-0.6
			c-0.2-0.3-0.3-0.4-0.5-0.6c-0.2-0.2-0.3-0.3-0.6-0.6l-1.2-1.1c-0.2-0.2-0.4-0.3-0.7-0.5l-1.4-1c-0.7-0.5-1.4-0.9-2.1-1.3
			c-0.3-0.2-0.7-0.5-1-0.7c-0.3-0.1-0.9-0.5-1.2-0.6c-0.1-0.2-0.7-0.5-0.9-0.5c-0.3-0.2-0.7-0.3-1-0.5l-2-1.1
			c-0.3-0.1-0.3-0.1-0.6-0.3c-0.2-0.1-0.3-0.1-0.5-0.3l-0.1-0.1c-0.1-0.1,0,0-0.1-0.1l-3-1.8c-0.7-0.5-1.2-0.9-1.8-1.5
			c-0.4-0.4-0.8-0.9-1-1.3c-0.6-1.1-0.7-2.2-0.3-3.3c0.1-0.2,0.1-0.3,0.2-0.5c0.1-0.1,0.2-0.3,0.2-0.5c0.7-0.8,0.3-0.5,1.3-1.4
			c0.1-0.1,0.4-0.3,0.5-0.4c0.3-0.1,0.4-0.3,0.7-0.3c0.2-0.3,2.2-1,2.7-1c0.4-0.1,1-0.2,1.6-0.3c0.5-0.1,1.2-0.1,1.6-0.1
			c0.3,0,0.5,0,0.8,0c0.3,0,0.5-0.1,0.8-0.1c0.5,0.1,1,0.1,1.7,0.1l2.5,0.3c0.3,0,0.5,0.1,0.9,0.1c0,0,0,0,0,0l3.3,0.7
			c0.4,0.1,0.8,0.3,1.2,0.3c0.1,0.1,0.2,0.1,0.4,0.1l2.4,0.9c0.2,0.1,0.8,0.3,0.9,0.4c0.3,0.1,0.3,0.1,0.5,0.2
			c0.2,0.1,0.3,0.1,0.5,0.1l1-4.8c0.1-0.6,1-4.6,1-4.8c0.1-0.1,0,0,0.1-0.1c0,0,0-0.1,0-0.1l0.7-3.4c0.1-0.3,0.2-1,0.3-1.2
			c-0.3-0.1-3-1-3.4-1.1c-0.4-0.3-5.6-1.4-6.2-1.4c-0.3-0.1-0.7-0.1-1-0.1c-0.5,0-1.8-0.2-2.4-0.2c-0.4,0-0.5-0.1-0.9-0.1
			c-0.5,0-0.7-0.1-1-0.1c-0.3,0-0.7,0-1,0c-0.7,0-1.4,0-2.1,0c-0.6,0-1,0-1.6,0.1c-0.5,0-1,0.1-1.6,0.1c-0.5,0.1-1,0.1-1.6,0.2
			c-0.2,0-0.5,0.1-0.7,0.1c-0.3,0-0.5,0.1-0.8,0.1c-0.5,0.1-1,0.2-1.5,0.3c-0.5,0.1-1,0.2-1.5,0.3c-0.2,0-0.5,0.1-0.7,0.2
			c-0.3,0.1-0.5,0.1-0.8,0.2c-0.5,0.1-1,0.3-1.4,0.5l-0.7,0.2c-0.1,0.1-0.1,0-0.1,0.1c-0.4,0.1-0.7,0.2-1,0.4
			c-0.2,0.1-0.3,0.1-0.5,0.2c-0.2,0.1-0.3,0.2-0.6,0.2c-0.5,0.2-0.9,0.5-1.4,0.7l-1.2,0.7c-0.1,0.1,0,0-0.1,0.1
			c-0.2,0.1-0.5,0.3-0.7,0.4c-0.9,0.5-1.2,0.8-1.9,1.4c0,0-0.1,0-0.1,0.1c-0.2,0.1-0.4,0.3-0.6,0.5l-1.7,1.6
			c-0.2,0.2-0.3,0.3-0.6,0.6c-0.1,0.1-0.2,0.1-0.3,0.3c-0.1,0.1-0.1,0.2-0.3,0.3c-0.1,0.1-0.3,0.3-0.4,0.5c-0.1,0.2-0.3,0.3-0.4,0.6
			c-0.2,0.3-0.7,0.9-0.8,1.2l-0.3,0.4c-0.5,0.8-1.4,2.6-1.6,3.5c-0.1,0,0-0.1-0.1,0.1l-0.4,1.4c-0.4,1.6-0.6,2.9-0.7,4.5
			c0,0.3-0.1,0.6-0.1,1c0,0.3,0.1,0.5,0.1,0.9c0,0.7,0.3,2.1,0.4,2.7c0.7,2.4,2,5,3.6,6.7l0.8,0.9c1.2,1.2,1.7,1.6,2.9,2.6l1.2,0.9
			c0.1,0.1,0.5,0.3,0.6,0.4l1,0.7c0.3,0.2,0.7,0.4,1,0.6l2.2,1.2l3.1,1.5c0.3,0.2,1.9,1,2.1,1.1c0.1,0.1,1.6,1,2,1.3
			c0.5,0.4,1.4,1,1.9,1.5c0.2,0.2,0.3,0.4,0.5,0.6l0.1,0.1c0.9,1.1,1.4,2.5,1,4.2c-0.2,1-0.5,1.6-1,2.3c-0.2,0.2-0.4,0.4-0.5,0.6
			c-0.6,0.4-0.6,0.5-1.5,1c-0.6,0.3-1.2,0.6-1.8,0.8c-0.5,0.1-0.9,0.3-1.4,0.4c-0.5,0.1-1.1,0.3-1.6,0.3l-3.2,0.2
			c-0.6,0-1-0.1-1.6-0.1c-0.7,0-1.1-0.1-1.8-0.1c0-0.1,0,0-0.1-0.1c-0.1,0-0.1,0-0.2,0l-1.3-0.1c-0.7-0.1-1.2-0.2-1.8-0.3
			c-0.6,0-3-0.7-3.7-0.9l-3.6-1.2c-0.1-0.1-0.7-0.3-0.8-0.4c-0.4-0.1-2.4-1.2-2.7-1.2l-0.7,3.3c0,0.3-0.1,0.4-0.1,0.7
			c0,0.2-0.1,0.4-0.1,0.7c-0.1,0.3-0.1,0.7-0.2,1c-0.1,0.4-0.1,0.7-0.2,1c-0.1,0.7-0.3,1.3-0.5,2.1l-0.7,3.1
			c-0.1,0.4-0.1,0.7-0.3,1.1l0-0.1L515.1,86.3L515.1,86.3z M485.5,87.7c-0.1,0.1-0.1,0.6-0.2,0.8c-0.1,0.3-0.1,0.6-0.2,0.8l-0.3,1.6
			h1.9h3.2h4.1h6.5h2l0.5-2.2c0.1-0.5,0.2-1,0.3-1.4l0.6-2.7c0.1-0.3,0.1-0.5,0.1-0.7c0-0.2,0.1-0.5,0.1-0.7
			c0.1-0.2,0.3-1.1,0.3-1.4c0.1-0.1,0.1-0.7,0.2-0.9l2.8-13.2c0.1-0.3,0.1-0.7,0.2-0.9l1.2-5.5c0.1-0.5,0.2-0.9,0.3-1.3
			c0.1-0.3,0.3-1.1,0.2-1.4c0.1-0.1,0,0,0.1-0.1l0.3-1.3c0,0,0-0.1,0,0l1.3-6.1c0.1-0.3,0.1-0.7,0.2-1l0.2-1c0.1-0.4,0.2-1,0.3-1.4
			l1.7-8.1c0.1-0.3,0.3-1.2,0.2-1.4c0.2-0.1,0.1-0.2,0.2-0.7c0.1-0.6,0.4-1.7,0.5-2.2c0.1-0.1,0.4-2.4,0.6-2.6l1.2-5.5
			c0.3-1.6,0.7-3.2,1-4.8h-2.9H511h-1.6h-1.8h-6.5h-1.8c0,0.4-0.3,1.7-0.5,2.3l-0.7,3c0,0.2-0.1,0.4-0.1,0.7c0,0.2-0.1,0.5-0.1,0.7
			l-0.3,1.4c-0.1,0.3-0.1,0.5-0.1,0.7c-0.1,0.3-0.1,0.4-0.1,0.7c-0.1,0.3-0.9,4.8-1.2,5.4c0,0.3-0.1,0.6-0.1,0.9
			c-0.1,0.3-0.1,0.6-0.2,1c-0.1,0.7-0.3,1.2-0.4,1.9c-0.8,3.3-1.5,7-2.2,10.4c-0.1,0.3-0.2,0.6-0.2,1c-0.1,0.1-0.1,0.5-0.1,0.7
			c-0.1,0.3-0.1,0.5-0.1,0.7c-0.1,0.1-0.5,2.4-0.6,2.7c-0.1,0.5-0.2,0.9-0.3,1.4l-0.3,1.5c-0.1,0.1-0.6,2.5-0.6,2.6
			c-0.1,0.5-0.2,0.9-0.3,1.4c-0.1,0.5-0.1,1-0.3,1.4c0,0.3-0.7,3.5-0.9,4l-1.5,6.9c-0.2,1.2-0.5,2.3-0.7,3.4
			c-0.1,0.6-0.2,1.1-0.3,1.7c-0.1,0.6-0.3,1.2-0.3,1.8c-0.1,0.2-0.2,1-0.3,1.3c-0.1,0.5-0.2,0.9-0.3,1.4l-0.6,2.7l0.1,0L485.5,87.7
			L485.5,87.7z M566.1,86.9l-1.7,4h3.2h3.3h3.2h3.3h5.6c0.2-0.3,0.3-0.8,0.5-1.2c0.1-0.4,0.3-0.8,0.5-1.2c0.2-0.7,0.5-1.4,0.7-2
			c0.3-0.7,0.5-1.3,0.7-2c0.3-0.7,0.5-1.3,0.7-2c0.1-0.3,0.2-0.7,0.3-1c0.1-0.3,0.2-0.7,0.3-1h0.5h3.3h6.5h3.3h0.9h2.3h4.1h1.7
			c0,0.4,1.8,8.5,2,9.8c0.1,0.5,0,0.5,0.5,0.5h3h3.3h0.8h2.4h3.3h3.3c0-0.1,0-0.1,0-0.3c-0.1-0.4,0-0.1-0.1-0.2
			c0-0.5-2.6-12.6-2.9-14.1c-0.5-2.4-0.9-4.6-1.5-7c-0.3-1.2-1.1-5.7-1.4-6.8c-0.1-0.2,0-0.1-0.1-0.1c0-0.7-4.1-19.6-4.4-21.1
			l-0.7-3.5c-0.1-0.6-0.2-1.2-0.4-1.8c-0.1-0.3-0.1-0.5-0.2-0.9c0-0.2-0.1-0.3-0.1-0.5c0-0.2,0-0.3-0.1-0.3c0-0.3-0.1-0.5-0.1-0.8
			c-0.3-1.5-0.8-3.8-1.1-5.3l-1.3-6h-2.2h-4.9h-5h-3.2c-0.5,0-1.2,0.1-1.6,0.2c-0.5,0.1-1,0.3-1.5,0.4c-0.1,0.1-0.4,0.2-0.5,0.2
			c-0.2,0.1-0.3,0.1-0.5,0.3c-0.3,0.2-0.8,0.5-0.9,0.7c-0.2,0.1-0.2,0.1-0.3,0.2c-0.1,0.1-0.2,0.2-0.2,0.3c-0.7,0.3-2,2.6-2.1,3.2
			c-0.1,0.2-1.2,2.7-1.3,3c-0.1,0.4-0.3,0.7-0.5,1c-0.3,0.8-0.7,1.7-1,2.5c-0.2,0.4-0.3,0.8-0.5,1.2c-0.1,0.3-0.4,1-0.6,1.3
			l-1.2,2.8c-0.1,0.2-0.1,0,0,0.2c0,0,0,0,0,0l-0.3,0.5c-0.1,0.2-0.1,0.3-0.2,0.5c-0.1,0.1-1.7,3.9-1.7,4.1l-0.9,2
			c-0.1,0.3-0.3,0.7-0.4,1l-2.1,5.2c-0.1,0.2-0.3,0.7-0.4,1c-0.1,0.3-0.3,0.7-0.4,1l-0.6,1.5c-0.1,0.2-0.1,0.3-0.3,0.5
			c0,0.2-0.3,0.8-0.3,1l-3.1,7.2l-3.8,9.2c-0.1,0.1-0.1,0.1-0.1,0.2l-1.6,3.8l-1.7,4.1l-0.1,0.2c-0.5,1-1.1,2.8-1.6,3.9l-0.1,0.1
			L566.1,86.9L566.1,86.9z M596,66.6h-0.9h-3.2c0.2-0.8,1.3-3.5,1.5-4.3l0.4-1.2c0.2-0.5,0.4-1,0.6-1.6l0.5-1.2
			c0.1-0.2,0.1-0.2,0.1-0.5c0,0,0,0,0,0c0.1,0.1,0.5-1.3,0.5-1.3c0.5-1.3,1.1-2.9,1.5-4.1l1.4-3.8c0.1-0.2,0.1-0.3,0.2-0.6l0.8-2.2
			c0.1-0.5,0.7-1.8,0.8-2.2c0.1-0.1,0.3-0.9,0.3-1l0.6-1.6c0,0,0,0,0,0l0,0.1c0,0,0,0,0,0c0,0.1,0,0.1,0.1,0.3l1.2,6
			c0,0.2,0.1,0.8,0.2,0.9c0,0.3,0.1,0.9,0.2,1.2c0.1,0.4,0.1,0.8,0.2,1.2c0.1,0.3,0.4,2.2,0.5,2.3l2.8,13.6h-0.8h-3.3h-4.1L596,66.6
			L596,66.6L596,66.6L596,66.6z"/>
		<path class="st5" d="M1188.6,50.1h6.1V20.4c0.7,0.8,1,2,1.4,3l6.7,16.4c0.9,2.2,1.7,4.8,2.7,6.7h6.7c0.1-1.4,1.9-5.2,2.5-6.7
			l7.5-18.6c0.4-0.8,0.1-0.3,0.5-0.8v29.8c4.2,0,6.4,0.6,6.4-1V12.6h-9.8l-7.8,19.6c-0.8,2-2.2,4.6-2.7,6.8l-10.8-26.4h-9.5
			L1188.6,50.1L1188.6,50.1L1188.6,50.1L1188.6,50.1z"/>
		<path class="st6" d="M1186.9,74.2v2.4c0,4.7,4.5,7.7,8.6,8.6c3.2,0.7,8,0.9,10.6,2.2c6.4,3.3-2.5,14.5-17.6,4.4
			c-0.4,1.4-2.6,3.3-3.1,5.1c6.7,4.5,17.4,7,24.3,2c6.2-4.5,6.5-13,0.1-16.7c-3.1-1.8-6.1-1.9-10-2.5c-3.2-0.5-7.3-1.3-6.9-5
			c0.7-6,10.5-5.6,15.9-2.9c0.9,0.5,1.3,0.9,2.2,1.2c1-1.6,2-3.2,3.1-4.7C1201.8,59.7,1187,65.5,1186.9,74.2L1186.9,74.2
			L1186.9,74.2L1186.9,74.2z"/>
		<path class="st5" d="M1452.1,38.3v-2c0-9.4,14.9-9.3,14.9,0c0,3.1,0.1,4.5-2.3,6.9C1459.9,47.8,1452.1,44.3,1452.1,38.3
			L1452.1,38.3L1452.1,38.3z M1466.6,26.8c-4.2-2.8-3.2-3.1-8.8-3.1c-6.1,0-11.8,6.1-11.8,12.2c0,4.7,0.3,7.6,3.8,11.1
			c3.6,3.6,9.1,5,13.8,2.8c1.6-0.7,1.7-1.5,3-2.4v2.7c4,0,6.1,0.6,6.1-1V11.6h-6.1L1466.6,26.8L1466.6,26.8L1466.6,26.8L1466.6,26.8
			z"/>
		<path class="st6" d="M1349.6,80.6c0,5-0.3,6.1,1.7,10.8c0.9,2,2.2,3.5,3.8,5c1.7,1.7,2.7,2.5,5.2,3.6c8,3.4,18.2,1.4,23.1-5.9
			c-1.9-1.3-3.9-3.2-5.4-3.4c-0.9,3.5-10.1,8.2-18.1,1.9c-5-3.9-5.4-14.8-0.2-19.6c6.6-6.1,17.3-2.4,18.3,1.8
			c1.6-0.1,4.2-2.2,5.4-3.1c-1-3.9-8.9-7.8-13.9-7.8c-7.8,0-14.3,2.7-18.1,9.7C1350.7,75.1,1349.5,78.6,1349.6,80.6L1349.6,80.6
			L1349.6,80.6L1349.6,80.6z"/>
		<path class="st6" d="M1430.8,96.2c-4.9,0-7.8-2.9-7.8-7.8c0-10.3,14.5-10.1,14.5,0C1437.6,92.4,1434.8,96.2,1430.8,96.2z
			 M1437.3,78.5c-2-1.4-2.5-2.6-5.8-3.1c-7.6-1.1-14.2,4.8-14.2,11.8v2.4c0,6.2,5.4,11.8,12.9,11.8c3.4,0,5-1.7,7.1-3.1v2.4h5.8
			V63.6h-5.8L1437.3,78.5L1437.3,78.5L1437.3,78.5z"/>
		<path class="st5" d="M1399,38c0-2.9,0.3-4.5,2-6.5c3.7-4.5,12.9-2.1,12.9,4.5c0,2.9,0.1,5.6-2.5,7.7
			C1406.6,47.4,1399,44.2,1399,38L1399,38L1399,38z M1392.9,37c0,7.8,5.1,13.9,13.2,13.9c3.7,0,5.3-1.6,7.4-3.1
			c0,2.9-0.7,2.4,6.1,2.4V24.4h-6.1v2.4c-3.5-2.4-2.7-3.1-8.8-3.1C1398.4,23.7,1392.8,29.9,1392.9,37L1392.9,37L1392.9,37L1392.9,37
			z"/>
		<path class="st5" d="M1240,37.6c0-11.4,15.2-11,15.2-0.3c0,8.3-9.2,9.9-13,5.9C1241.3,42.1,1240,39.6,1240,37.6L1240,37.6
			L1240,37.6z M1246.4,50.8c2,0,3.7-0.2,5.4-1c1.3-0.7,2-1.6,3.1-2.4v2.7h5.8V24.5h-5.8v2.7c-3.5-2.4-1.9-3.4-9.5-3.4
			c-8.5,0-16.3,13.4-7.8,23C1239.2,48.7,1242.9,50.9,1246.4,50.8L1246.4,50.8L1246.4,50.8L1246.4,50.8z"/>
		<path class="st5" d="M1329.6,28.9c5.2,0,5.8,4.7,6.4,6.1h-12.9C1323.3,31.4,1326,28.9,1329.6,28.9L1329.6,28.9z M1316.8,37
			c0,11.3,10,16.3,19.6,12.8c2-0.7,2.9-1.6,4.4-2.7c-0.9-1.4-1.9-2.6-2.7-4.1c-0.3,0.1-10.6,6.7-14.4-1.4c-0.5-1-0.4-1.4-0.8-2.3
			h18.9v-3.7c0-6-5-11.8-11.2-11.8c-2.8,0-4.3-0.1-6.9,1.2c-1.2,0.6-2.9,1.8-3.7,2.8C1318.3,30,1316.7,33.3,1316.8,37L1316.8,37z"/>
		<path class="st6" d="M1332.7,80.6h2c2.7,0,4.7,3,4.7,5.8h-12.2C1327.4,83.3,1329.6,80.6,1332.7,80.6L1332.7,80.6z M1321.2,88.4
			c0,12,12,17.1,23,9.8c-0.5-1.8-1.9-2.3-2.4-4.1c-1.2,0.1-2.1,0.9-3.2,1.5c-4.1,2-10.8,1-11.3-4.8h17.9c0.2-0.9,0.3-0.7,0.3-1.4
			C1345.6,70,1321.2,71.6,1321.2,88.4L1321.2,88.4L1321.2,88.4L1321.2,88.4z"/>
		<path class="st6" d="M1459.2,80.6c4.2,0,6.2,0.5,7.4,5.8h-12.5C1454.3,83.8,1456.5,80.6,1459.2,80.6L1459.2,80.6z M1460.2,101.6
			c4.1,0,9-1,10.8-3.7c-0.6-1-1.8-3.1-2.7-3.7c-3.7,2-3.3,2.4-7.8,2.4c-3.7,0-5.7-2.7-6.4-5.8h14.2c4.1,0,4.1,0.6,4.1-2.7
			c0-11.5-12.5-17.1-20.9-8.7c-3.2,3.2-4.3,9.3-2.4,14.4C1450.5,97.6,1454.7,101.5,1460.2,101.6L1460.2,101.6L1460.2,101.6z"/>
		<path class="st6" d="M1229.9,80.6h2c2.7,0,4.7,3,4.7,5.8h-12.2C1224.5,83.3,1226.7,80.6,1229.9,80.6L1229.9,80.6z M1218.4,88
			c0,17,19.1,15.1,23,9.8c-0.8-1.1-2-2.3-2.4-3.7c-1.1,0.1-7.6,4.8-12.4,0.9c-1-0.9-2.1-2.6-2.2-4.3h17.9
			C1244.2,69.5,1218.4,71.6,1218.4,88L1218.4,88L1218.4,88L1218.4,88z"/>
		<path class="st6" d="M1392.6,88.4c0-10.1,15.2-10.3,15.2,0C1407.8,98.8,1392.6,98.7,1392.6,88.4z M1386.8,87.7
			c0,14.7,16,16.9,22.6,10.4c4.3-4.3,5.4-10.3,2.9-15.6c-2-4.3-6.8-7.1-12-7.2C1393.5,75.1,1386.8,80.6,1386.8,87.7L1386.8,87.7z"/>
		<path class="st5" d="M1267.4,32.2c0,3.7,3,5.9,6.3,6.9c2.9,0.9,9.6,0.6,9.6,3.6c0,3.5-7,3.3-10.4,2.3c-1.8-0.6-2.4-1.2-3.8-1.9
			c-0.9,1.4-1.8,3-2.7,4.4c9.7,6.5,23,2.9,23-4.7c0-10.3-13.9-6.9-15.6-10.1c-0.5-1,0-2.2,0.9-2.9c3.3-2.5,10.4,0.9,11.7,1.2
			c0.8-1.5,1.6-2.9,2.4-4.4C1282.6,22.5,1267.3,21.7,1267.4,32.2L1267.4,32.2L1267.4,32.2L1267.4,32.2z"/>
		<path class="st5" d="M1297.2,24.4h-5.1v5.4h5.1c0,11.3-2.2,21,9.8,21c3.1,0,5.6-1.4,7.4-2.7l-2.2-4.4c-1,0.1-9.4,4.7-9.4-3.1V29.8
			h8.8c1.5,0,1-1.7,1-5.4h-9.8v-7.8h-5.8L1297.2,24.4L1297.2,24.4z"/>
		<path class="st6" d="M1272.8,76.9c0,7.1-1,16.2,2.6,20.8c5,6.5,20.8,5.5,20.8-7.3V76.8c0-1.5-1.4-1-4.7-1c-1.6,0-1,2.6-1,5.4
			c0,9.2,1.4,14.9-6.4,14.9c-4.3,0-5.4-3.4-5.4-7.8V75.8C1274.8,75.8,1272.9,75.3,1272.8,76.9L1272.8,76.9L1272.8,76.9z"/>
		<path class="st5" d="M1366.5,37c0,11.9,11.7,16.4,19.4,12.6c3.3-1.6,2.2-1.7,3.9-2.8c-0.9-1.4-2.4-3.2-3.7-4.1
			c-2.1,1.4-4.6,3.7-8.8,2c-9.2-3.6-3.9-19.8,6.2-14.7c1.2,0.6,1.5,1.2,2.6,1.5l3.8-3.7C1384.7,20.3,1366.5,22.7,1366.5,37
			L1366.5,37L1366.5,37z"/>
		<path class="st6" d="M1246.1,88.4c0,4.1,1.5,7.1,3.7,9.6c4.4,4.8,15,5,18.7-0.4c-0.9-1.3-2.1-2.9-3.4-3.7
			c-2.5,1.7-3.1,2.4-6.4,2.4c-9.9,0-8.5-18.3,2.6-15.1c2,0.6,2.3,1.3,3.8,2.3c0.9-1.4,2.9-2.3,3.4-4.1c-0.9-1.4-4-3.1-6.2-3.6
			C1254.2,74,1246.2,79.1,1246.1,88.4L1246.1,88.4L1246.1,88.4z"/>
		<path class="st5" d="M1354,26.5v-2h-6.1v24.7c0,1.6,2.1,1,6.1,1V34.9c0-5.1,5.3-7.1,10.1-4.7c0.4-1.6,1.2-4.1,1.4-5.8
			c-2.4-1.2-6.6-0.9-8.9,0.2C1355.1,25.4,1355.1,25.7,1354,26.5L1354,26.5L1354,26.5L1354,26.5z"/>
		<path class="st5" d="M1433.2,26.8v-2.4h-5.8v25.7c6.7,0,6.1,0.5,6.1-2.3c0-4-0.8-13.4,1-16.2c2-3,6.2-2.8,9.1-1.4
			c0.5-1.9,0.9-3.8,1.4-5.8c-2.5-1.2-6.8-0.9-9.1,0.3C1434.4,25.5,1434.3,26,1433.2,26.8L1433.2,26.8L1433.2,26.8z"/>
		<path class="st6" d="M1308.7,78.3c0-2.8,0.5-2.4-4.7-2.4c-0.8,0-1,0.2-1,1v24h5.8V86.7c0-4.9,3.3-5.8,6.7-5.8
			c1.4,0,1.8,0.4,3.1,0.7c0.6-1.2,1-3.9,1.4-5.4c-1.8-0.9-3.9-1-6.1-0.7C1310.5,76,1310.7,76.9,1308.7,78.3L1308.7,78.3L1308.7,78.3
			L1308.7,78.3z"/>
		<g>
			<polygon class="st7" points="717.5,113.4 845.5,113.4 845.5,49.4 717.5,49.4 			"/>
			<path class="st7" d="M798.6,32.1h7.8l1.6-4.4l9.3,0.1l1,4.2l6.9,0.1c-0.7-4.8-2-9.9-3-14.7c-0.5-2.3-1-4.7-1.5-7.1l-1.2-5.7
				c-0.9-1.7-1.1-1.3-4.7-1.3c-4.6,0-4.9,1.4-6.3,4.9C806,14.6,799.8,27.5,798.6,32.1L798.6,32.1z"/>
			<path class="st7" d="M748.1,32.1l8.1-0.1c1.4-4.3,4-9.9,5.8-14.2c1.9-4.3,4.6-10,5.9-14.6l-7.9,0l-7.3,19.1
				c-1-2-2.3-10.8-2.9-14.1c-1.3-7.2-3-4.9-16.7-5c2.3,2.7,5.2,1.5,7.8,3.6c1.7,1.4,2.1,5.5,2.7,8C745.2,20.5,747,26.6,748.1,32.1
				L748.1,32.1L748.1,32.1L748.1,32.1z"/>
			<path class="st7" d="M779.1,24.8l-1.4,6.3c23.5,5.2,23.8-9.9,18.6-14.1c-3.6-2.8-6.5-2.7-7.7-6c2.7-3.7,6.5-2,10.6-1l1.2-6.2
				c-5-1-9.4-2-14.2,0.5c-3.3,1.7-6.9,5.9-4.6,10.9c1.8,4,9,5.4,9.5,7.7C792.2,28.8,781.1,25.5,779.1,24.8L779.1,24.8L779.1,24.8
				L779.1,24.8z"/>
			<polygon class="st7" points="765.1,32.1 772.7,32.1 778.8,3.3 771.1,3.3 			"/>
			<path class="st8" d="M798.1,87.6l0.3-6l2.2,0.5c2.2,1.2,2,3.3,2.7,5.7h2.7c-0.8-2.8-1-5-2.6-6.7c0.8-0.8,1.7-1.5,2-3.1
				c0.3-1.6-0.2-2.6-1.2-3.5c-2-1.9-5.6-1.3-8.5-1.2l0,14.4L798.1,87.6h0.1H798.1L798.1,87.6z"/>
			<path class="st8" d="M792.9,73.3l-2.3-0.1c-0.4,4.8,1,9.2-1.9,12.3c-3.8,0.7-4.2-0.5-4.3-4c-0.1-2.7,0.2-5.6-0.2-8.3h-2.3
				c-0.8,5.9-1.3,15,5.7,14.7C794.2,87.8,793.4,79.1,792.9,73.3L792.9,73.3L792.9,73.3L792.9,73.3z"/>
			<path class="st8" d="M767.4,85.6l-6.1,0c-0.6-1.4-0.5-2.4-0.1-4.2l5.5-0.1l-0.2-1.9l-5.4-0.3c0-0.4-0.2-1.8-0.1-2.1
				c0.4-2.4-0.5-1,1-1.6l5-0.1l-0.1-2l-8.2-0.1l-0.2,14.5l8.8,0L767.4,85.6L767.4,85.6L767.4,85.6L767.4,85.6z"/>
			<path class="st8" d="M816.8,85.6l-6.1-0.1c-0.6-1.4-0.5-2.3-0.1-4.2l5.4-0.1l-0.2-1.9l-5.4-0.3c-0.2-2.2-0.8-3,0.9-3.6l4.9-0.1
				l-0.1-2l-8.2-0.1l-0.2,14.5l8.7,0L816.8,85.6L816.8,85.6L816.8,85.6z"/>
			<path class="st8" d="M753.3,84.9c-1.7,0.9-3.5,0.9-5.6,0.2l-0.9,1.8c7.3,3.7,13.4-3.6,5.8-7.5c-2.4-1.2-2.8-0.6-2.8-3.7
				c1.6-0.5,3.3-0.5,5.2,0l0.6-2c-3.9-1.4-9-0.6-8.4,3.8C747.6,82.3,753.7,79.8,753.3,84.9L753.3,84.9z"/>
			<path class="st8" d="M777.9,75.5l1.8-0.3c0-3.5-5.8-1.9-7.3-1.2c-6.2,2.7-5.7,14.6,4.4,14.1c2.9-0.1,2.7-0.3,2.6-2.4
				c-4,0.1-3.6,0.3-6.9-0.8C770.6,80.2,770.9,73.8,777.9,75.5L777.9,75.5L777.9,75.5L777.9,75.5z"/>
			<polygon class="st8" points="810,21.9 816.1,21.9 813.9,11.4 			"/>
			<path class="st7" d="M798.4,79.7c3.7,0.5,4.8-0.8,4.1-4.1l-4.1-0.5V79.7L798.4,79.7L798.4,79.7z"/>
			<path class="st7" d="M761.2,85.5l6.1,0l-4.9-0.1v-2.8l2.9,0c1.6-0.5,0.8-0.2,1.6-0.9l-5.6-0.1L761.2,85.5L761.2,85.5L761.2,85.5z
				"/>
			<path class="st7" d="M810.8,85.5l6.1,0.1l-4.9-0.1v-2.8l2.8,0c1.6-0.5,0.8-0.2,1.6-0.9l-5.5-0.1L810.8,85.5L810.8,85.5z"/>
			<path class="st9" d="M810.8,85.5l0.1-3.9l5.5,0.1l-0.3-0.5l-5.4,0.1C810.3,83.2,810.2,84.1,810.8,85.5L810.8,85.5L810.8,85.5
				L810.8,85.5z"/>
			<path class="st9" d="M761.2,85.5l0.1-3.9l5.6,0.1l-0.3-0.5l-5.5,0.1C760.8,83.1,760.7,84.1,761.2,85.5L761.2,85.5z"/>
			<path class="st9" d="M815.8,79.3c-1.4-0.7-3-0.5-5-0.3l0.5-3.6c-1.6,0.6-1.1,1.4-0.9,3.6L815.8,79.3L815.8,79.3L815.8,79.3z"/>
			<path class="st9" d="M766.4,79.3c-1.4-0.7-3.1-0.5-5.1-0.3l0.5-3.6c-1.5,0.6-0.6-0.9-1,1.6c0,0.3,0.1,1.7,0.1,2.1L766.4,79.3
				L766.4,79.3L766.4,79.3z"/>
			<path class="st9" d="M798.1,87.6c1.1-0.8,0.5-4.1,0.3-5.6l2.1,0l-2.2-0.5L798.1,87.6L798.1,87.6L798.1,87.6L798.1,87.6z"/>
			<path class="st9" d="M777.9,75.5c0,1.6,1.5,0.1,1.8-0.3L777.9,75.5z"/>
		</g>
	</g>
	<g id="_849239360">
		<g id="_864712832">
			<path class="st10" d="M703-988.9c0.9,1.2-0.4,0.1,0.9,0.6c0.5,0.2,0.5,0.1,1,0.2c7.1,0.6,6.2-2.9,6,7.9c-1.8,0.8-0.9,0-1.9,1
				c1,0.5,4.8,4.4,5.3,5.2l-5.7,5.5l-0.8-1.1c-1.4,1.6,0,4.9-0.9,7.9c-10.7,0-6.3,0.2-8.7-1.8c-0.4,1-1.5,1.9-2.4,2.8
				c-0.9,0.9-1.5,1.7-2.9,2.5l-5.3-5.1c0.3-1.7,0.1-0.7,1-2l-7.7,0c-0.3-1.7-0.2-3.5-0.2-5.3c-0.1-4.4,1-1.9,1.5-3.4
				c0.1-0.2,0.2-0.1,0.2-0.1l-5.2-5.4l5.1-5.3c1.2,0.2,0.9,0.3,2.1,0.9l0.1-7.7c2.1-0.7,5.2-0.3,7.5-0.3c1.5,1.1,0.1,0.3,1,1.9
				c0.9-1.2,4.3-4.6,5.5-5.3c1.2,0.5,5.1,4.1,5.6,5.7C702.9-988.3,703.9-989.1,703-988.9L703-988.9L703-988.9L703-988.9z M666-999.7
				v45.8c0,3.8,3.1,6.9,6.9,6.9h45.4c2.3,0,3.7-0.5,4.9-1.6c1-0.9,2.4-2.4,2.4-4.1v-47.4c0-3.7-3.2-6.5-6.9-6.5h-45.1
				C669.2-1006.6,666-1003.7,666-999.7L666-999.7L666-999.7z"/>
			<path class="st11" d="M751.6-979.9h-7.3v-8.4c8.4,0,11.1-1,11.1,5C755.4-981.2,753.5-979.9,751.6-979.9L751.6-979.9z
				 M737.1-1003.2c0,5.5-0.5,25.5,0.4,29.4c3.6,0.8,11.9,0.4,16,0.4c11.1,0,16.8-21.4-3.8-21.4h-5.4v-5.4h14.1
				c1.7,0,1.1-1.6,1.1-5.4c0-0.9-0.3-1.1-1.1-1.1h-18.7C737.5-1006.7,737-1005.4,737.1-1003.2L737.1-1003.2L737.1-1003.2
				L737.1-1003.2z"/>
			<path class="st11" d="M794-977.2c0.3,1.3,1.6,5,3.1,5c1.9,0,5.1-2.4,6.2-3.4c1.5-1.5,2.6-4.1,3.3-6.7c1.1-4.3,1.7-12.6,1.7-17.8
				h9.2v26.7h7.3v-30.9c0-0.8-0.9-2.3-2.7-2.3h-17.7c-3.7,0.4-2.4,2-3,7.2c-0.3,2.1-0.6,6.9-0.7,9.3c-0.1,3.8-0.8,8.5-3.7,10.8
				C795.7-978.5,794.7-978.3,794-977.2L794-977.2L794-977.2L794-977.2z"/>
			<path class="st11" d="M831.4-973.4h7.3v-14.5c7.9,0,8.2-1,10.2,6.2l2.4,8.3h7.3c-0.2-2-1.9-7.7-2.5-10.1
				c-0.9-3.6-1.6-6.7-5.1-7.5c1.9-2.8,2.9-2,4.1-6.7c0.6-2.4,2-6.8,2.1-9h-6.1c-2.9,0-1.4,12.6-7.3,12.6h-5v-12.6h-7.3L831.4-973.4
				L831.4-973.4L831.4-973.4L831.4-973.4z"/>
			<path class="st11" d="M874.9-998.6l0.2,0.5c0.1,0.2,0.2,0.6,0.3,0.8l2.9,10.9h-6.9C872-987.5,874.8-997.2,874.9-998.6
				L874.9-998.6L874.9-998.6z M873-1006.7h4.2c3.3,0.3,2.9,2.6,7.7,16.5c1,3.1,1.8,5.7,2.9,8.9c1.2,3.5,3.5,7.8,1.3,7.8
				c-7,0-6.8,1.6-8.8-6.9H870c-0.8,1.6-1.8,5-2.3,6.9c-1,0-6.3,0.1-6.8-0.1c-1.1-0.4-0.7-0.9-0.3-2l9.2-27.8
				C870.4-1005.3,870.6-1006.7,873-1006.7L873-1006.7L873-1006.7z"/>
			<path class="st11" d="M768.4-998.2v16.8c0,4.8,3.5,8.1,6.5,8.1h17.2v-6.1c-8.9-2.1-16.4,2.9-16.4-3.8c0-6.1-2.4-4.6,14.5-4.6
				c0-4.2,0.6-6.1-1.1-6.1h-13.4c0-2.6-0.2-3.7,0.8-5.7c6.1-1.4,15.3,1.1,15.3-1.5c0-3.7,0.5-5.4-1.1-5.4H776
				C771.5-1006.6,768.4-1002.9,768.4-998.2L768.4-998.2L768.4-998.2L768.4-998.2z"/>
			<path class="st11" d="M907.8-991.3h-6.5v-8.8c3.5,0,10.7-1.1,10.7,4.2C912-993.4,910.3-991.3,907.8-991.3L907.8-991.3z
				 M894-1004.7v31.3h7.3v-11.8c7.1,0,14,1,17.4-6.3c2.8-5.9-0.7-15.1-9.4-15.1H896C895.1-1006.6,894.1-1005.6,894-1004.7
				L894-1004.7z"/>
			<path class="st12" d="M698.3-963.5c0.2-0.7,0-0.7,1.1-1.8c0.5-0.5,0.9-0.9,1.4-1.2c-2.4-1.3-1.7-2.2-1.7-2.6l-3.2-3
				c-1.6,1-2.6,1.8-3,4l-0.2-5.2l-4.5-0.2l3.1-3.2c-0.6-0.7-0.8-0.8-1.3-1.4l-1.5-1.8l4.2-0.1l0.1-4.5c1.3,0.8,2.2,2,3.2,2.9
				c1-0.5,2.2-1.6,2.5-2.7c0-1.1,0.2-2.8,0.2-4.5c1.6,0,3.5,0,4.6-0.2c0.9-0.3-0.1,0.6,1-0.6c-0.6-1.6-4.4-5.2-5.6-5.7
				c-1.2,0.6-4.6,4.1-5.5,5.3c-0.9-1.6,0.5-0.8-1-1.9c-2.3,0-5.3-0.4-7.5,0.3l-0.1,7.7c-1.2-0.6-0.9-0.7-2.1-0.9l-5.1,5.3l5.2,5.4
				c0,0-0.2-0.1-0.2,0.1c-0.5,1.5-1.6-1-1.5,3.4c0,1.8-0.1,3.6,0.2,5.3l7.7,0c-0.9,1.3-0.7,0.4-1,2l5.3,5.1c1.4-0.8,1.9-1.6,2.9-2.5
				C696.8-961.7,697.9-962.5,698.3-963.5L698.3-963.5L698.3-963.5z"/>
			<path class="st11" d="M921.1-1000.5c2.9,0.7,5.7,0.4,9.2,0.4v25.6c0,1.8,2.8,1.1,7.7,1.1v-26.7c10.8,0,9.6,1.2,9.6-5.4
				c0-0.9-0.3-1.1-1.1-1.1h-24.1c-1.3,0-1.2,0.9-1.2,2.2C921.1-1003.2,921.1-1001.8,921.1-1000.5L921.1-1000.5L921.1-1000.5z"/>
			<path class="st11" d="M737-949.3c0,1,0.2,1,0.4,1.9h3.8l5.2-8.5c0.6-1.1,1.2-2.3,2-2.9v11.5h4.2v-16c0-2.7-1.5-2.3-3.5-2.3
				s-6.3,10.2-8.1,11.5c0-2,0-4.1,0-6.1c0-5.8,0.9-5.4-4.2-5.4L737-949.3L737-949.3L737-949.3L737-949.3z"/>
			<path class="st11" d="M856.6-963.5v16h4.2v-14.5h6.9v14.5h4.2v-16.8c0-0.9-0.6-1.5-1.5-1.5h-12.2
				C857-965.8,856.7-964.6,856.6-963.5L856.6-963.5L856.6-963.5z"/>
			<path class="st11" d="M896.3-950.5c-2.9,0-2.3,0.7-2.3-7.3c4.5-0.1,4.6-0.5,4.6,4.6C898.6-951.3,897.1-950.5,896.3-950.5
				L896.3-950.5L896.3-950.5z M889.9-959.3v17.2h4.2v-5.4c2.9,1.4,7.8,0.6,8.9-5.6c0.3-1.7-0.2-4.4-1.1-6
				C899.3-963.2,889.9-961.6,889.9-959.3L889.9-959.3L889.9-959.3L889.9-959.3z"/>
			<path class="st11" d="M803.9-950.5c-1,0-1-0.2-1.9-0.4v-6.9c1.7,0,5-1.4,5,3.8C807-952.1,805.9-950.5,803.9-950.5L803.9-950.5z
				 M798.2-960.4v18.3h3.8v-5.4c2.2,1.1,6.9,0.5,8.4-3.1c2-4.7-0.1-11.1-5-11.1C800.3-961.6,802.2-961.4,798.2-960.4L798.2-960.4
				L798.2-960.4L798.2-960.4z"/>
			<path class="st11" d="M878.8-951.3c0-1,0.2-1,0.4-1.9l3.8-0.4v3.1C883-950.5,878.7-949.5,878.8-951.3L878.8-951.3L878.8-951.3z
				 M876.1-960.8c0,1.8,0.1,1.7,0.4,3.1c3.3-0.1,6.2-1.6,6.5,1.5c-2.1,0-4.1-0.3-5.6,0.5c-3.3,1.6-3.4,5.6-1.5,7.4
				c2.3,2.1,10.9,1.6,10.9-0.6C886.7-958.4,888.6-963.7,876.1-960.8L876.1-960.8L876.1-960.8L876.1-960.8z"/>
			<path class="st11" d="M789.4-958.1c1,0,1,0.2,1.9,0.4c0.1,1,0.2,1,0.4,1.9h-4.6C787.6-956.9,787.8-958.1,789.4-958.1L789.4-958.1
				L789.4-958.1z M782.9-955c0,6.2,1.5,8.1,7.7,8.1c2.1,0,3-0.7,4.2-1.5c-0.4-0.9-0.7-1.7-1.1-2.7c-2.1,0.5-6.2,2.3-6.5-1.9
				c1.7,0,3.3,0,5,0c3.6,0,3.4-0.3,3.4-3.1c0-1.5-0.5-2.8-1.3-3.7C791.2-963.2,783-961.9,782.9-955L782.9-955L782.9-955L782.9-955z"
				/>
			<path class="st11" d="M912-950.5c-3,0-2.7-2-2.7-5c0-3.7,5-3.9,5,1.1C914.3-952.8,913.5-950.5,912-950.5L912-950.5z M905.1-955.1
				c0,5.7,1.1,8.1,7.3,8.1c8.2,0,7.5-14.5,0.4-14.5C908.6-961.5,905.1-960.2,905.1-955.1L905.1-955.1L905.1-955.1z"/>
			<path class="st11" d="M835.2-958.1c1,0,1,0.2,1.9,0.4c0.1,1,0.2,1,0.4,1.9h-4.6C833.2-957.1,833.7-958.1,835.2-958.1L835.2-958.1
				L835.2-958.1z M828.7-955c0,6.7,1.8,8.1,7.7,8.1c2.1,0,3-0.7,4.2-1.5c-0.5-0.9-0.9-1.6-1.1-2.7c-1.9,0.5-6.4,2.3-6.5-1.9
				c8.8,0,8.4,0.7,8.4-3.5C841.4-963.1,828.7-963.9,828.7-955L828.7-955z"/>
			<path class="st11" d="M813.5-960v12.6h4.2v-5.7h4.6v5.7h3.8v-13.7h-3.8v5h-4.6v-5C814.7-961.1,813.5-961.6,813.5-960z"/>
			<path class="st11" d="M755.8-960v12.6h4.2v-5.7h4.6v5.7h3.8v-13.7h-3.8v5H760v-5C757-961.1,755.8-961.6,755.8-960z"/>
			<path class="st11" d="M919.2-949.3c0.5,0.9,0.7,1.8,1.1,2.7c5.4-0.5,5.7-6,5.7-11.1h3.1v10.3h3.8V-960c0-2-3.8-1.1-9.2-1.1
				c-2,0-1.4,4.4-1.6,6.5C921.9-951.1,921.6-950.9,919.2-949.3L919.2-949.3L919.2-949.3L919.2-949.3z"/>
			<path class="st10" d="M699.1-969.1c0.1-1.6-0.2-3,0.4-4.4c1.2,0,1.8,0.2,2.9-0.2c1.3-0.5,0,0.5,1-0.7c-1-0.5-1.9-1.4-2.6-2.4
				c0.5-1,1.4-2.2,2.4-2.3c-0.8-1.4,0.4-0.6-2-0.9c-1-0.1-1.2,0.4-1.8-0.3c-0.5-0.6-0.1-1-0.2-1.8c-0.2-2.4-0.2-1.7-0.8-2
				c-0.4,1.1-1.5,2.2-2.5,2.7c-1-0.9-1.9-2.1-3.2-2.9l-0.1,4.5l-4.2,0.1l1.5,1.8c0.6,0.6,0.8,0.7,1.3,1.4l-3.1,3.2l4.5,0.2l0.2,5.2
				c0.5-2.2,1.4-2.9,3-4L699.1-969.1L699.1-969.1z"/>
			<path class="st11" d="M943.3-950.5h-3.1v-3.5h1.5C946.4-953.9,944.9-950.5,943.3-950.5L943.3-950.5L943.3-950.5z M936.1-960
				c0,3.7-0.4,9.1,0.4,12.6c9.3,0,12.2,1,12.2-5.7c0-4.2-5.4-3.8-8.4-3.8v-4.2C937.3-961.2,936.1-961.6,936.1-960L936.1-960
				L936.1-960z"/>
			<path class="st13" d="M699.1-969.1c0,0.4-0.7,1.3,1.7,2.6c-0.6,0.3-1,0.7-1.4,1.2c-1.1,1.1-0.9,1.1-1.1,1.8c2.4,2-2,1.8,8.7,1.8
				c0.9-3.1-0.6-6.4,0.9-7.9c0.2-1.3,0.6-3.9-0.9-4.4c-1.3-0.5-2-0.7-3.7-0.4c-1,1.2,0.3,0.2-1,0.7c-1,0.4-1.7,0.2-2.9,0.2
				C698.8-972.1,699.1-970.8,699.1-969.1L699.1-969.1L699.1-969.1L699.1-969.1z"/>
			<path class="st13" d="M698.3-984.2c0.6,0.3,0.6-0.3,0.8,2c0.1,0.8-0.3,1.3,0.2,1.8c0.6,0.7,0.8,0.2,1.8,0.3
				c2.4,0.3,1.2-0.5,2,0.9c2-0.8,1.2-0.9,2.9-2.3l0.5-0.3c0,0-0.7-0.1,0.6,1.2l2,1.3c0.9-1,0-0.2,1.9-1c0.2-10.8,1-7.3-6-7.9
				c-0.6-0.1-0.5,0-1-0.2c-1.2-0.5,0,0.6-0.9-0.6c-1,0.2-3,0.2-4.6,0.2C698.5-987,698.3-985.2,698.3-984.2L698.3-984.2z"/>
			<path class="st11" d="M770.3-958.9c0,1.5,1.1,1.1,3.8,1.1c0,3.3-0.4,7.1,0.4,10.3h3.8v-10.3c4.8,0,4.2,0.6,4.2-3.5h-12.2
				L770.3-958.9L770.3-958.9L770.3-958.9L770.3-958.9z"/>
			<path class="st11" d="M842.5-958.9c0,1.6,1.2,1.1,4.2,1.1v10.3h3.8v-10.3c4.8,0,4.2,0.6,4.2-3.5h-12.2L842.5-958.9L842.5-958.9
				L842.5-958.9z"/>
			<path class="st12" d="M703.1-979.1c-1,0.2-1.9,1.3-2.4,2.3c0.7,1,1.6,2,2.6,2.4c1.8-0.3,2.4-0.1,3.7,0.4c1.5,0.5,1.1,3.1,0.9,4.4
				l0.8,1.1l5.7-5.5c-0.6-0.8-4.3-4.7-5.3-5.2l-2-1.3c-1.3-1.4-0.6-1.2-0.6-1.2l-0.5,0.3C704.3-980,705.1-979.9,703.1-979.1
				L703.1-979.1L703.1-979.1z"/>
		</g>
		<path class="st14" d="M519.9-965.8l2.1,9.9L519.9-965.8z M500.1-1014.6v0.7l-0.8-0.6L500.1-1014.6L500.1-1014.6L500.1-1014.6z
			 M503-1016c-2,0.8-1,0.2-2.8,1.4v-1.3c6.9-8.7,3.4-6.5-17-6.5v25.5c-0.1-0.1-0.2-0.5-0.2-0.5c0,0.1-0.2-0.4-0.2-0.5l-2.4-7.6
			c-3.3,0.3-4.2,2.4-8,6.2c-2.5,2.5-5,4.5-6.9,7.3c1.2,4.4,12.3,11.8,16.3,17.7c-8.4-2-7.8-12.3-7.8,17h25.5c-2.1,1.8-4.8,2-8.5,2.8
			c0.3,2.9,0.7,2.7,2.6,4.5c1.4,1.4,2.2,2.2,3.6,3.5c2.5,2.5,4.5,5,7.3,6.9c4.4-1.2,11.8-12.3,17.7-16.3c-0.8,3.5-2.6,3.9-3.5,7.8
			H539l0.5-24.5c1.5,3.3,0.7,3.9,3,8.3c1.8-1.2,13.4-12.1,14.1-14.9l-16.3-17c8.4,2.2,7.8,11.9,7.8-17h-26.2
			c0.2-0.1,0.4-0.4,0.5-0.2l1-0.4c0.1-0.1,0.4-0.1,0.5-0.2c0.9-0.3,1-0.3,2.2-0.7c1.5-0.4,3.4-0.9,5-1.3c-0.3-3.3-2.4-4.2-6.2-8
			c-2.2-2.2-4.9-6.1-8-6.9c-2.7,1.8-8,7.7-11.1,10.8C502.4-1016.7,503-1017.8,503-1016L503-1016L503-1016z M542.6-927.6h-3.5v-3.5
			h3.8c1.2,1.1,0.7,0.2,1.2,2.1L542.6-927.6L542.6-927.6z M528.5-977.8c-11.8,0-9.9-1.9-9.9,9.9v0.7l-7.3-6.9
			c-2.4,1.6-5.6,5.2-7.6,7.6c0-13.2,2.4-11.3-10.6-11.3c1.8-2.7,5.4-4.3,6.4-7.8c-2.2-3.2-4.7-4.3-6.4-7.1
			c12.7,0,10.6,2.1,10.6-10.6l7.3,6.9l7.5-7.1c0.2,12.9-2,10.7,10.7,10.7l-6.9,7.3c1.5,2.4,3.9,4,5.4,5.7
			C529.2-978,528.6-978.2,528.5-977.8L528.5-977.8z M553.9-918.5c0.4,0.7-2.2,0.7,2.6,0.7h0.3v-13.4h5v-3.5h-13.4v2.1l-0.8-0.2
			c-4.8-2.5,1-1.9-12.6-1.9v17h4.3v-5.7c6.7,0,9.2-0.9,9.2-7.8h4.3l-0.1,9.9C553-918.6,552.2-919.8,553.9-918.5L553.9-918.5
			L553.9-918.5L553.9-918.5z M474.7-929.7c0,9.8-0.3,11.7,4.4,12h7.7v-3.5H479v-4.3h7.1v-3.5H479v-2.1h7.8v-3.5
			C479.7-934.7,474.7-936.1,474.7-929.7L474.7-929.7L474.7-929.7L474.7-929.7z M487.4-917.7h0.1h0.1c2.7,0,5-0.1,5.9-5.1
			c0.4-2,0.9-6.5,0.9-8.3h4.3v13.4h4.3c0-20.3,2.7-17-10.6-17c-3.4,0-1.9,4.7-2.3,8.3C489.2-918.6,487.4-924.2,487.4-917.7
			L487.4-917.7L487.4-917.7L487.4-917.7z M467.6-921.3h-2.8v-4.3c3.8,0,4.9-0.3,5,3.5C468.9-921.5,469-921.3,467.6-921.3
			L467.6-921.3L467.6-921.3z M469-917.7h-8.4v-17h12c-0.1,5.1-2.2,3.5-7.8,3.5v2.1c5,0,10.8,0.9,9,7.6
			C473.2-918.9,471.4-918,469-917.7L469-917.7L469-917.7L469-917.7z M526.3-929c0.8,1.2,0-1.1,1,1.9c0.5,1.6,0.3,0.3,0.5,2.4h-2.8
			C525.5-926.2,525.9-927.3,526.3-929z M504.4-917.7h4.3v-7.1c3.4,0,5.1-0.1,5.7,7.1h8.5c0.6-1.2,0.8-2.3,1.4-3.5h5
			c0.4,1.6,0.5,1.6,0.7,3.5h4.3c-0.1-4.7-3.9-12.2-5-17h-5c-1,2.1-4.8,13.1-5,15.6c-2.4-1.8-0.7,0.2-1.7-3.2
			c-0.2-0.7-0.4-1.6-0.6-2.2c-2-5.7,0.4-3.7,0.9-10.1h-4.3c-0.4,4.4-0.5,6.3-5,6.4v-6.4h-4.3L504.4-917.7L504.4-917.7L504.4-917.7
			L504.4-917.7z M519.9-965.8l-0.7-0.7L519.9-965.8z M519.2-966.5l-0.7-0.7L519.2-966.5z M492.4-977.1l-10.6,2.8L492.4-977.1z
			 M493.1-977.8l-0.7,0.7L493.1-977.8z M493.1-977.8l-0.7,0.7L493.1-977.8z M529.9-993.4l-0.7,0.7L529.9-993.4z M540.5-996.2
			l-10.6,2.8L540.5-996.2z M503.7-1003.3l36.8,7.1L503.7-1003.3z M503.7-1003.3l-0.7-0.7L503.7-1003.3z M503-1004l-0.7-0.7
			C503.9-1004.7,504.2-1005.2,503-1004z M503-1016l-0.7,11.3L503-1016z"/>
		<g id="_674138816">
			<path class="st15" d="M1591.2-957.6l3.2,15.6h-9.2l2.9-7.8c0.6-1.4,0.9-2.5,1.4-3.9L1591.2-957.6L1591.2-957.6L1591.2-957.6z
				 M1567.6-926.3h12.1c0.5-2,1.9-4.5,2.1-6.5c3.9,0,7.7,0,11.5,0c3.3,0,3.1-1.2,3.9,4.6c0.4,2.7-0.1,1.9,11.1,1.9
				c-0.1-1.8-1.7-8.5-2.2-11.1l-2.3-11c-1.6-7.2-3-14.7-4.7-21.9c-14.2,0-12.7-1.7-17.8,10.6l-5.6,13.3c-0.5,1.2-1,2.2-1.4,3.3
				c-0.5,1.2-0.7,2.2-1.3,3.4l-5.5,13.4L1567.6-926.3L1567.6-926.3L1567.6-926.3z"/>
			<path class="st15" d="M1540.7-956.4c0,4.8,2.9,7.4,6.3,9.9c3.6,2.6,9.3,3.2,9.3,7.8c0,0.9-0.2,1.1-0.7,1.6l-0.5,0.4
				c-3.5,2.7-11.3,1.4-15.3-0.4c-0.9-0.4-1.3-0.7-2.5-0.8c0,2.7-1.4,7.7-1.5,9.7c6.9,3.6,23.8,4.3,30.4-5.3
				c3.1-4.4,2.9-11.5-1.6-15.6c-1.9-1.7-4.1-2.9-6.5-4.1c-1.3-0.6-2.3-1.2-3.4-1.9c-5.4-3.4-0.9-8.6,9.6-6.1
				c1.4,0.3,2.8,1.3,4.2,1.4c0-1.3,0.4-3.2,0.7-4.6c0.2-1.4,0.5-3.4,0.8-4.8c-4.6-2.4-12.5-2.6-17.6-1.1c-1.2,0.3-2,0.7-3,1.1
				c-3.1,1.4-5.2,3-7.1,5.9C1541.4-961.6,1540.7-959,1540.7-956.4L1540.7-956.4L1540.7-956.4L1540.7-956.4z"/>
			<path class="st15" d="M1495.8-947c-0.7-0.9-2.2-4.3-2.9-5.6c-0.9-1.5-2.5-3.6-3.6-4.7c-1.9-1.9-6.1-6.2-9.1-7.3l10,38.3h12.1
				l18-44h-12.1c-1.9,3.7-9.7,27.5-11.2,29.2L1495.8-947L1495.8-947L1495.8-947L1495.8-947z"/>
			<path class="st15" d="M1418.8-1018.4l7.2,32.9c0.3,1.5,1,3.6,1.1,4.8h7.4c0.9-1.7,1.7-3,2.6-4.8c0.5-0.9,0.7-1.5,1.2-2.3l9-17
				c0.9-1.7,1.6-3.2,2.6-4.8l1.8-3.5c0.3-0.5,0.4-0.9,0.7-1.4l2.6-4.8h-8c-0.3,1.2-1.1,2.3-1.6,3.4l-2.6,5.4c-0.4,0.7-0.6,1-1,1.7
				l-5.3,10.7c-0.7,1.2-3.1,5.9-3.4,7.2c-0.9-0.7-0.7-1.7-1.2-4.1l-4.6-23.5c-0.4-1.8-0.1-1.2-3.7-0.7
				C1422.1-1019.1,1420.3-1018.5,1418.8-1018.4L1418.8-1018.4L1418.8-1018.4L1418.8-1018.4z"/>
			<path class="st15" d="M1573.2-986.5c-3.2,0-4.4-1.8-4.4-5c0-5,2.3-10.9,7.1-10.9c4.3,0,2.2,0.2,5.3,0.9l-1.6,9.9
				C1579.2-988.5,1575.3-986.5,1573.2-986.5z M1582-1007.2c-4.5-1-1.8-0.9-7.1-0.9c-11.5,0-16.3,18.8-11.4,24.7
				c3.1,3.7,8.1,3.8,11.8,1.7c1.5-0.9,2.2-1.7,3.4-2.5v3.2h6.2c0-2,1.7-11.5,2.2-15c0.3-1.6,0.6-3.4,0.8-5.1
				c0.3-2.2,2.9-17.9,2.9-20.1c-1.6,0-3.2,0.4-5,0.7c-2.6,0.3-2.1,0.3-2.5,3.1L1582-1007.2L1582-1007.2L1582-1007.2z"/>
			<path class="st15" d="M1517.7-926.3h11.5l6.1-38.5c0.3-1.7,0.8-3.9,1-5.6c-13.5,0-11.5-1.1-12.2,3.5
				C1523.4-962.4,1517.6-928.5,1517.7-926.3L1517.7-926.3L1517.7-926.3z"/>
			<path class="st15" d="M1549.2-1003.6c3.3,0,4.1,2.9,4.1,6.2h-10.3C1543.7-1000.3,1545.8-1003.6,1549.2-1003.6L1549.2-1003.6z
				 M1535.4-992.7c0,3.1-0.3,5.9,2,8.6c0.2,0.2,0.4,0.4,0.6,0.6c4.1,4.4,12.2,3.6,17.2,1.4c3.6-1.6,2.9-2,2.9-6.8
				c-1,0.1-1.3,0.5-2.3,1c-5.3,2.8-13.7,4.4-13.7-3.7v-1.5h16.5c2,0,3-15.3-7.7-15.3c-3.2,0-4.7,0.1-7.6,1.6
				C1539.1-1004.6,1535.3-998.2,1535.4-992.7L1535.4-992.7L1535.4-992.7L1535.4-992.7z"/>
			<path class="st15" d="M1461.9-1003.6c3.6,0,4.1,3.1,4.1,6.2h-10.3C1456.4-1000.3,1458.6-1003.6,1461.9-1003.6L1461.9-1003.6z
				 M1448-991.8c0,3.8,0.3,6.1,2.8,8.7c4.4,4.4,13.8,3.1,18.8,0.2c0.4-0.2,0.8-0.1,1.1-1.6l0.1-1.7c0-0.9,0-1.8,0-2.7
				c-2.5,0.6-4.8,3.2-10,3.2c-5.3,0-5.9-3.5-5.9-7.4h16.5c1.8,0,2.1-9.3-1.4-12.8c-4.4-4.4-13.6-3.2-18.1,2.7
				C1449.8-1000.2,1448.1-996.7,1448-991.8L1448-991.8L1448-991.8z"/>
			<path class="st15" d="M1507.7-1008.1c-0.6,1.2-0.5,1.5-0.7,3.1c-0.5,3.1-1.2,2.8,3.4,2.8c0,2.6-3,18.2-3.2,21.3
				c8.3,0,6.9,0.7,7.4-3.2l2.6-16.3c0.2-1.4-0.3-1.4,0.9-1.7c1.4-0.3,4.2,0.6,5-0.3c0.7-0.7,0.3-4.1,0.3-5.4c-2.1-0.5-2.5-0.3-5-0.3
				c0-7.9,3.1-6.8,7.1-6.8v-5.6c-3.7,0-6.9-0.6-10.1,2c-2.5,1.9-3.1,4.6-3.5,7.7C1511.2-1007,1511.7-1008,1507.7-1008.1
				L1507.7-1008.1L1507.7-1008.1L1507.7-1008.1z"/>
			<path class="st15" d="M1606.3-985c-2.7,0-1.9-0.2-3.6-0.3c0-1.3,0.4-2.4,0.6-3.8c0.5-3.7,0.3-5.4,2.2-6.7
				C1614.3-1001.7,1613.4-985.1,1606.3-985L1606.3-985L1606.3-985z M1601.2-1010.7c-0.1,1.9-0.7,5.2-1.1,7.2
				c-0.6,3.3-3.1,19.1-3.1,21.7c1.1,0.1,1.6,0.4,2.8,0.7c7.5,1.8,14.4-0.4,16.6-8.4c1-3.7,1.5-8.2-1.7-11c-2.1-1.8-5-1.6-7.3-0.6
				c-1.7,0.7-1.7,1.1-2.9,1.9c0.5-2.1,1.8-9.9,1.8-12.1C1604.5-1011.3,1603.4-1010.7,1601.2-1010.7L1601.2-1010.7L1601.2-1010.7
				L1601.2-1010.7z"/>
			<path class="st15" d="M1484-1003.1c0-6,1.2-5-5-5c-1.6,0-1.2,3.2-1.8,6.2l-3.2,21c9.2,0,6.4,1.2,7.9-6.6c0.5-2.5,0.8-5.1,1.2-7.4
				c0.3-2.2,2.1-3.6,3.9-4.6c1.7-0.9,4-2,6.5-2.1v-6.8c-2.5,0-4,0.8-5.6,1.8C1486.3-1005.6,1485.5-1004.1,1484-1003.1L1484-1003.1
				L1484-1003.1L1484-1003.1z"/>
			<path class="st15" d="M1620.1-1001c0.2,2.6,4.1,17.8,4.1,20.1c0,1.3-1.7,3.2-3.2,3.2h-3.2l0.3,4.4c3.1,0,4.7,0.3,7.4-1.8
				c2.7-2,10-17.5,12.3-22l2.2-4.3h-5.3l-5.5,11.9c-0.2,0.4-0.2,0.5-0.4,0.8l-0.2,0.4c-0.4,0.6-0.1,0.2-0.4,0.5l-1.7-10.3
				c-0.2-1.2-0.5-2.4-0.6-3.5C1623.8-1001.6,1621.8-1001,1620.1-1001L1620.1-1001L1620.1-1001L1620.1-1001z"/>
			<path class="st15" d="M1497.3-1007.8c-0.1,2-0.7,4.6-0.9,6.7l-2.1,13.3c-0.3,2-1,4.8-1.1,6.9h7.1c0-3.3,3.9-22.9,3.9-26.5
				C1504.1-1008.6,1498-1008,1497.3-1007.8L1497.3-1007.8L1497.3-1007.8L1497.3-1007.8z"/>
			<path class="st15" d="M1526.6-1007.8c0,3.7-3.9,23.1-3.9,26.9h6.8l3.7-24.4c0.5-3.3,1.6-2.8-5.2-2.8
				C1527.6-1008.1,1526.9-1007.9,1526.6-1007.8z"/>
			<path class="st16" d="M1480.2-964.6c3.1,1.1,7.2,5.4,9.1,7.3c1.1,1.1,2.7,3.2,3.6,4.7c0.8,1.3,2.2,4.6,2.9,5.6
				c0-1.8-0.6-3.7-0.9-5.2c-3.8-18.7-1.2-18-13.8-18c-4.2,0-8.4,0-12.7,0c0.1,1.2-0.5,0.8,2.5,1.6
				C1473.2-968,1478.8-965.6,1480.2-964.6L1480.2-964.6L1480.2-964.6L1480.2-964.6z"/>
			<path class="st15" d="M1497.9-1015.5c0,4.9,8.2,3.9,8.2-0.6c0-1.7,0.2-2.6-1.5-3.5c-1.1-0.6-1.9-0.7-3.1-0.3
				c-1,0.3-1.7,0.7-2.4,1.5C1498.6-1017.8,1497.9-1016.4,1497.9-1015.5L1497.9-1015.5L1497.9-1015.5L1497.9-1015.5z"/>
			<path class="st15" d="M1527.4-1016.1c0,2.3,0.3,3.9,3.6,3.9c3.9,0,6.2-4.7,3.5-7.1C1532-1021.4,1527.4-1019.1,1527.4-1016.1
				L1527.4-1016.1z"/>
		</g>
		<g id="_1044719680">
			<g id="_1031974144">
				<path class="st17" d="M1175.8-976.4l-15.7,0.1c2.7-7.8,10.3-6.3,13.4-3.7C1175.6-978.4,1175.8-976.4,1175.8-976.4L1175.8-976.4z
					 M1180.9-961.9c1.2-0.9,1.5-1.7,2.4-3l-3.9-1.7c-0.5-0.3-2.8-1.6-2.9-1.2c0,0.1-0.1,0.1-0.2,0.2c-1.9,1.8-3.3,4.6-8.9,4.1
					c-3.7-0.4-7.5-3.5-7.3-6.3c4.1,0,21.9,0.5,24.3-0.2c1.4-11.7-6.8-20.3-18.3-19.3c-3.2,0.3-5.5,1.2-7.9,2.8
					c-5.5,3.7-8.2,10.7-6.6,17.7c0.5,2,1.7,4,1.9,5.2c0.8,0.3,1.4,1.3,1.9,1.9c0.5,0.6,1.2,1.2,2,1.9c1.5,1.2,3.3,2.2,5.4,2.7v0.2
					c3.8,0.7,7.1,0.9,10.8-0.2C1176.3-957.9,1180-960.1,1180.9-961.9L1180.9-961.9L1180.9-961.9z M1235.5-969.8
					c-0.9-0.7,0.2-15.9-0.5-19.1l-8.4-0.2v0.6v31.4l8.2,0.1l0.3-0.2c0.7-1.9,11.1-14,12.7-17.1c0.7-0.3,1.3-1.6,2-2.1l0,19.3h8.4
					v-31.9l-7.1,0c-0.9,0.1-0.3-0.1-1,0.2c-0.1,0-0.3,0.2-0.4,0.2c0,0-7.8,10.3-8,10.7c-0.8,0.5-3.9,4.9-4.9,6.1L1235.5-969.8
					L1235.5-969.8L1235.5-969.8L1235.5-969.8z M1197.2-988.5c-0.5-0.6,0.1-0.3-0.8-0.5c0,0-0.8,0-0.9,0l-6.7-0.2
					c-0.5,2.8-0.2,8.2-0.2,11.3c0,4.8-0.2,30.7,0.1,33.2l8.4-0.1l0.1-15c0.2-0.7-0.2-0.2,0.3-0.6c0.9,1.1,1.7,1.6,3.1,2.4
					c1.2,0.7,2.9,0.9,3.8,1.6l1.2-0.1c4.2,0.1,7.3-0.7,9.9-2.6c5.4-3.9,7.6-10.6,6.5-17.5c-1.5-9-10.1-15.1-19.2-12.4
					c-0.7,0.2-1.2,0.4-1.8,0.6c-0.2,0.1-0.6,0.3-0.8,0.4c-0.6,0.4-0.4,0.2-0.6,0.6c-1.5,0.6-1.5,1.2-2.7,1.8L1197.2-988.5
					L1197.2-988.5L1197.2-988.5z M1209-964.8l-0.5,0.1c-0.6,0.7-2.9,0.7-4.1,0.6c-1.7-0.2-2.4-0.9-3.5-1.1l-1.5-1.6
					c-1.6-1.9-2.3-4.2-2.1-6.8c0.3-4.1,2.4-5.6,4.4-7.3c6.1-1.9,11.2,0.4,12,6.1c0.7,1.5,0,4.8-0.7,6.2
					C1212-966.8,1210.8-965.8,1209-964.8L1209-964.8L1209-964.8L1209-964.8z M1264.8-957.1c1.6,0.3,7,0.3,8.4-0.1v-24.3l13.7,0
					l0,24.5l8.4,0v-31.9l-30.5,0L1264.8-957.1L1264.8-957.1L1264.8-957.1z"/>
				<g>
					<polygon class="st18" points="1088.3,-978.6 1060.2,-1014.1 1078.8,-1014.1 1098,-990.5 					"/>
					<polygon class="st18" points="1115,-1004.7 1115.3,-1003.7 1115.5,-1002.8 1115.5,-1001.7 1115.5,-1000.6 1115,-999.5 
						1114.2,-998.3 1061.2,-933.5 1080.4,-933.5 1125,-988.4 1125.4,-989.2 1125.4,-990.2 1125.4,-991.1 1125.2,-991.8 
						1124.8,-992.6 1108.6,-1012.6 1107.9,-1013.2 1107.4,-1013.5 1106.5,-1013.9 1105.6,-1014.1 1088.5,-1014.1 1107.8,-990.4 
						1115,-999.5 1115.5,-1000.6 1115.5,-1001.7 1115.3,-1003.7 					"/>
					<polygon class="st18" points="1131.4,-984.6 1090,-933.5 1106.1,-933.5 1107.8,-933.5 1108.8,-933.9 1109.8,-934.5 
						1110.6,-935.3 1138.4,-969.2 1139,-970 1139.4,-971 1139.7,-971.9 1139.7,-973.1 1139.5,-974.4 					"/>
					<polygon class="st19" points="1107.8,-990.4 1088.5,-1014.1 1105.6,-1014.1 1106.6,-1013.9 1107.8,-1013.2 1108.6,-1012.6 
						1115,-1004.7 1115.4,-1003.2 1115.5,-1001.1 1115.3,-1000.1 1114.6,-998.9 					"/>
				</g>
			</g>
		</g>
		<g id="_1044723264">
			<g id="_672512592">
				<path class="st20" d="M1761.4-1009.5v70.3c0,3.9,1.7,7.9,3.5,10.9c5.1,8,12.1,10,19.9,10.5h13.2h38.7h14.3
					c1.8-0.1,3.4-0.2,4.8-0.5c2.7-0.5,5.2-1.4,7.2-2.6c2.4-1.4,3.5-2.5,5.4-4.3c3.1-3.1,6-9,6-13.5v-71.2
					c0-10.7-10.6-21.1-21.3-21.1h-69.8c-1.6,0-3.4,0.3-4.7,0.6l-1.8,0.6C1768.4-1027.5,1761.4-1018.3,1761.4-1009.5L1761.4-1009.5
					L1761.4-1009.5L1761.4-1009.5z"/>
				<polygon class="st21" points="1795.3,-997.2 1784,-997.2 1784,-951.8 1795.3,-951.8 1795.3,-940.6 1840.8,-940.6 1840.8,-951.8 
					1851.9,-951.8 1851.9,-997.3 1840.8,-997.3 1840.8,-1008.6 1795.3,-1008.6 				"/>
				<polygon class="st20" points="1795.5,-952 1840.5,-952 1840.5,-997 1795.5,-997 				"/>
			</g>
		</g>
	</g>
</g>
</svg>
