<?xml version="1.0" encoding="UTF-8"?>
<!DOCTYPE svg PUBLIC "-//W3C//DTD SVG 1.1//EN" "http://www.w3.org/Graphics/SVG/1.1/DTD/svg11.dtd">
<!-- Creator: CorelDRAW 2017 -->
<svg xmlns="http://www.w3.org/2000/svg" xml:space="preserve" width="500mm" height="41mm" version="1.1" style="shape-rendering:geometricPrecision; text-rendering:geometricPrecision; image-rendering:optimizeQuality; fill-rule:evenodd; clip-rule:evenodd"
viewBox="0 0 50000 4100"
 xmlns:xlink="http://www.w3.org/1999/xlink"
 xmlns:xodm="http://www.corel.com/coreldraw/odm/2003">
 <defs>
  <style type="text/css">
   <![CDATA[
    .fil4 {fill:#002283}
    .fil14 {fill:#005994}
    .fil11 {fill:#014877}
    .fil10 {fill:#024978}
    .fil20 {fill:#030303}
    .fil15 {fill:#0531AC}
    .fil0 {fill:#140F6D}
    .fil7 {fill:#1A1F71}
    .fil17 {fill:#1B3E77}
    .fil9 {fill:#7779A2}
    .fil5 {fill:#E61B25}
    .fil2 {fill:#EB001A}
    .fil19 {fill:#EB603D}
    .fil18 {fill:#F08048}
    .fil1 {fill:#F79F19}
    .fil6 {fill:#F99F1B}
    .fil16 {fill:#FA9C10}
    .fil13 {fill:#FAFBFC}
    .fil12 {fill:#FCFDFD}
    .fil3 {fill:#FE5F01}
    .fil21 {fill:#FEFEFE}
    .fil8 {fill:white}
   ]]>
  </style>
 </defs>
 <g id="Слой_x0020_1">
  <metadata id="CorelCorpID_0Corel-Layer"/>
  <g id="_848212864">
   <path class="fil0" d="M-37142 -31517l217 0c14,-57 91,-195 121,-254 25,-51 98,-215 133,-241 0,121 81,382 84,494 273,0 177,81 426,-418 35,-72 202,-390 213,-437 -343,0 -228,1 -465,450l-28 44c0,-52 -10,-78 -19,-126l-65 -380c-235,0 -219,28 -362,349l-84 157c0,-128 -36,-364 -163,-451 -82,-56 -132,-43 -259,-43 -101,0 -219,7 -301,-11 12,35 -2,22 48,37l190 75c75,37 161,91 199,162 34,64 94,487 117,592l-1 2 -1 -1zm-2770 -1578c-47,11 -73,25 -97,60 39,58 7,24 36,25 0,28 -8,24 11,24 0,25 -2,3 11,2 15,35 -2,7 22,37 7,9 17,17 27,28 5,5 22,22 26,26 34,26 5,10 46,27 -4,24 -17,3 5,20 24,19 -11,8 20,5 14,39 -9,8 22,38 22,21 5,10 27,10 15,36 -6,11 15,31 24,21 -8,8 21,5 19,45 9,29 44,60 26,30 8,14 41,24 1,31 -20,-9 11,36 34,-25 88,-137 116,-184 23,-38 34,-61 57,-100 28,-47 37,-59 55,-113l166 -267c28,-47 51,-88 78,-138 22,-42 70,-109 80,-149 -35,19 -132,67 -148,97 -43,7 -37,5 -69,25 -1,1 -17,11 -22,16 -24,22 -8,1 -28,31 -21,-2 -5,-9 -31,5 -29,15 -11,2 -17,19 -61,11 -12,-2 -61,23 -16,8 -31,17 -47,25 -19,11 -61,33 -72,48 -30,12 -23,6 -50,24 -24,16 -19,10 -23,25 -72,24 -96,49 -157,78 -26,15 -15,3 -33,22 -22,21 -8,4 -15,22 -45,0 -55,11 -72,36l2 1 0 -5zm-650 1678c1,30 -2,24 6,51 9,34 3,25 18,30 2,38 -1,22 6,53 1,4 5,16 5,19 7,19 5,14 11,22 2,65 20,64 24,130 10,12 8,5 11,28 15,46 12,69 36,114 2,48 19,75 24,114 6,20 8,28 11,48 8,18 21,62 24,84l21 60c1,1 2,4 4,5 3,51 8,33 11,81 10,21 31,95 36,124 14,48 2,55 36,81 6,-79 44,-143 48,-229 17,-9 0,15 15,-22l82 -323c16,-20 70,-237 72,-281 25,-23 45,-134 48,-181 15,2 11,32 11,-11 -8,-8 -29,-9 -36,-11l-301 0c-41,0 -81,0 -121,0 -14,0 -50,-2 -61,-1 -68,7 -27,-1 -48,17l2 -3 3 1zm650 -377c-23,1 -6,-11 -51,33 -29,29 -34,23 -45,63 28,15 28,14 60,24 -2,15 -32,11 11,11 17,20 -4,8 24,0 24,55 -7,22 51,48l33 22c36,23 63,35 108,51 5,18 -11,3 18,20 28,16 15,8 43,16 16,32 10,14 36,24 15,33 4,8 25,0 22,34 2,5 20,26 11,14 9,8 22,22 50,20 37,26 91,36 5,18 -11,3 18,20 28,16 15,8 43,16 -2,15 -32,11 11,11 15,18 -1,5 28,11 2,2 4,3 5,5 1,3 4,5 5,5 20,10 2,3 22,7 21,25 -9,1 28,26 5,3 28,15 32,16l205 121 -133 -229c-5,-24 -3,-23 -16,-44 0,0 -15,-19 -17,-22 -17,-18 -2,-3 -23,-19 1,-32 10,-8 -8,-34 -17,-23 -7,-9 -33,-26 18,-32 15,-11 0,-24 0,-48 5,-5 -24,-24 2,-21 9,-5 -5,-31 -15,-29 -2,-11 -19,-17 0,-68 3,-12 -15,-45 -23,-41 -5,-9 -22,-22 -10,-50 3,-10 -15,-39 -17,-27 -12,-15 -22,-22 -5,-28 -2,-26 -16,-48 -2,-2 -15,-19 -19,-22 -22,-21 11,5 -26,-19 18,-32 15,-11 0,-24 0,-49 2,-7 -11,-11 -7,-22 -2,-19 -16,-43 -18,-28 -1,-12 -20,-18 -10,-57 -2,-21 -28,-70 -11,-23 -15,-24 -22,-51 -31,-30 -16,-12 -35,-48 -15,9 -21,11 -34,27 -19,22 -15,15 -16,33 -36,16 -6,-2 -37,22 -10,8 -22,20 -31,30 -25,25 -33,31 -51,60 -30,16 -43,34 -70,60 -11,11 -21,19 -30,29 -31,35 -15,8 -33,52l0 1 1 0zm681 -844c-32,-6 -75,-11 -102,-24l0 161 0 252 0 165c9,-5 35,-11 37,-11 38,-19 7,11 35,-25 56,22 33,12 81,0 47,0 19,7 28,-24 64,25 33,7 84,0 32,-5 34,-5 62,-11 38,-8 12,11 34,-14 7,0 26,1 31,-1 38,-10 8,4 22,-11l115 -24c61,0 137,-24 194,-35l602 -145c-51,-1 -110,-19 -164,-29l-511 -104c-34,-17 -18,-11 -68,-11 -2,-2 -3,-7 -4,-5 -2,2 -5,-4 -6,-4 -22,-4 -15,-3 -42,-3 -16,-27 -36,-10 -60,0 -28,-35 4,-5 -35,-25 -2,-1 -28,-8 -36,-11l-60 -11 -60 -11c-45,-2 -28,-8 -84,-11 -29,0 2,4 -11,-11l-48 0c-15,-18 5,-8 -31,-11l-2 -2 -1 0zm-1076 -674c353,0 325,33 284,-116l-20 -46c-2,-37 -5,-43 -15,-78 -1,-2 -7,-25 -8,-27 -11,-31 -4,-16 -15,-25 -1,-48 -22,-121 -36,-154 -2,-18 -8,-55 -14,-72 -23,-70 -4,-26 -35,-49 15,-38 1,-110 -25,-133 -3,-58 -19,-78 -24,-125 -18,-50 -55,-180 -60,-237 -32,24 -37,84 -58,159 -26,96 -134,471 -135,538 -14,9 -2,-10 -15,24l-82 318c17,35 -16,12 48,22 8,2 59,-1 73,-1 45,-1 89,0 134,0l1 1 2 0zm-423 1699c34,2 34,-1 87,-34 34,-22 60,-32 95,-51l-108 -108c-9,-14 -14,-22 -27,-33 -33,-28 -9,-11 -46,-27 4,-21 10,-11 -11,-24l-64 -60c-16,-35 5,-20 -44,-36 -1,-22 10,-5 -10,-27 -28,-30 -5,-8 -26,-15 -19,-37 -38,-57 -72,-79 -10,45 -31,59 -48,97l-494 855 154 -84 134 -84c31,-8 32,-12 65,-31 6,-3 28,-15 30,-18 22,-21 11,2 14,-24 50,-8 51,-2 70,-36 42,-8 64,-19 87,-48 23,-5 20,-3 36,-11 25,-14 19,-10 24,-25 37,-12 52,-19 84,-36 4,-2 35,-22 37,-23 38,-30 10,2 35,-37l-2 2 -1 -1zm-42 -1217c49,-25 78,-67 117,-105 38,-38 77,-69 105,-111 -42,-22 -69,-33 -108,-60l-61 -31c-25,-20 -43,-22 -64,-42 -34,-16 -8,-5 -37,-20 -28,-15 -11,-8 -37,-17 -22,-21 -11,-17 -38,-29 -45,-22 -25,-14 -52,-6 -25,-55 7,-19 -48,-49 -28,-15 -31,-3 -48,-35 -72,-24 -257,-142 -342,-188 -39,-22 -82,-55 -116,-64l229 398c39,69 48,110 95,132 -6,38 -7,23 14,59 20,35 19,22 36,71 31,31 38,69 72,106 11,35 22,56 48,84 14,44 37,61 48,102 25,-15 11,-5 11,-24 55,-22 46,-28 100,-81 28,-28 64,-56 75,-87l1 -2 3 0zm-741 663c18,22 4,9 48,11 15,17 36,19 64,24 41,11 78,21 123,33 70,21 56,5 55,-81 -2,-111 -1,-223 -1,-335 0,-37 11,-177 -25,-136 -49,5 -20,-10 -41,11 -44,3 -105,11 -128,36 -75,5 -528,134 -643,164 -68,18 -144,48 -212,53l489 150c58,17 119,38 184,43 8,11 -8,5 24,15 21,6 29,7 62,9l0 1 0 1zm11010 -97l36 0c36,0 33,15 36,48l-72 0 0 -48 -1 0zm-60 193c80,-2 60,-15 60,-97l36 0c23,84 63,97 121,97 -8,-31 -42,-69 -60,-97 28,-43 36,-19 36,-84 0,-79 -123,-60 -193,-60l0 241zm108 72c-228,0 -270,-281 -97,-362 71,-32 154,-20 208,32 55,53 84,114 52,204 -14,38 -29,64 -60,85 -18,11 -83,41 -104,41l1 0zm-241 -229c0,85 -5,129 57,196 117,128 401,89 401,-172 0,-186 -243,-290 -388,-159 -25,23 -71,90 -71,134l0 1zm-4770 24c78,0 144,55 144,133l0 36 -362 0c8,-102 106,-168 217,-168l0 -1zm-482 289c0,356 388,534 758,337 0,-69 11,-137 24,-193 -33,3 -472,193 -542,-108l615 0c58,-252 -61,-518 -337,-518 -232,0 -376,78 -475,285 -20,42 -44,141 -44,197l0 1zm4228 530c-113,0 -81,-19 -144,-36 0,77 -24,134 -24,217 184,88 382,15 502,-148l384 -675c35,-70 172,-292 185,-345 -317,0 -246,-14 -397,276 -17,32 -31,51 -48,84l-68 137c-8,16 -5,10 -14,23 -15,22 -5,8 -15,21l-144 -542 -265 0 174 550c77,231 114,281 -2,381 -25,22 -82,57 -125,57l1 1 -1 -1zm-698 -301c-213,0 -156,-217 -11,-217 408,0 178,217 11,217zm-229 -458c22,-2 326,-112 437,-4 38,37 32,68 32,136 -72,-17 -137,-60 -265,-60 -379,0 -447,375 -267,508 167,125 344,63 496,-38 73,137 197,99 314,72 5,-63 24,-106 24,-181l-84 0c-35,-135 36,-223 36,-398 0,-362 -556,-307 -668,-246 -55,30 -24,73 -55,210l1 1 -1 1zm-687 -36c126,0 205,79 205,205 0,355 -462,300 -445,99 2,-31 16,-123 25,-158 19,-81 114,-145 216,-145l-1 0zm-168 -121l0 0zm0 0c0,-49 -4,-38 11,-72l-254 0c-7,88 -32,205 -47,291 -42,254 -99,700 -146,902 150,0 231,17 267,-106l46 -327c63,17 187,187 459,86 390,-144 414,-913 -123,-870 -108,8 -161,68 -217,97l1 -1 2 0zm-963 590c-53,0 -134,-37 -166,-63 -62,-51 -48,-72 -34,-161 16,-94 1,-116 57,-171 154,-153 419,-63 376,169 -18,92 -57,165 -138,201 -11,5 -85,26 -95,26l1 0 -1 0zm-482 193l217 0c2,-55 11,-48 11,-108 51,34 49,56 116,88 167,82 356,37 472,-79 68,-68 127,-169 144,-277 75,-459 -324,-606 -570,-437 -26,18 -28,26 -53,44l55 -343c19,-101 29,-91 -91,-91 -141,0 -161,91 -178,208 -18,122 -33,225 -53,344l-97 593c-6,41 -16,59 25,59l1 -1 0 1z"/>
   <path class="fil1" d="M-6571 -33848l0 10c3,2 7,5 9,7 139,102 80,77 143,133l143 143c34,38 32,43 65,84 234,294 381,764 379,1164 -3,396 -156,867 -399,1157 -26,31 -31,41 -60,75 -168,197 -155,149 -283,276 37,17 3,-2 37,22 353,237 625,370 1109,385 681,22 1194,-284 1580,-745 380,-453 527,-1257 302,-1809 -43,-175 -202,-441 -313,-580l-137 -161c-449,-438 -1102,-668 -1764,-533 -515,105 -677,309 -812,371l0 -1 -1 0z"/>
   <path class="fil2" d="M-6496 -30841c-32,-68 -97,-95 -147,-139 -53,-50 -82,-92 -134,-153 -276,-314 -445,-788 -445,-1233 0,-475 168,-908 450,-1241 67,-78 204,-222 288,-276l0 -10c-31,-17 -63,-45 -96,-66 -207,-138 -579,-318 -816,-318 -356,-73 -744,10 -1044,132 -849,344 -1390,1345 -1089,2346 175,584 628,1036 1169,1239 313,117 690,160 1037,91 261,-51 654,-202 827,-374l0 1 -1 1z"/>
   <path class="fil3" d="M-6496 -30841l10 -1c127,-128 114,-78 283,-276 30,-34 34,-45 60,-75 242,-292 396,-764 399,-1157 3,-401 -145,-870 -379,-1164 -32,-42 -31,-46 -65,-84l-143 -143c-63,-55 -4,-31 -143,-133 -2,-2 -6,-5 -9,-7 -84,52 -221,196 -288,276 -282,334 -450,767 -450,1241 0,446 169,918 445,1233 52,59 81,103 134,153 49,45 113,72 146,139l0 -1 1 0z"/>
   <path class="fil4" d="M-26173 -31213l235 0 58 -139c12,-30 24,-59 36,-88 6,-15 12,-28 19,-44 4,-10 18,-36 18,-46 1,-1 1,-1 1,-1l122 -286 60 -145c1,-6 4,-10 7,-17l68 -161c5,-12 10,-24 16,-36l22 -53c3,-8 7,-10 5,-19l139 -325c1,-5 4,-10 7,-17l105 -250c3,-8 7,-10 5,-19 5,-4 6,-9 9,-16l38 -91c5,-11 12,-25 16,-37 5,-10 10,-24 15,-35l46 -110c3,-11 10,-21 12,-33l4 -7c1,-3 2,-4 3,-7 3,-6 4,-9 6,-15l79 -190c4,-10 10,-22 12,-32 2,-3 1,0 3,-5l81 -195 -159 0 -203 0 -26 0 -116 0 -116 0 -35 0c-2,3 -3,3 -4,6 -8,17 -30,77 -39,100 -3,5 -4,10 -6,16l-48 126c-5,5 -30,75 -34,83 -11,29 -22,56 -33,85l-32 83c-11,29 -24,57 -33,86l-29 73c-21,57 -53,128 -73,185 -3,10 -12,29 -14,38 -3,3 -2,2 -4,6 -1,3 -2,6 -3,9l-52 130 -109 276c-3,7 -5,15 -8,21l-73 186 -44 108c0,1 -1,1 -1,1 0,1 -1,2 -1,3 -1,4 0,1 -2,5 -3,7 -3,12 -9,17 0,-10 -3,-19 -4,-30l-17 -89 -42 -219c-5,-24 -39,-216 -43,-221l-137 -736 -15 -75c-9,-50 -19,-88 -45,-132 -8,-14 -28,-44 -41,-50 -11,-19 -54,-48 -75,-58 -16,-8 -30,-14 -48,-19 -14,-4 -41,-11 -57,-11 -12,0 -24,-2 -39,-2 -15,0 -30,0 -44,0l-260 0 -118 0 -24 0 -88 0 -116 0 -88 0 -25 0 -118 0c-4,0 -166,-2 -170,2l-8 34c-2,11 -6,26 -6,36 17,1 159,37 177,43 10,3 18,5 28,8 8,2 22,8 30,8 8,4 25,8 34,10 10,3 22,6 33,10 23,7 46,15 66,23 9,3 24,7 31,10 18,5 35,12 52,19 9,3 16,5 25,9 8,3 19,8 26,10l35 17c12,5 25,10 36,17 25,12 48,24 70,38 92,49 112,163 135,256l81 313c0,10 21,81 25,97 8,34 17,64 25,98 17,65 34,129 50,195 17,65 34,130 50,195 17,65 34,129 50,195 16,64 34,129 50,195 17,65 34,130 50,195l102 390 195 0 89 0 26 0 116 0 -4 -2 4 -3zm2068 -164c0,19 -12,52 -12,73l48 19c36,12 59,21 97,32l99 26c12,0 24,4 34,6 12,1 32,5 44,8 24,4 117,20 137,20l175 15c17,2 44,0 62,0 20,0 41,0 60,0 19,0 32,-2 53,-2 10,0 18,-1 30,-2l55 -5c7,-1 22,-3 27,-3 18,-1 39,-5 56,-8 10,-1 17,-3 26,-4 8,-1 19,-4 26,-4 8,-3 21,-4 28,-6 9,-2 17,-3 26,-5 19,-5 34,-8 52,-14 17,-3 80,-26 99,-32l32 -14c30,-7 121,-56 147,-73 9,-5 41,-24 45,-30 7,-2 17,-11 24,-16 15,-9 58,-46 65,-55 8,-2 11,-8 17,-14l46 -49c3,-4 6,-7 10,-11 2,-2 3,-4 5,-6 3,-5 1,-1 4,-8 3,-1 1,0 5,-3 2,-2 3,-3 5,-5l46 -68c4,-7 12,-25 17,-29 15,-35 30,-59 47,-110 3,-8 3,-12 5,-20 2,-7 5,-15 5,-23 1,-3 0,0 2,-4 1,-2 1,-5 2,-6l8 -38c3,-18 6,-37 8,-56 4,-41 6,-77 6,-123 0,-102 -33,-201 -84,-286 -9,-15 -42,-63 -53,-72 -12,-19 -9,-11 -19,-22 -8,-9 -11,-14 -19,-21 -8,-8 -12,-12 -21,-20l-44 -38c-8,-6 -15,-11 -23,-19l-49 -35c-24,-17 -48,-31 -74,-47 -12,-8 -24,-16 -37,-23 -10,-5 -31,-19 -41,-21 -5,-7 -26,-16 -33,-19 -12,-7 -25,-12 -36,-19l-71 -39c-9,-3 -11,-5 -20,-10 -7,-3 -12,-5 -19,-9l-2 -2c-3,-2 -1,-1 -4,-2l-106 -62c-24,-16 -44,-32 -64,-52 -14,-14 -28,-30 -37,-46 -21,-38 -26,-77 -11,-118 3,-8 4,-11 8,-18 3,-5 7,-11 8,-17 24,-27 10,-18 45,-48 5,-5 15,-9 18,-15 9,-2 15,-9 26,-12 7,-9 79,-34 97,-36 15,-4 36,-7 55,-10 17,-2 41,-5 57,-5 9,0 19,0 29,0 10,0 17,-3 28,-2 18,2 37,2 59,2l89 9c11,1 19,3 31,3 1,0 1,0 1,1l118 26c14,3 28,9 42,10 2,3 8,5 14,5l84 30c7,3 28,10 31,15 9,3 10,3 19,7 6,3 10,5 18,5l35 -168c5,-21 36,-162 34,-171 3,-4 1,1 3,-4 1,-1 1,-4 1,-5l26 -119c3,-11 6,-36 10,-44 -11,-5 -106,-37 -119,-39 -14,-12 -197,-48 -217,-50 -11,-2 -26,-3 -35,-5 -17,0 -62,-8 -86,-8 -14,0 -17,-2 -30,-2 -16,0 -23,-2 -36,-2 -12,0 -24,0 -36,0 -24,0 -49,0 -73,0 -22,0 -36,1 -58,2 -19,1 -36,4 -56,4 -16,3 -37,5 -55,7 -7,1 -18,3 -26,3 -9,1 -19,4 -29,4 -17,4 -35,7 -53,10 -17,3 -37,8 -54,12 -8,1 -17,4 -24,6 -10,3 -17,5 -27,8 -17,4 -35,10 -49,17l-24 8c-4,2 -2,1 -4,2 -15,3 -25,8 -37,15 -8,3 -11,5 -19,8 -6,3 -12,6 -20,8 -17,8 -32,16 -49,24l-43 24c-5,3 0,0 -3,3 -8,2 -18,10 -25,15 -31,19 -42,28 -68,48 -1,1 -2,1 -2,2 -8,5 -15,11 -21,17l-61 57c-8,8 -12,12 -20,22 -3,4 -6,5 -10,10 -5,5 -5,7 -10,12 -4,4 -10,12 -15,19 -5,8 -9,12 -15,20 -8,10 -23,31 -28,43l-9 14c-17,29 -51,92 -55,122 -3,1 0,-2 -3,3l-15 48c-15,56 -21,101 -24,159 0,12 -3,20 -2,34 0,12 2,18 2,32 0,24 9,75 15,95 24,83 69,175 128,236l29 31c41,41 59,58 104,92l43 30c5,3 17,10 20,15l37 23c12,8 24,15 36,22l76 42 108 54c10,6 67,36 75,39 2,5 58,36 71,46 19,15 50,36 68,53 8,8 11,14 19,21l4 4c30,38 48,88 36,148 -6,34 -19,56 -37,81 -6,8 -15,15 -19,22 -22,15 -20,18 -53,37 -21,12 -41,20 -64,29 -17,5 -31,10 -49,15 -17,4 -39,10 -57,11l-112 8c-21,0 -34,-2 -56,-2 -23,0 -38,-2 -62,-2 1,-4 1,-1 -4,-2 -2,0 -5,0 -8,0l-46 -5c-23,-3 -43,-6 -63,-10 -21,-1 -107,-25 -132,-32l-127 -44c-2,-5 -23,-12 -28,-15 -14,-5 -83,-41 -95,-42l-26 118c0,9 -3,15 -4,24 -1,8 -3,15 -5,24 -3,12 -5,24 -7,34 -3,14 -5,24 -8,37 -5,26 -10,47 -16,73l-24 110c-3,14 -4,26 -9,38l1 -2 -5 -1zm-1045 50c-2,5 -5,21 -6,27 -2,10 -4,20 -6,28l-11 57 68 0 112 0 146 0 228 0 71 0 17 -77c3,-17 7,-34 10,-50l21 -97c2,-9 3,-17 5,-25 1,-7 4,-17 4,-25 3,-8 10,-39 10,-49 2,-4 5,-24 7,-31l99 -464c3,-11 3,-23 7,-31l42 -195c3,-16 6,-30 10,-47 2,-10 10,-39 8,-49 3,-4 0,1 3,-5l9 -45c0,-1 1,-2 1,-1l47 -216c3,-11 5,-24 8,-35l7 -35c4,-15 7,-34 10,-50l61 -287c3,-12 11,-42 7,-51 6,-5 5,-8 8,-24 4,-20 15,-61 16,-77 5,-3 15,-83 21,-90l42 -195c12,-56 24,-114 36,-170l-104 0 -115 0 -55 0 -62 0 -231 0 -62 0c0,14 -12,60 -17,81l-23 105c-1,8 -3,15 -5,24 -1,7 -3,18 -5,25l-9 48c-2,9 -3,17 -5,25 -2,10 -4,15 -5,26 -5,11 -33,168 -43,191 0,11 -3,20 -5,31 -2,12 -5,22 -7,34 -4,23 -9,44 -15,68 -27,116 -54,248 -79,367 -2,10 -6,22 -6,34 -3,5 -5,17 -5,23 -2,10 -5,17 -5,26 -3,4 -19,83 -21,95 -3,17 -6,31 -10,48l-9 53c-4,3 -20,87 -21,92 -3,16 -7,33 -10,48 -3,16 -5,34 -11,49 0,11 -26,122 -30,142l-52 244c-8,41 -18,80 -26,121 -4,20 -8,39 -12,60 -4,21 -9,42 -12,62 -3,7 -8,36 -10,46 -3,17 -6,31 -10,48l-21 97 2 1 1 -3zm2843 -29l-59 141 112 0 117 0 114 0 116 0 197 0c6,-11 10,-29 16,-42 5,-14 10,-28 16,-41 7,-24 17,-49 26,-72 9,-24 16,-46 25,-71 9,-24 18,-46 26,-70 3,-10 8,-24 12,-34 4,-11 8,-24 12,-34l19 0 117 0 231 0 116 0 30 0 81 0 145 0 61 0c0,15 63,299 71,344 3,17 -1,18 17,18l106 0 117 0 27 0 83 0 116 0 116 0c0,-4 0,-5 -1,-10 -3,-15 -1,-5 -3,-7 0,-19 -90,-444 -102,-498 -19,-83 -33,-164 -52,-247 -10,-44 -39,-202 -50,-239 -2,-7 0,-4 -3,-5 0,-24 -143,-692 -154,-745l-26 -124c-5,-21 -8,-41 -14,-62 -3,-11 -3,-19 -6,-30 -1,-6 -2,-9 -3,-16 -1,-8 -1,-11 -4,-12 0,-11 -2,-19 -4,-28 -12,-52 -28,-134 -39,-187l-46 -211 -77 0 -172 0 -175 0 -114 0c-18,0 -41,3 -56,6 -19,4 -34,10 -52,15 -3,3 -14,6 -17,8 -6,3 -11,5 -19,10 -10,6 -28,16 -33,25 -7,2 -6,3 -11,8 -3,3 -8,7 -8,11 -26,12 -71,92 -73,112 -5,7 -42,96 -46,106 -5,14 -10,24 -16,37 -12,29 -26,59 -36,88 -6,15 -12,28 -19,44 -5,12 -14,36 -21,46l-41 99c-2,8 -2,1 0,8 -1,1 -1,1 -1,1l-9 17c-3,7 -5,11 -7,19 -4,5 -59,139 -60,143l-30 71c-5,12 -10,24 -15,36l-75 182c-5,8 -10,24 -15,34 -5,12 -10,24 -15,36l-22 53c-3,8 -4,11 -9,19 0,8 -10,27 -12,34l-108 254 -133 324c-2,3 -3,3 -4,6l-56 135 -60 143 -3 7c-17,35 -39,99 -57,137l-2 2 0 3zm1055 -716l-32 0 -112 0c6,-27 47,-124 54,-153l15 -42c8,-17 14,-36 21,-55l16 -43c3,-8 5,-8 3,-17 1,-1 1,-1 1,-1 2,4 19,-45 19,-46 16,-46 39,-104 53,-145l49 -135c3,-7 5,-12 7,-21l28 -77c5,-17 25,-65 28,-79 3,-3 12,-30 12,-35l21 -58c0,1 1,1 1,1l1 3c0,1 0,1 1,1 1,3 1,5 2,9l44 212c1,8 5,28 8,33 0,11 5,30 8,42 3,15 5,28 8,42 3,12 15,78 18,82l99 481 -28 0 -117 0 -145 0 -81 0 0 1 0 -1z"/>
   <path class="fil5" d="M-347 -32653l215 0 0 -1050c24,28 34,69 50,106l236 577c31,76 61,170 97,237l238 0c4,-48 67,-183 87,-236l264 -655c15,-29 4,-12 19,-29l0 1050c147,0 227,21 227,-35l0 -1288 -346 0 -276 690c-29,70 -76,162 -94,240l-381 -931 -335 0 0 1325 1 -2 -1 2z"/>
   <path class="fil6" d="M-406 -31805l0 83c0,167 160,270 305,303 112,26 281,30 375,79 226,116 -87,512 -620,155 -14,51 -91,115 -108,179 236,158 615,248 859,72 220,-159 228,-459 4,-589 -108,-62 -215,-68 -352,-89 -112,-19 -258,-47 -244,-177 23,-211 371,-198 561,-104 33,17 46,31 79,41 36,-55 71,-112 108,-167 -441,-296 -966,-92 -966,215l-1 -1 0 1z"/>
   <path class="fil5" d="M8949 -33071l0 -72c0,-330 525,-327 525,0 0,109 5,160 -80,242 -169,163 -445,42 -445,-170l0 -1 0 1zm513 -405c-149,-100 -114,-108 -311,-108 -215,0 -418,215 -418,429 0,165 11,269 134,391 127,127 320,176 486,99 56,-26 61,-53 107,-84l0 96c141,0 215,20 215,-35l0 -1325 -215 0 0 537 0 1 1 0z"/>
   <path class="fil6" d="M5333 -31580c0,175 -9,215 61,380 31,72 79,123 133,177 61,61 97,89 184,126 283,119 643,51 815,-207 -68,-46 -137,-114 -191,-119 -32,122 -358,289 -640,68 -175,-137 -192,-522 -8,-691 233,-215 609,-83 647,63 56,-5 148,-78 191,-108 -36,-138 -313,-275 -489,-275 -276,0 -503,95 -637,342 -26,49 -68,175 -68,243l1 1 1 1z"/>
   <path class="fil6" d="M8197 -31030c-174,0 -275,-102 -275,-275 0,-364 513,-358 513,0 0,144 -96,275 -238,275zm227 -621c-72,-49 -89,-91 -204,-108 -267,-38 -501,169 -501,418l0 83c0,220 190,418 454,418 121,0 178,-59 250,-108l0 83 203 0 0 -1312 -203 0 0 525 0 2z"/>
   <path class="fil5" d="M7074 -33082c0,-101 10,-158 70,-230 129,-157 456,-74 456,157 0,103 2,196 -88,270 -167,136 -437,24 -437,-198l0 1zm-215 -35c0,276 180,489 465,489 132,0 187,-56 262,-108 0,102 -24,83 215,83l0 -907 -215 0 0 83c-125,-83 -97,-108 -311,-108 -220,0 -418,217 -418,465l0 1 1 1z"/>
   <path class="fil5" d="M1466 -33095c0,-403 537,-388 537,-11 0,293 -325,349 -457,207 -35,-38 -80,-127 -80,-194l0 -1zm226 465c72,0 132,-6 191,-35 47,-24 69,-56 108,-83l0 96 203 0 0 -907 -203 0 0 96c-125,-83 -66,-119 -335,-119 -301,0 -575,471 -275,811 58,66 186,143 311,143l0 -2 0 1z"/>
   <path class="fil5" d="M4629 -33404c185,0 204,166 227,215l-454 0c3,-124 100,-215 226,-215l1 0zm-454 287c0,399 352,576 691,452 72,-26 101,-56 156,-94 -32,-49 -68,-90 -96,-143 -10,3 -374,236 -509,-51 -16,-34 -14,-51 -28,-80l668 0 0 -132c0,-212 -178,-418 -394,-418 -100,0 -150,-3 -243,44 -44,22 -101,63 -129,98 -61,76 -117,192 -117,324l1 0z"/>
   <path class="fil6" d="M4737 -31580l72 0c94,0 165,106 167,203l-429 0c2,-108 80,-203 191,-203l-1 0zm-405 275c0,425 425,605 811,346 -17,-63 -66,-80 -83,-143 -43,4 -75,32 -114,52 -144,70 -380,35 -399,-171l633 0c8,-31 11,-23 11,-48 0,-686 -859,-627 -859,-35l-1 -1 1 1z"/>
   <path class="fil6" d="M9199 -31580c149,0 219,17 262,203l-442 0c8,-91 85,-203 179,-203l1 0zm35 740c144,0 318,-35 381,-132 -20,-37 -64,-109 -96,-132 -130,69 -118,83 -275,83 -131,0 -202,-95 -227,-203l502 0c144,1 143,22 143,-96 0,-404 -441,-605 -737,-308 -112,112 -152,327 -85,509 51,140 201,276 393,276l0 1z"/>
   <path class="fil6" d="M1109 -31580l72 0c94,0 165,106 167,203l-429 0c2,-108 80,-203 191,-203l-1 0zm-405 262c0,599 675,531 811,346 -27,-39 -71,-81 -83,-132 -39,3 -268,170 -437,31 -35,-30 -74,-90 -76,-151l633 0c62,-746 -848,-673 -848,-96l-1 0 1 1z"/>
   <path class="fil6" d="M6849 -31305c0,-356 537,-362 537,0 0,369 -537,365 -537,0zm-203 -24c0,519 566,595 797,367 152,-151 190,-364 102,-550 -72,-152 -240,-250 -423,-255 -241,-6 -476,189 -476,437z"/>
   <path class="fil5" d="M2433 -33286c0,129 105,209 222,243 101,31 338,20 338,127 0,123 -248,118 -366,80 -65,-22 -84,-41 -135,-68 -33,50 -62,105 -96,155 342,230 811,104 811,-167 0,-362 -492,-243 -551,-358 -19,-36 0,-77 31,-101 118,-89 366,31 411,42 29,-53 55,-101 83,-155 -212,-142 -751,-169 -751,203l1 -1 0 1z"/>
   <path class="fil5" d="M3484 -33560l-179 0 0 191 179 0c0,398 -76,740 346,740 108,0 196,-51 262,-96l-76 -154c-34,2 -330,165 -330,-110l0 -381 311 0c54,0 35,-61 35,-191l-346 0 0 -275 -203 0 0 275 1 1z"/>
   <path class="fil6" d="M2624 -31711c0,250 -34,571 90,734 175,228 734,195 734,-256l0 -478c0,-52 -51,-35 -167,-35 -56,0 -35,92 -35,191 0,325 51,525 -227,525 -153,0 -191,-121 -191,-275l0 -442c-135,0 -203,-19 -203,35l-1 1z"/>
   <path class="fil5" d="M5929 -33119c0,421 412,578 685,446 117,-57 78,-59 139,-100 -31,-48 -84,-112 -132,-143 -74,50 -162,130 -311,72 -324,-127 -136,-697 219,-518 44,22 54,43 91,52l134 -129c-185,-267 -827,-182 -827,319l1 2z"/>
   <path class="fil6" d="M1682 -31305c0,145 52,250 130,337 154,168 530,178 658,-14 -31,-46 -74,-101 -119,-132 -89,60 -108,83 -226,83 -348,0 -301,-645 92,-534 72,21 82,47 134,81 33,-51 103,-80 119,-143 -33,-51 -142,-111 -219,-127 -285,-59 -567,123 -567,449l-1 0z"/>
   <path class="fil5" d="M5488 -33489l0 -72 -215 0 0 871c0,56 73,35 215,35l0 -537c0,-180 186,-249 358,-167 14,-58 43,-143 48,-203 -85,-41 -232,-33 -315,8 -53,27 -51,37 -91,64l0 -1 0 1z"/>
   <path class="fil5" d="M8281 -33477l0 -83 -203 0 0 907c235,0 216,19 215,-82 -1,-140 -27,-474 36,-572 69,-106 217,-99 320,-50 16,-66 31,-134 48,-203 -87,-42 -239,-31 -322,10 -52,27 -53,45 -95,72l0 1z"/>
   <path class="fil6" d="M3889 -31662c0,-98 18,-83 -167,-83 -28,0 -35,8 -35,35l0 848 203 0 0 -502c0,-174 116,-203 238,-203 51,0 64,14 108,24 20,-42 35,-138 48,-191 -64,-31 -139,-34 -215,-24 -117,17 -109,49 -179,96l0 -1 0 1z"/>
   <polygon class="fil7" points="-16509,-30925 -13037,-30925 -13037,-32662 -16509,-32662 "/>
   <path class="fil7" d="M-14309 -33130l212 0 43 -118 251 2 28 113 186 3c-20,-131 -54,-270 -82,-400 -14,-62 -27,-129 -41,-191l-31 -154c-23,-47 -29,-36 -129,-36 -125,0 -132,37 -170,133 -68,171 -235,523 -269,649l2 -1z"/>
   <path class="fil7" d="M-15679 -33130l219 -2c37,-117 108,-269 158,-384 51,-117 125,-271 160,-397l-214 1 -197 518c-26,-53 -62,-294 -79,-382 -36,-194 -81,-132 -452,-137 61,73 142,41 212,99 46,38 56,150 74,217 41,152 90,317 118,468l0 1 1 -1z"/>
   <path class="fil7" d="M-14839 -33329l-39 171c637,142 645,-270 504,-381 -99,-77 -177,-73 -208,-164 75,-100 176,-53 287,-26l31 -168c-136,-27 -256,-54 -387,15 -88,47 -188,159 -126,297 49,109 245,147 259,208 33,158 -266,67 -322,48l0 1 1 0z"/>
   <polygon class="fil7" points="-15218,-33130 -15013,-33132 -14848,-33914 -15055,-33914 "/>
   <path class="fil8" d="M-14322 -31625l8 -164 58 12c60,33 55,90 73,154l73 0c-21,-77 -27,-137 -70,-182 21,-22 47,-41 55,-84 7,-43 -6,-71 -31,-94 -55,-51 -153,-36 -231,-31l1 391 64 -2 1 0 -2 0z"/>
   <path class="fil8" d="M-14465 -32012l-63 -4c-11,131 28,250 -51,335 -103,19 -113,-12 -116,-108 -3,-75 5,-152 -5,-225l-63 0c-21,160 -35,406 155,400 182,-5 160,-240 144,-397l1 0 -1 0z"/>
   <path class="fil8" d="M-15156 -31680l-166 -1c-16,-37 -14,-64 -3,-114l149 -3 -6 -51 -148 -7c-1,-11 -5,-48 -3,-57 11,-66 -15,-26 26,-43l136 -2 -3 -54 -223 -3 -5 394 238 -1 7 -57 1 0 1 0z"/>
   <path class="fil8" d="M-13815 -31680l-165 -2c-17,-38 -15,-63 -4,-114l148 -3 -5 -51 -145 -8c-5,-60 -21,-81 23,-98l134 -3 -2 -53 -223 -3 -5 394 237 -1 7 -57 2 1 0 -1z"/>
   <path class="fil8" d="M-15540 -31698c-47,25 -95,24 -152,5l-23 50c198,101 364,-99 158,-204 -67,-33 -77,-17 -77,-101 45,-14 89,-14 140,1l16 -55c-105,-38 -244,-17 -230,104 16,130 180,62 167,199z"/>
   <path class="fil8" d="M-14872 -31955l49 -9c-1,-95 -157,-51 -198,-32 -168,73 -154,397 118,382 80,-4 73,-7 70,-66 -108,2 -98,8 -188,-21 -47,-126 -41,-299 151,-252l0 -1 -1 0z"/>
   <polygon class="fil8" points="-13999,-33410 -13834,-33409 -13893,-33692 "/>
   <path class="fil7" d="M-14314 -31840c102,12 130,-21 110,-111l-110 -12 0 123 0 1z"/>
   <path class="fil7" d="M-15324 -31681l166 1 -133 -2 0 -77 78 -1c43,-12 22,-6 43,-24l-152 -2 -3 106 -1 -1 2 0z"/>
   <path class="fil7" d="M-13979 -31682l165 2 -132 -2 0 -77 77 -1c44,-12 21,-5 43,-24l-150 -2 -3 105 0 -1z"/>
   <path class="fil9" d="M-13979 -31682l3 -105 150 2 -8 -15 -148 3c-9,51 -12,76 4,114l-1 -1 0 1z"/>
   <path class="fil9" d="M-15324 -31681l3 -106 152 2 -7 -15 -149 3c-10,50 -12,77 3,114l-2 1z"/>
   <path class="fil9" d="M-13842 -31849c-37,-20 -82,-12 -136,-7l15 -99c-44,17 -29,38 -23,98l145 8 -1 0z"/>
   <path class="fil9" d="M-15183 -31849c-38,-20 -84,-12 -138,-7l15 -99c-41,17 -16,-24 -26,43 -1,9 3,46 3,57l148 7 -1 0 0 -1z"/>
   <path class="fil9" d="M-14322 -31625c29,-21 14,-112 9,-152l56 1 -58 -12 -8 164 0 -1 1 0z"/>
   <path class="fil9" d="M-14872 -31955c0,44 41,3 49,-9l-49 9z"/>
  </g>
  <g id="_848356080">
   <g id="_864712832">
    <path class="fil10" d="M8616 1538c31,42 -13,3 30,20 18,7 17,5 37,7 249,21 219,-104 213,277 -65,27 -33,0 -66,35 37,17 168,156 188,184l-202 194 -29 -38c-51,56 -1,172 -31,280 -377,1 -224,6 -308,-63 -13,36 -53,66 -85,98 -33,33 -52,61 -101,88l-187 -181c10,-59 3,-26 34,-72l-273 -1c-11,-61 -6,-125 -7,-187 -2,-155 37,-67 54,-119 2,-6 8,-4 8,-4l-184 -190 179 -186c43,6 30,10 74,32l2 -270c75,-23 183,-10 263,-10 53,38 3,12 36,68 30,-41 150,-163 193,-186 42,17 179,145 199,202 -41,42 -6,12 -37,22l0 1 1 -1zm-1307 -383l0 1617c0,135 108,243 243,243l1603 0c80,0 129,-16 173,-57 35,-33 84,-83 84,-146l0 -1671c0,-130 -114,-229 -243,-229l-1590 0c-158,0 -270,101 -270,243l0 1 0 -1z"/>
    <path class="fil11" d="M10328 1856l-256 0 0 -296c297,0 390,-35 390,175 0,73 -67,122 -135,122zm-512 -823c0,195 -19,900 13,1037 126,29 421,13 566,13 393,0 593,-755 -135,-755l-189 0 0 -189 499 0c59,0 40,-57 40,-189 0,-31 -10,-40 -40,-40l-661 0c-76,0 -95,47 -95,122l1 -1 0 1z"/>
    <path class="fil11" d="M11825 1951c11,47 58,175 108,175 66,0 181,-85 217,-120 53,-54 92,-146 115,-236 38,-152 60,-445 60,-628l323 0 0 943 256 0 0 -1091c0,-29 -30,-81 -95,-81l-625 0c-130,14 -83,70 -107,253 -10,75 -21,244 -23,327 -3,133 -28,300 -130,382 -39,31 -72,38 -100,76l1 0 0 -1z"/>
    <path class="fil11" d="M13144 2084l256 0 0 -512c277,0 290,-35 361,219l84 293 256 0c-6,-70 -68,-271 -89,-356 -32,-128 -56,-235 -181,-265 67,-100 102,-70 143,-236 21,-86 72,-239 74,-317l-216 0c-104,0 -51,445 -256,445l-175 0 0 -445 -256 0 0 1173 -1 1 -1 0z"/>
    <path class="fil11" d="M14681 1195l8 19c3,8 8,22 11,29l102 383 -243 0c19,-40 117,-381 122,-431l0 -1 0 1zm-67 -284l147 0c115,10 104,90 270,581 37,110 64,202 102,315 42,123 122,276 47,276 -247,0 -240,58 -310,-243l-363 0c-27,56 -65,176 -81,243 -36,0 -222,4 -241,-3 -38,-13 -26,-31 -12,-72l326 -982c22,-66 29,-115 115,-115l1 0z"/>
    <path class="fil11" d="M10921 1209l0 593c0,169 125,284 229,284l606 0 0 -216c-314,-74 -579,101 -579,-135 0,-215 -83,-162 512,-162 0,-147 20,-216 -40,-216l-472 0c0,-90 -8,-129 27,-202 215,-50 539,38 539,-54 0,-132 19,-189 -40,-189l-512 0c-159,0 -270,133 -270,296l1 -1 -1 0z"/>
    <path class="fil11" d="M15840 1452l-229 0 0 -310c122,0 377,-39 377,149 0,88 -61,162 -149,162zm-485 -472l0 1105 256 0 0 -417c250,0 493,34 614,-222 99,-209 -26,-533 -330,-533l-472 0c-31,0 -67,36 -67,67z"/>
    <path class="fil12" d="M8447 2433c6,-25 0,-24 38,-63 17,-17 30,-31 51,-42 -85,-45 -60,-78 -61,-93l-112 -105c-58,37 -91,63 -107,140l-8 -184 -158 -6 108 -114c-20,-24 -27,-29 -47,-49l-54 -65 148 -3 3 -157c47,28 78,70 114,103 36,-17 76,-55 88,-94 -1,-38 6,-100 6,-158 57,0 125,-1 161,-7 30,-10 -4,20 37,-22 -20,-57 -156,-185 -199,-202 -44,22 -163,145 -193,186 -33,-56 17,-29 -36,-68 -81,0 -188,-13 -263,10l-2 270c-44,-22 -31,-26 -74,-32l-179 186 184 190c0,-1 -6,-2 -8,4 -18,53 -56,-36 -54,119 1,62 -4,126 7,187l273 1c-31,47 -24,13 -34,72l187 181c49,-28 68,-56 101,-88 33,-32 72,-62 85,-98l-1 0 -1 1z"/>
    <path class="fil11" d="M16311 1128c104,24 200,13 323,13l0 902c0,65 98,40 270,40l0 -943c382,0 337,41 337,-189 0,-31 -10,-40 -40,-40l-850 0c-47,0 -42,33 -42,79 -1,44 1,92 1,136l0 2z"/>
    <path class="fil11" d="M9816 2934c0,37 6,37 13,67l135 0 184 -300c22,-38 42,-82 72,-104l0 404 149 0 0 -566c0,-96 -53,-81 -122,-81 -69,0 -223,360 -284,404 0,-72 0,-144 0,-216 1,-204 33,-189 -149,-189l0 579 1 0 1 1z"/>
    <path class="fil11" d="M14034 2435l0 566 149 0 0 -512 243 0 0 512 149 0 0 -593c0,-31 -22,-54 -54,-54l-431 0c-42,0 -54,40 -54,81l-1 0z"/>
    <path class="fil11" d="M15435 2893c-102,0 -81,23 -81,-256 158,-3 162,-18 162,162 0,67 -55,95 -81,95l-1 -1 1 0zm-229 -310l0 606 149 0 0 -189c103,49 275,21 314,-199 11,-60 -7,-156 -40,-211 -88,-147 -423,-88 -423,-8l0 1 0 -1z"/>
    <path class="fil11" d="M12175 2893c-37,0 -37,-6 -67,-13l0 -243c61,-1 175,-49 175,135 0,65 -38,122 -108,122l0 -1zm-202 -350l0 647 135 0 0 -189c79,38 245,19 297,-108 69,-165 -3,-391 -176,-391 -182,0 -114,7 -256,40l-1 0 0 1z"/>
    <path class="fil11" d="M14815 2866c0,-37 6,-37 13,-67l135 -13 0 108c0,0 -149,35 -149,-27l0 -1 1 0zm-95 -337c0,63 3,60 13,108 116,-3 220,-58 229,54 -74,0 -145,-9 -199,17 -118,57 -120,199 -53,262 80,74 385,58 385,-22 0,-335 67,-521 -377,-417l1 -1 1 0z"/>
    <path class="fil11" d="M11663 2624c37,0 37,6 67,13 3,37 6,37 13,67l-162 0c19,-36 26,-81 81,-81l1 0 0 1zm-229 108c0,220 54,284 270,284 73,0 106,-25 149,-54 -15,-33 -23,-61 -40,-95 -73,17 -217,81 -229,-67 59,0 117,0 176,1 127,1 121,-10 121,-109 0,-54 -17,-99 -45,-130 -108,-117 -399,-70 -399,170l-1 0 -1 0z"/>
    <path class="fil11" d="M15987 2893c-107,0 -95,-72 -95,-175 0,-131 175,-136 175,40 0,55 -26,135 -81,135l1 0zm-243 -162c0,201 40,284 256,284 288,0 263,-512 13,-512 -147,0 -270,48 -270,229l1 0z"/>
    <path class="fil11" d="M13279 2624c37,0 37,6 67,13 3,37 6,37 13,67l-162 0c10,-45 28,-81 81,-81l1 0 0 1zm-229 108c0,236 63,284 270,284 73,0 106,-25 149,-54 -17,-32 -31,-55 -40,-95 -68,16 -226,82 -229,-67 312,0 296,26 296,-122 0,-230 -445,-259 -445,54l-1 0z"/>
    <path class="fil11" d="M12511 2557l0 445 149 0 0 -202 162 0 0 202 135 0 0 -485 -135 0 0 175 -162 0 0 -175c-106,0 -149,-15 -149,40z"/>
    <path class="fil11" d="M10477 2557l0 445 149 0 0 -202 162 0 0 202 135 0 0 -485 -135 0 0 175 -162 0 0 -175c-106,0 -149,-15 -149,40z"/>
    <path class="fil11" d="M16244 2934c17,33 25,62 40,95 191,-16 202,-212 202,-390l108 0 0 363 135 0 0 -445c0,-70 -133,-40 -323,-40 -72,0 -48,154 -56,228 -13,126 -22,134 -106,191l0 -1 1 0z"/>
    <path class="fil10" d="M8476 2235c2,-56 -8,-106 13,-156 41,-1 65,7 101,-7 45,-18 1,19 36,-23 -37,-16 -68,-50 -93,-85 19,-35 51,-76 86,-81 -28,-48 15,-22 -69,-31 -37,-4 -42,13 -64,-12 -18,-20 -5,-35 -8,-65 -8,-84 -8,-61 -28,-72 -13,38 -52,76 -88,94 -36,-33 -67,-75 -114,-103l-3 157 -148 3 54 65c20,20 27,25 47,49l-108 114 158 6 8 184c17,-77 49,-104 107,-140l112 105 1 -2z"/>
    <path class="fil11" d="M17093 2893l-108 0 0 -122 54 0c163,0 108,122 54,122l1 0 -1 0zm-256 -337c0,132 -15,322 13,445 329,0 431,37 431,-202 0,-147 -191,-135 -296,-135l0 -149c-106,0 -149,-15 -149,40l1 0z"/>
    <path class="fil13" d="M8476 2235c0,15 -24,47 61,93 -21,11 -35,25 -51,42 -38,40 -31,39 -38,63 86,70 -69,65 308,63 30,-108 -21,-225 31,-280 6,-45 22,-136 -31,-155 -47,-17 -69,-23 -131,-14 -35,42 9,6 -36,23 -35,14 -60,6 -101,7 -21,51 -11,100 -13,156l1 1 -1 1z"/>
    <path class="fil13" d="M8449 1703c21,12 21,-12 28,72 3,29 -10,45 8,65 22,25 28,7 64,12 84,10 41,-17 69,31 69,-29 42,-31 104,-82l16 -12c0,0 -26,-5 21,44l71 45c33,-35 1,-8 66,-35 6,-381 36,-256 -213,-277 -20,-2 -19,0 -37,-7 -44,-17 1,21 -30,-20 -37,6 -105,7 -161,7 0,58 -7,120 -6,158l0 -1z"/>
    <path class="fil11" d="M10989 2597c0,54 38,40 135,40 0,118 -13,251 13,363l135 0 0 -363c170,0 149,21 149,-122l-431 0 0 81 -1 1 1 0z"/>
    <path class="fil11" d="M13536 2597c0,55 42,40 149,40l0 363 135 0 0 -363c170,0 149,21 149,-122l-431 0 0 81 -1 1z"/>
    <path class="fil12" d="M8618 1883c-35,6 -68,47 -86,81 26,35 56,69 93,85 63,-10 85,-3 131,14 53,19 38,110 31,155l29 38 202 -194c-20,-28 -152,-167 -188,-184l-71 -45c-47,-49 -21,-44 -21,-44l-16 12c-63,51 -35,53 -104,82l1 -1 -1 1z"/>
   </g>
   <path class="fil14" d="M2156 2352l75 349 -75 -349zm-699 -1721l0 25 -29 -21 29 -4 0 -1 0 1zm100 -50c-69,29 -37,7 -100,50l0 -47c245,-306 120,-228 -599,-228l0 898c-3,-5 -7,-19 -8,-16 -1,3 -6,-13 -8,-16l-84 -268c-115,10 -147,84 -281,219 -87,87 -178,158 -243,256 42,156 435,417 574,624 -295,-69 -275,-435 -275,599l898 0c-73,63 -169,70 -299,100 9,101 26,94 93,157 49,48 78,76 126,124 87,87 158,178 256,243 156,-42 417,-435 624,-574 -29,125 -93,136 -125,275l723 0 18 -866c53,118 25,138 107,292 63,-42 473,-428 499,-524l-574 -599c295,79 275,421 275,-599l-923 0c6,-3 14,-13 17,-8l35 -15c5,-2 13,-5 18,-7 31,-11 36,-12 76,-24 52,-15 119,-32 178,-47 -10,-115 -84,-147 -219,-281 -78,-78 -174,-215 -281,-243 -97,65 -283,273 -393,380 -124,120 -105,84 -106,143l2 1 -1 1zm1398 3118l-124 0 0 -125 133 0c44,40 25,8 42,75l-50 50 -1 0zm-498 -1771c-417,0 -349,-68 -349,349l0 25 -256 -244c-86,55 -196,185 -269,269 0,-467 86,-398 -374,-398 65,-97 192,-151 225,-275 -77,-114 -165,-150 -225,-250 448,0 374,75 374,-374l256 244 263 -250c6,454 -69,379 379,379l-244 256c52,83 139,141 191,201 55,64 34,57 29,67l0 1zm897 2095c13,23 -79,25 92,25l9 0 0 -474 175 0 0 -125 -474 0 0 75 -28 -8c-170,-87 35,-67 -446,-67l0 599 150 0 0 -200c237,0 324,-31 324,-275l150 0 -2 350c17,94 -10,51 52,99l-1 -1 0 1zm-2793 -398c0,346 -10,414 155,424l270 0 0 -125 -275 0 0 -150 250 0 0 -125 -250 0 0 -75 275 0 0 -125c-250,0 -424,-49 -424,175l0 1 0 -1zm448 424l5 0 5 0c95,0 175,-4 209,-181 13,-69 31,-231 31,-292l150 0 0 474 150 0c0,-715 97,-599 -374,-599 -120,0 -66,166 -81,293 -32,273 -94,77 -94,304l1 1 -1 -1zm-699 -125l-100 0 0 -150c135,0 172,-12 175,125 -30,17 -27,25 -75,25l0 -1 0 1zm49 125l-298 0 0 -599 424 0c-4,181 -79,125 -275,125l0 75c178,0 382,31 319,268 -23,89 -86,121 -171,132l0 -1 0 1zm2021 -398c29,41 0,-40 34,66 18,57 10,12 16,84l-100 0c24,-50 36,-90 50,-150zm-773 398l150 0 0 -250c121,0 179,-5 200,250l299 0c21,-44 29,-81 50,-125l175 0c13,57 19,58 25,125l150 0c-4,-165 -136,-429 -175,-599l-175 0c-35,73 -168,462 -175,549 -85,-63 -26,7 -61,-114 -6,-23 -14,-56 -22,-79 -71,-202 15,-129 33,-356l-150 0c-13,154 -17,221 -175,225l0 -225 -150 0 0 599 1 0 -1 0zm549 -1696l-25 -25 25 25zm-25 -25l-25 -25 25 25zm-947 -374l-374 100 374 -100zm25 -25l-25 25 25 -25zm0 0l-25 25 25 -25zm1297 -549l-25 25 25 -25zm374 -100l-374 100 374 -100zm-1297 -250l1297 250 -1297 -250zm0 0l-25 -25 25 25zm-25 -25l-25 -25c58,0 67,-17 25,25zm0 -424l-25 398 25 -398z"/>
   <g id="_674138816">
    <path class="fil15" d="M39948 2641l114 551 -323 0 102 -274c20,-49 30,-88 49,-138l58 -140 1 0zm-833 1104l427 0c16,-70 67,-157 73,-230 136,0 272,1 406,0 116,-1 108,-41 139,163 15,97 -3,67 392,67 -2,-62 -61,-299 -78,-391l-82 -387c-55,-253 -105,-520 -165,-774 -502,0 -448,-61 -627,373l-197 470c-16,42 -37,79 -50,116 -16,44 -26,78 -47,120l-195 472 1 0 1 1z"/>
    <path class="fil15" d="M38167 2682c0,171 102,262 224,349 128,93 329,112 329,276 0,32 -6,38 -25,58l-17 15c-122,97 -400,50 -538,-14 -32,-15 -47,-25 -87,-27 0,96 -50,273 -52,343 243,128 841,151 1074,-186 108,-155 103,-405 -56,-551 -67,-61 -143,-102 -231,-145 -45,-22 -80,-42 -120,-67 -189,-120 -33,-302 339,-215 48,11 100,46 149,50 1,-46 15,-114 24,-164 8,-48 17,-120 28,-170 -163,-86 -440,-90 -621,-38 -42,12 -71,23 -107,39 -111,50 -182,106 -250,208 -38,56 -64,147 -64,238l-1 1 0 -1z"/>
    <path class="fil15" d="M36584 3015c-25,-33 -77,-150 -104,-197 -32,-54 -87,-128 -126,-167 -68,-67 -214,-217 -322,-258l353 1351 427 0 635 -1551 -427 0c-68,129 -342,970 -395,1030l-42 -210 0 1 1 0z"/>
    <path class="fil15" d="M33866 496l254 1162c12,52 34,126 38,171l260 0c31,-59 59,-107 91,-171 16,-32 26,-52 43,-82l318 -598c33,-60 57,-114 91,-171l65 -123c9,-18 13,-30 23,-50l91 -171 -282 0c-9,41 -38,80 -58,119l-91 190c-13,26 -20,36 -34,60l-186 376c-26,44 -110,208 -121,254 -32,-24 -26,-61 -43,-145l-161 -830c-13,-63 -2,-42 -129,-24 -51,7 -115,28 -168,30l1 2 -3 0z"/>
    <path class="fil15" d="M39313 1620c-112,0 -156,-62 -156,-178 0,-177 81,-385 250,-385 150,0 79,6 188,32l-55 351c-16,111 -154,180 -227,180zm312 -729c-158,-37 -64,-32 -250,-32 -405,0 -576,662 -403,872 108,132 286,135 418,60 54,-30 78,-60 120,-88l0 114 219 0c0,-69 59,-407 76,-528 9,-56 21,-119 29,-180 10,-79 103,-631 103,-709 -55,0 -114,15 -175,24 -92,12 -73,11 -87,111l-51 354 1 1z"/>
    <path class="fil15" d="M37355 3745l405 0 216 -1357c12,-60 29,-138 34,-196 -475,0 -407,-39 -430,122 -22,158 -226,1356 -226,1430l1 0 0 1z"/>
    <path class="fil15" d="M38469 1017c115,0 146,102 146,219l-364 0c24,-102 97,-219 219,-219zm-489 385c0,109 -9,208 70,305 6,7 13,15 20,22 144,156 432,126 608,48 126,-56 104,-69 104,-240 -37,3 -46,17 -80,35 -188,98 -482,155 -482,-129l0 -52 583 0c71,0 107,-541 -272,-541 -112,0 -165,3 -268,56 -151,77 -285,302 -285,497l2 -1 -1 -1z"/>
    <path class="fil15" d="M35386 1017c126,0 146,111 146,219l-364 0c24,-102 101,-219 219,-219zm-489 417c0,135 9,216 100,306 155,155 487,111 662,7 13,-8 29,-3 39,-55l3 -60c0,-32 0,-63 0,-94 -89,21 -168,114 -353,114 -188,0 -208,-124 -208,-260l583 0c62,0 74,-328 -49,-451 -155,-155 -479,-114 -639,97 -75,99 -136,222 -136,395l-2 0z"/>
    <path class="fil15" d="M37002 862c-21,44 -16,53 -26,110 -18,110 -44,98 120,98 0,91 -106,641 -114,750 294,0 243,23 261,-114l91 -575c6,-50 -10,-51 33,-61 48,-10 148,21 178,-9 26,-26 9,-144 9,-189 -75,-18 -88,-10 -178,-10 0,-278 111,-240 250,-240l0 -198c-132,0 -242,-22 -357,70 -87,68 -108,161 -124,273 -17,131 -1,96 -144,96l1 -1 1 0z"/>
    <path class="fil15" d="M40479 1673c-97,0 -68,-6 -126,-10 1,-45 15,-86 21,-135 17,-130 12,-190 78,-235 312,-208 278,379 26,379l1 0zm-178 -906c-2,67 -26,184 -38,254 -20,115 -108,674 -108,767 39,3 58,15 100,25 265,62 508,-13 587,-295 37,-130 52,-290 -60,-388 -73,-64 -176,-55 -257,-21 -59,25 -60,38 -101,66 18,-75 62,-351 62,-427 -69,0 -108,20 -188,20l1 2 1 -1z"/>
    <path class="fil15" d="M36168 1037c0,-210 41,-178 -178,-178 -56,0 -42,112 -63,218l-114 740c326,0 225,44 279,-232 17,-87 28,-180 41,-261 12,-78 75,-126 139,-163 59,-33 140,-72 229,-73l0 -240c-87,0 -142,29 -196,64 -55,36 -85,89 -137,124l0 1 0 -1z"/>
    <path class="fil15" d="M40970 1111c8,92 146,628 146,709 0,45 -60,114 -114,114l-114 0 10 156c110,0 166,9 261,-62 94,-69 352,-616 433,-775l77 -153 -188 0 -195 420c-7,14 -8,17 -14,28l-8 13c-13,20 -4,8 -14,18l-61 -365c-8,-44 -19,-85 -22,-124 -67,0 -137,20 -198,21l0 1 0 -1z"/>
    <path class="fil15" d="M36636 872c-2,69 -24,161 -33,238l-73 469c-10,71 -34,168 -40,242l250 0c0,-116 136,-809 136,-936 0,-41 -216,-20 -240,-10l0 -1 0 -1z"/>
    <path class="fil15" d="M37668 872c0,131 -136,815 -136,948l240 0 130 -860c18,-115 56,-98 -182,-98 -16,0 -39,5 -52,10z"/>
    <path class="fil16" d="M36033 2396c109,40 255,190 322,258 38,38 94,113 126,167 27,46 79,164 104,197 0,-62 -21,-129 -32,-185 -134,-659 -44,-636 -488,-636 -149,0 -298,0 -447,0 3,44 -18,28 88,58 79,21 276,104 329,143l0 -1 -2 0z"/>
    <path class="fil15" d="M36658 600c0,173 291,137 291,-20 0,-61 6,-91 -54,-124 -38,-21 -67,-24 -111,-10 -35,11 -60,26 -84,53 -19,20 -44,67 -44,102l0 -1 1 0z"/>
    <path class="fil15" d="M37698 580c0,81 10,136 126,136 136,0 219,-166 123,-249 -86,-74 -248,5 -248,113l-1 0z"/>
   </g>
   <g id="_1044719680">
    <g id="_1031974144">
     <path class="fil17" d="M25295 1979l-553 2c95,-274 362,-223 472,-132 72,58 81,131 81,131l0 -1zm178 512c43,-30 53,-59 86,-107l-136 -59c-19,-9 -100,-55 -103,-44 -1,4 -5,4 -7,6 -66,64 -116,163 -313,143 -132,-14 -263,-125 -259,-222 143,-1 772,18 858,-7 50,-412 -239,-715 -644,-680 -113,10 -193,41 -279,100 -193,131 -291,378 -233,624 17,71 61,141 67,185 29,12 48,45 68,66 19,21 43,44 70,66 54,43 117,77 192,95l0 6c134,23 252,33 382,-6 90,-26 220,-103 251,-166l1 -1 -1 1zm1927 -281c-31,-24 6,-562 -16,-673l-296 -8 0 21 0 1109 290 3 11 -6c25,-68 392,-493 447,-602 26,-11 47,-57 72,-74l-1 682 295 0 0 -1125 -252 -1c-30,3 -11,-2 -36,8 -3,1 -12,7 -15,8 -1,0 -275,363 -281,379 -29,16 -139,172 -174,216l-45 62 0 -1 -1 2zm-1352 -657c-17,-22 4,-10 -27,-18 -1,0 -29,1 -31,1l-236 -6c-17,99 -6,290 -6,400 0,170 -7,1082 3,1170l298 -2 3 -530c6,-26 -7,-8 12,-22 30,40 61,58 111,86 42,23 104,31 135,55l44 -3c148,4 258,-24 350,-90 192,-137 269,-373 229,-616 -53,-318 -357,-532 -678,-439 -23,7 -42,13 -62,22 -8,4 -21,11 -27,15 -21,13 -15,6 -21,20 -53,22 -52,42 -96,64l-2 -105 0 -2zm418 836l-17 2c-22,24 -102,26 -146,21 -59,-7 -85,-33 -125,-39l-53 -57c-56,-67 -81,-147 -75,-241 9,-146 85,-198 155,-256 214,-68 394,15 423,215 25,54 1,169 -24,219 -33,65 -76,99 -138,137l-1 0 0 -1zm1970 270c55,9 246,11 295,-3l0 -857 484 -1 1 863 295 1 0 -1125 -1076 1 0 1121 0 -1z"/>
     <g>
      <polygon class="fil18" points="22206,1902 21217,650 21872,650 22550,1481 "/>
      <polygon class="fil18" points="23151,981 23161,1014 23168,1048 23168,1087 23168,1124 23151,1164 23120,1207 21252,3492 21929,3492 23500,1556 23514,1527 23514,1490 23514,1460 23508,1436 23495,1406 22923,700 22900,682 22879,669 22848,656 22816,650 22215,650 22893,1483 23151,1164 23168,1124 23168,1087 23161,1014 "/>
      <polygon class="fil18" points="23728,1688 22267,3492 22836,3492 22895,3492 22929,3478 22965,3457 22995,3427 23974,2232 23994,2203 24010,2169 24020,2135 24020,2093 24013,2051 "/>
      <polygon class="fil19" points="22893,1483 22215,650 22816,650 22852,657 22896,680 22923,700 23151,981 23165,1031 23168,1105 23160,1144 23136,1186 "/>
     </g>
    </g>
   </g>
   <g id="_1044723264">
    <g id="_672512592">
     <path class="fil20" d="M45954 810l0 2480c0,136 59,280 125,383 181,283 427,354 702,370l466 0 1367 0 503 0c63,-3 120,-8 168,-16 95,-16 183,-50 254,-91 84,-48 124,-87 191,-153 109,-108 211,-317 211,-476l0 -2513c0,-379 -375,-745 -753,-745l-2464 0c-56,0 -120,9 -166,22l-64 20c-294,85 -539,409 -539,720l-1 -1 1 -1z"/>
     <polygon class="fil21" points="47150,1244 46748,1244 46748,2847 47150,2847 47150,3239 48754,3239 48754,2847 49145,2847 49146,1243 48754,1243 48754,842 47150,842 "/>
     <polygon class="fil20" points="47158,2839 48745,2839 48745,1252 47158,1252 "/>
    </g>
   </g>
  </g>
 </g>
</svg>
