<?xml version="1.0" encoding="utf-8"?>
<!-- Generator: Adobe Illustrator 24.1.2, SVG Export Plug-In . SVG Version: 6.00 Build 0)  -->
<svg version="1.1" id="Слой_1" xmlns="http://www.w3.org/2000/svg" xmlns:xlink="http://www.w3.org/1999/xlink" x="0px" y="0px"
	 viewBox="0 0 128 128" style="enable-background:new 0 0 128 128;" xml:space="preserve">
<style type="text/css">
	.st0{fill:none;}
	.st1{fill:#288CA3;}
	.st2{fill:#FFFFFF;}
	.st3{fill:#F0EF98;}
	.st4{fill:#62355C;}
	.st5{fill:#EBC8B6;}
	.st6{fill:#DC1C4B;}
	.st7{fill:#D1B3A2;}
	.st8{fill:#B01D47;}
	.st9{fill:#801231;}
</style>
<g>
	<rect id="canvas_background" x="-1" y="-1" class="st0" width="582" height="402"/>
</g>
<g>
	<circle id="svg_1" class="st1" cx="64" cy="72" r="45"/>
	<g id="svg_2">
		<path id="svg_3" class="st2" d="M31,72c0-22.8,17-41.7,39-44.6c-2-0.3-4-0.4-6-0.4c-24.9,0-45,20.1-45,45s20.1,45,45,45
			c2,0,4-0.1,6-0.4C48,113.7,31,94.8,31,72z"/>
	</g>
	<circle id="svg_4" class="st3" cx="111.5" cy="16.5" r="12.5"/>
	<path id="svg_5" class="st4" d="M13.9,83.2c-0.7-0.5-1.6-0.3-2.1,0.3C7.7,89.2,6.5,94.2,8.3,98c2.1,4.5,8.1,6.6,16.6,6.6 c1.8,0,3.8-0.1,5.8-0.3c8.5,8.7,20.3,14.2,33.4,14.2c25.6,0,46.5-20.9,46.5-46.5c0-1.6-0.1-3.2-0.3-4.8c8.2-8.1,12-15.7,9.5-21.2 c-1.7-3.7-6.2-6-13-6.6c-0.8-0.1-1.5,0.5-1.6,1.4s0.5,1.5,1.4,1.6c3.9,0.3,8.9,1.4,10.5,4.8c1.7,3.7-0.9,9.5-7.3,16.2 c-4-21.6-23-38-45.7-38c-25.6,0-46.5,20.9-46.5,46.5c0,11.2,4,21.5,10.6,29.5c-9.2,0.6-15.4-1.1-17.1-4.8 c-1.6-3.5,0.9-8.1,3.2-11.4C14.7,84.6,14.6,83.7,13.9,83.2z M64,115.5c-11.4,0-21.8-4.4-29.6-11.6c11.1-1.6,24.6-5.8,38.7-12.4 s26-14.3,34.4-21.7c0,0.7,0.1,1.5,0.1,2.2C107.5,96,88,115.5,64,115.5z M64,28.5c22,0,40.2,16.4,43.1,37.6 c-7.8,7.4-19.8,15.5-35.3,22.7c-14.2,6.6-28.4,11-40,12.4c-7-7.7-11.3-18-11.3-29.2C20.5,48,40,28.5,64,28.5z"/>
	<path id="svg_6" class="st4" d="M111.5,2.5c-7.7,0-14,6.3-14,14s6.3,14,14,14s14-6.3,14-14S119.2,2.5,111.5,2.5z M111.5,27.5
		c-6.1,0-11-4.9-11-11s4.9-11,11-11s11,4.9,11,11S117.6,27.5,111.5,27.5z"/>
	<g id="svg_71" transform="rotate(-43 21.497167587280284,27.756637573242195) ">
		<g id="svg_40" transform="matrix(1.5816039825870858,0,0,1.5816039825870858,-7.232946617640852,102.30534380572027) ">
			<g id="svg_41" transform="matrix(1.2784157,0,0,1.2784157,39.460221,-44.148493) ">
				<path id="svg_49" class="st5" d="M-21.9,3.6c-0.1,0-0.3,0.1-0.3,0.3v1.6c0,0.1,0.1,0.3,0.3,0.3l1.1,0c0.1,0,0.2,0,0.2-0.1 l1.1-1.6c0.1-0.1,0-0.3-0.1-0.4c0,0-0.1,0-0.1,0L-21.9,3.6z M-13.5,3.6c-0.1,0-0.3,0.1-0.3,0.3c0,0.1,0,0.1,0,0.1l1.1,1.6 c0,0.1,0.1,0.1,0.2,0.1l1.1,0c0.1,0,0.3-0.1,0.3-0.3l0-1.6c0-0.1-0.1-0.3-0.3-0.3C-11.4,3.6-13.5,3.6-13.5,3.6z"/>
				<path id="svg_48" class="st6" d="M-16.7-10.3c-0.9,0-1.8,0.1-2.7,0.4l-1.6,0.5c-1.6,0.5-2.6,2.1-2.3,3.8l0.5,3l0,2.6
					c0,0,0,0.1,0,0.1l0.6,2.1c0,0.1,0.1,0.2,0.3,0.2l4.7-0.2c0,0,0,0,0,0l4.2-0.2c0,0,0.1,0,0.1,0l2.6-1.2C-10,0.7-10,0.6-10,0.5 l-0.4-1.9l-0.2-1.2l0.5-3c0.3-1.7-0.7-3.3-2.3-3.8L-14-9.9C-14.9-10.2-15.8-10.3-16.7-10.3C-16.7-10.3-16.7-10.3-16.7-10.3z"/>
				<path id="svg_47" class="st7" d="M-21.9,3.6c-0.1,0-0.3,0.1-0.3,0.3v0.8l2.2,0l0.4-0.6c0.1-0.1,0-0.3-0.1-0.4c0,0-0.1,0-0.1,0
					L-21.9,3.6z M-13.5,3.6c-0.1,0-0.3,0.1-0.3,0.3c0,0.1,0,0.1,0,0.1l0.4,0.6l2.2,0l0-0.8c0-0.1-0.1-0.3-0.3-0.3 C-11.4,3.6-13.5,3.6-13.5,3.6z"/>
				<path id="svg_46" class="st8" d="M-22.3-2.9c-0.9,0-1.7,0.5-2.2,1.1c-0.2,0.3-0.3,0.6-0.3,1c0,0.3,0,0.7,0.1,1l0.7,2.9
					c0.1,0.6,0.6,1,1.2,1l12.2,0c0.6,0,1.1-0.4,1.2-1l0.7-2.9c0.1-0.3,0.1-0.6,0.1-1c0-0.3-0.1-0.7-0.3-1c-0.5-0.7-1.3-1.1-2.2-1.1 c-1.5,0-2.6,1.2-2.6,2.6c0,0.2,0,0.4,0.1,0.6c-1-0.2-2-0.3-3-0.3c-1,0-2,0.1-3.1,0.3c0-0.2,0.1-0.4,0.1-0.5 C-19.6-1.7-20.8-2.9-22.3-2.9L-22.3-2.9z"/>
				<path id="svg_45" class="st8" d="M-10.6-2.6l0.5-3c0.2-1.2-0.2-2.3-1.1-3.1c-0.4-0.4-0.8-0.6-1.3-0.7c-0.6-0.2-1.2-0.4-1.7-0.5
					c-0.9-0.3-1.9-0.4-2.9-0.4c-0.5,0-1.5,0.2-2.3,0.4l-1.6,0.5c-1.5,0.5-2.5,1.9-2.4,3.5c0.1-1.4,1-2.6,2.4-3l1.6-0.5 c0.9-0.3,1.8-0.4,2.7-0.4c0.9,0,1.8,0.1,2.7,0.4l1.6,0.5c0.4,0.1,0.8,0.3,1.1,0.6c0.6,0.7,0.9,1.7,0.7,2.7l-0.5,3 C-11.1-2.6-10.6-2.6-10.6-2.6z"/>
				<path id="svg_44" class="st9" d="M-22.3-2.9c-0.9,0-1.7,0.5-2.2,1.1c-0.2,0.3-0.3,0.6-0.3,1c0,0.2,0,0.3,0,0.5
					c0.1-1.2,1.5-2,2.4-2c1.4,0,2.5,1,2.6,2.4c0-0.1,0-0.2,0-0.3C-19.6-1.7-20.8-2.9-22.3-2.9L-22.3-2.9L-22.3-2.9z M-8.6-0.8 c0-0.3-0.1-0.7-0.3-1c-0.5-0.7-1.3-1.1-2.2-1.1h0h0c-1.5,0-2.6,1.2-2.6,2.6c0,0.1,0,0.2,0,0.3c0.1-1.3,1.3-2.4,2.6-2.4 c0.9,0,1.7,0.4,2.2,1.1L-8.6-0.8z M-19.7,0.3c0,0.2,0,0.4-0.1,0.5c2.1-0.4,4.2-0.4,6.2,0c0-0.2-0.1-0.4-0.1-0.5 C-15.7,0-17.8,0-19.7,0.3C-19.7,0.3-19.7,0.3-19.7,0.3z"/>
				<path id="svg_43" class="st9" d="M-11.3-2.9c1.2,0.2,2.1,0.9,2.2,2.1c0,1.3-0.5,2.6-0.7,3.9c-0.1,0.6-0.6,1-1.2,1h0.5
					c0.6,0,1.1-0.4,1.2-1c0.2-1,0.8-2.7,0.7-3.9C-8.7-2-10-2.9-11-2.9L-11.3-2.9z"/>
				<path id="svg_42" d="M-16.7-10.3c-0.9,0-1.8,0.1-2.7,0.4l-1.6,0.5c-1.6,0.5-2.6,2.1-2.3,3.8l0.5,2.8c-0.7,0.1-1.3,0.5-1.7,1.1
					c-0.2,0.3-0.3,0.6-0.3,1c0,0.3,0,0.7,0.1,1l0.7,2.9c0.1,0.6,0.6,1,1.2,1l0.5,0v1.3c0,0.1,0.1,0.3,0.3,0.3l1.1,0 c0.1,0,0.2,0,0.2-0.1l1-1.5l6.1,0l1,1.5c0,0.1,0.1,0.1,0.2,0.1l1.1,0c0.1,0,0.3-0.1,0.3-0.3V4.1h0.5c0.6,0,1.1-0.4,1.2-1 l0.7-2.9c0.1-0.3,0.1-0.6,0.1-1c0-0.3-0.1-0.7-0.3-1c-0.4-0.6-1-1-1.7-1.1l0.5-2.8c0.3-1.7-0.7-3.3-2.3-3.8L-14-9.9 C-14.9-10.2-15.8-10.3-16.7-10.3L-16.7-10.3L-16.7-10.3z M-16.7-9.8c0.8,0,1.7,0.1,2.5,0.4l1.6,0.5c1.4,0.4,2.2,1.8,2,3.2 l-0.5,2.8c-1.4,0-2.6,1.2-2.6,2.6c0,0.2,0,0.4,0.1,0.6c-2.1-0.4-4.2-0.4-6.1,0c0-0.2,0.1-0.4,0.1-0.5c0-1.5-1.2-2.6-2.6-2.6 l-0.5-2.8c-0.2-1.4,0.6-2.8,2-3.2l1.6-0.5C-18.4-9.7-17.5-9.8-16.7-9.8L-16.7-9.8z M-16.7-9.3c-0.7,0-1.4,0.1-2.1,0.3L-20-8.6 c-1.3,0.4-2.1,1.7-1.9,3.1l0.2,1.2c0,0.1,0.2,0.2,0.3,0.2c0.1,0,0.2-0.2,0.2-0.3l-0.2-1.2c-0.2-1.1,0.5-2.1,1.5-2.5l1.2-0.4 c1.3-0.4,2.7-0.4,4,0l1.2,0.4c1.1,0.3,1.7,1.4,1.5,2.5l-0.2,1.2c0,0.1,0.1,0.3,0.2,0.3c0.1,0,0.3-0.1,0.3-0.2l0.2-1.2 c0.2-1.3-0.6-2.7-1.9-3.1L-14.5-9C-15.2-9.2-15.9-9.3-16.7-9.3z M-19.7-7.1c-0.1,0-0.1,0-0.2,0.1C-20-7-20-6.8-19.9-6.7l0.2,0.2 l-0.2,0.2C-20-6.2-20-6-19.9-5.9c0.1,0.1,0.3,0.1,0.4,0l0.2-0.2l0.2,0.2c0.1,0.1,0.3,0.1,0.4,0c0.1-0.1,0.1-0.3,0-0.4l-0.2-0.2 l0.2-0.2c0.1-0.1,0.1-0.3,0-0.4c0,0-0.1-0.1-0.2-0.1c-0.1,0-0.1,0-0.2,0.1l-0.2,0.2l-0.2-0.2C-19.5-7.1-19.6-7.1-19.7-7.1z M-14.4-7.1c-0.1,0-0.1,0-0.2,0.1c-0.1,0.1-0.1,0.3,0,0.4l0.2,0.2l-0.2,0.2c-0.1,0.1-0.1,0.3,0,0.4c0.1,0.1,0.3,0.1,0.4,0 l0.2-0.2l0.2,0.2c0.1,0.1,0.3,0.1,0.4,0c0.1-0.1,0.1-0.3,0-0.4l-0.2-0.2l0.2-0.2c0.1-0.1,0.1-0.3,0-0.4c-0.1-0.1-0.3-0.1-0.4,0 L-14-6.9l-0.2-0.2C-14.2-7.1-14.3-7.1-14.4-7.1z M-17-5.6c-0.1,0-0.1,0-0.2,0.1c-0.1,0.1-0.1,0.3,0,0.4l0.2,0.2l-0.2,0.2 c-0.1,0.1-0.1,0.3,0,0.4c0.1,0.1,0.3,0.1,0.4,0l0.2-0.2l0.2,0.2c0.1,0.1,0.3,0.1,0.4,0c0.1-0.1,0.1-0.3,0-0.4l-0.2-0.2l0.2-0.2 c0.1-0.1,0.1-0.3,0-0.4c0,0-0.1-0.1-0.2-0.1c-0.1,0-0.1,0-0.2,0.1l-0.2,0.2l-0.2-0.2C-16.9-5.5-17-5.6-17-5.6z M-19.1-3.4 c-0.1,0-0.1,0-0.2,0.1c-0.1,0.1-0.1,0.3,0,0.4l0.2,0.2l-0.2,0.2c-0.1,0.1-0.1,0.3,0,0.4c0.1,0.1,0.3,0.1,0.4,0l0.2-0.2l0.2,0.2 c0.1,0.1,0.3,0.1,0.4,0c0.1-0.1,0.1-0.3,0-0.4l-0.2-0.2l0.2-0.2c0.1-0.1,0.1-0.3,0-0.4c0,0-0.1-0.1-0.2-0.1 c-0.1,0-0.1,0-0.2,0.1l-0.2,0.2L-19-3.4C-19-3.4-19.1-3.4-19.1-3.4z M-14.9-3.4c-0.1,0-0.1,0-0.2,0.1c-0.1,0.1-0.1,0.3,0,0.4 l0.2,0.2l-0.2,0.2c-0.1,0.1-0.1,0.3,0,0.4c0.1,0.1,0.3,0.1,0.4,0l0.2-0.2l0.2,0.2c0.1,0.1,0.3,0.1,0.4,0c0.1-0.1,0.1-0.3,0-0.4 l-0.2-0.2L-14-3c0.1-0.1,0.1-0.3,0-0.4c0,0-0.1-0.1-0.2-0.1c-0.1,0-0.1,0-0.2,0.1l-0.2,0.2l-0.2-0.2 C-14.8-3.4-14.8-3.4-14.9-3.4z M-22.3-2.3c1.2,0,2.1,0.9,2.1,2.1c0,0.2,0,0.5-0.1,0.7c-0.2,0-0.3,0.1-0.5,0.1 c0.1-0.4,0-0.9-0.1-1.3c-0.2-0.6-0.6-1-1.3-1c-0.5,0-0.9,0.2-1.2,0.6c-0.2,0.2-0.2,0.4-0.2,0.7c0,0.2,0,0.5,0,0.7l0.5,2.3 c0,0.1,0.2,0.2,0.3,0.2c0.1,0,0.2-0.2,0.2-0.3l-0.5-2.3c0-0.1,0-0.3,0-0.5c0-0.2,0.1-0.3,0.1-0.4c0.2-0.2,0.5-0.4,0.8-0.4 c0.5,0,0.7,0.3,0.8,0.7c0.1,0.4,0.1,0.9,0,1.3c-0.1,0-0.3,0.1-0.4,0.1c-0.1,0-0.2,0.2-0.2,0.3c0,0.1,0.2,0.2,0.3,0.2 c0.2-0.1,0.4-0.1,0.5-0.2c0,0,0,0,0,0c0.4-0.1,0.7-0.2,1.1-0.3c0,0,0,0,0,0c2.8-0.6,5.5-0.4,8.3,0.4c0.1,0,0.3,0,0.3-0.2 c0-0.1,0-0.3-0.2-0.3c-0.1,0-0.3-0.1-0.4-0.1c-0.1-0.4-0.1-0.9,0-1.3c0.1-0.4,0.4-0.7,0.8-0.7c0.3,0,0.6,0.2,0.8,0.4 c0,0.1,0.1,0.2,0.1,0.4c0,0.2,0,0.4,0,0.5l-0.5,2.3c0,0.1,0.1,0.3,0.2,0.3c0.1,0,0.3-0.1,0.3-0.2l0.5-2.3c0-0.2,0.1-0.4,0-0.7 c0-0.2-0.1-0.5-0.2-0.7c-0.3-0.4-0.7-0.6-1.2-0.6c-0.7,0-1.1,0.5-1.3,1c-0.1,0.4-0.2,0.9-0.1,1.3c-0.2,0-0.3-0.1-0.5-0.1 c-0.1-0.2-0.1-0.4-0.1-0.7c0-1.2,0.9-2.1,2.1-2.1c0.7,0,1.4,0.4,1.7,0.9C-9.2-1.3-9.1-1-9.1-0.7s0,0.6-0.1,0.8L-9.9,3  c-0.1,0.3-0.4,0.6-0.7,0.6l-12.2,0c-0.3,0-0.6-0.2-0.7-0.6l-0.7-2.9c0-0.2-0.1-0.5-0.1-0.8c0-0.3,0.1-0.6,0.2-0.7 C-23.6-2-23-2.3-22.3-2.3C-22.3-2.3-22.3-2.3-22.3-2.3z M-21.7,4.1l1.4,0L-21,5.1l-0.7,0C-21.7,5.1-21.7,4.1-21.7,4.1z M-13,4.1 l1.4,0v1.1l-0.7,0L-13,4.1z"/>
			</g>
		</g>
	</g>
</g>
</svg>
