<?xml version="1.0" encoding="UTF-8" standalone="no"?>
<svg
   xmlns:dc="http://purl.org/dc/elements/1.1/"
   xmlns:cc="http://creativecommons.org/ns#"
   xmlns:rdf="http://www.w3.org/1999/02/22-rdf-syntax-ns#"
   xmlns:svg="http://www.w3.org/2000/svg"
   xmlns="http://www.w3.org/2000/svg"
   xmlns:sodipodi="http://sodipodi.sourceforge.net/DTD/sodipodi-0.dtd"
   xmlns:inkscape="http://www.inkscape.org/namespaces/inkscape"
   inkscape:export-ydpi="576"
   inkscape:export-xdpi="576"
   inkscape:export-filename="D:\Project Real\Januari 1\Export\extended line\png\03 - Mirror.png"
   width="64pt"
   height="64pt"
   viewBox="0 0 22.577778 22.577778"
   version="1.1"
   id="svg831"
   inkscape:version="1.0 (4035a4fb49, 2020-05-01)"
   sodipodi:docname="04 - Sofa.svg">
  <defs
     id="defs825">
    <pattern
       id="EMFhbasepattern"
       patternUnits="userSpaceOnUse"
       width="6"
       height="6"
       x="0"
       y="0" />
    <pattern
       id="EMFhbasepattern-9"
       patternUnits="userSpaceOnUse"
       width="6"
       height="6"
       x="0"
       y="0" />
    <pattern
       id="EMFhbasepattern-0"
       patternUnits="userSpaceOnUse"
       width="6"
       height="6"
       x="0"
       y="0" />
    <pattern
       id="EMFhbasepattern-7"
       patternUnits="userSpaceOnUse"
       width="6"
       height="6"
       x="0"
       y="0" />
    <pattern
       id="EMFhbasepattern-2"
       patternUnits="userSpaceOnUse"
       width="6"
       height="6"
       x="0"
       y="0" />
    <pattern
       id="EMFhbasepattern-98"
       patternUnits="userSpaceOnUse"
       width="6"
       height="6"
       x="0"
       y="0" />
    <pattern
       id="EMFhbasepattern-6"
       patternUnits="userSpaceOnUse"
       width="6"
       height="6"
       x="0"
       y="0" />
    <pattern
       id="EMFhbasepattern-01"
       patternUnits="userSpaceOnUse"
       width="6"
       height="6"
       x="0"
       y="0" />
    <pattern
       id="EMFhbasepattern-07"
       patternUnits="userSpaceOnUse"
       width="6"
       height="6"
       x="0"
       y="0" />
    <pattern
       id="EMFhbasepattern-8"
       patternUnits="userSpaceOnUse"
       width="6"
       height="6"
       x="0"
       y="0" />
    <pattern
       id="EMFhbasepattern-4"
       patternUnits="userSpaceOnUse"
       width="6"
       height="6"
       x="0"
       y="0" />
    <pattern
       id="EMFhbasepattern-40"
       patternUnits="userSpaceOnUse"
       width="6"
       height="6"
       x="0"
       y="0" />
    <pattern
       id="EMFhbasepattern-08"
       patternUnits="userSpaceOnUse"
       width="6"
       height="6"
       x="0"
       y="0" />
    <pattern
       id="EMFhbasepattern-04"
       patternUnits="userSpaceOnUse"
       width="6"
       height="6"
       x="0"
       y="0" />
    <pattern
       id="EMFhbasepattern-014"
       patternUnits="userSpaceOnUse"
       width="6"
       height="6"
       x="0"
       y="0" />
    <pattern
       id="EMFhbasepattern-27"
       patternUnits="userSpaceOnUse"
       width="6"
       height="6"
       x="0"
       y="0" />
    <pattern
       id="EMFhbasepattern-09"
       patternUnits="userSpaceOnUse"
       width="6"
       height="6"
       x="0"
       y="0" />
    <pattern
       id="EMFhbasepattern-5"
       patternUnits="userSpaceOnUse"
       width="6"
       height="6"
       x="0"
       y="0" />
    <pattern
       id="EMFhbasepattern-018"
       patternUnits="userSpaceOnUse"
       width="6"
       height="6"
       x="0"
       y="0" />
  </defs>
  <sodipodi:namedview
     id="base"
     pagecolor="#ffffff"
     bordercolor="#666666"
     borderopacity="1.0"
     inkscape:pageopacity="0.0"
     inkscape:pageshadow="2"
     inkscape:zoom="6.2578125"
     inkscape:cx="42.666667"
     inkscape:cy="42.666667"
     inkscape:document-units="pt"
     inkscape:current-layer="layer1"
     showgrid="false"
     units="pt"
     inkscape:window-width="1366"
     inkscape:window-height="705"
     inkscape:window-x="-8"
     inkscape:window-y="-8"
     inkscape:window-maximized="1"
     inkscape:pagecheckerboard="true"
     inkscape:showpageshadow="false"
     inkscape:object-paths="true"
     inkscape:snap-intersection-paths="true"
     inkscape:snap-smooth-nodes="true"
     inkscape:snap-midpoints="true"
     showguides="true"
     inkscape:snap-bbox="true"
     inkscape:bbox-nodes="true"
     inkscape:snap-nodes="false"
     inkscape:snap-global="true"
     inkscape:document-rotation="0">
    <inkscape:grid
       type="xygrid"
       id="grid1378" />
    <sodipodi:guide
       position="0.97013831,21.607643"
       orientation="78.000048,0"
       id="guide1380"
       inkscape:locked="false" />
    <sodipodi:guide
       position="0.97013831,0.97013129"
       orientation="0,78.000005"
       id="guide1382"
       inkscape:locked="false" />
    <sodipodi:guide
       position="21.607639,0.97013129"
       orientation="-78.000048,0"
       id="guide1384"
       inkscape:locked="false" />
    <sodipodi:guide
       position="21.607639,21.607643"
       orientation="0,-78.000005"
       id="guide1386"
       inkscape:locked="false" />
  </sodipodi:namedview>
  <metadata
     id="metadata828">
    <rdf:RDF>
      <cc:Work
         rdf:about="">
        <dc:format>image/svg+xml</dc:format>
        <dc:type
           rdf:resource="http://purl.org/dc/dcmitype/StillImage" />
        <dc:title></dc:title>
      </cc:Work>
    </rdf:RDF>
  </metadata>
  <g
     inkscape:label="Icon"
     inkscape:groupmode="layer"
     id="layer1"
     transform="translate(0,-274.42223)">
    <path
       id="path335"
       style="color:#000000;font-style:normal;font-variant:normal;font-weight:normal;font-stretch:normal;font-size:medium;line-height:normal;font-family:sans-serif;font-variant-ligatures:normal;font-variant-position:normal;font-variant-caps:normal;font-variant-numeric:normal;font-variant-alternates:normal;font-variant-east-asian:normal;font-feature-settings:normal;font-variation-settings:normal;text-indent:0;text-align:start;text-decoration:none;text-decoration-line:none;text-decoration-style:solid;text-decoration-color:#000000;letter-spacing:normal;word-spacing:normal;text-transform:none;writing-mode:lr-tb;direction:ltr;text-orientation:mixed;dominant-baseline:auto;baseline-shift:baseline;text-anchor:start;white-space:normal;shape-padding:0;shape-margin:0;inline-size:0;clip-rule:nonzero;display:inline;overflow:visible;visibility:visible;opacity:1;isolation:auto;mix-blend-mode:normal;color-interpolation:sRGB;color-interpolation-filters:linearRGB;solid-color:#000000;solid-opacity:1;vector-effect:none;fill:#000000;fill-opacity:1;fill-rule:nonzero;stroke:none;stroke-width:0.529167;stroke-linecap:round;stroke-linejoin:round;stroke-miterlimit:4;stroke-dasharray:none;stroke-dashoffset:0;stroke-opacity:1;color-rendering:auto;image-rendering:auto;shape-rendering:auto;text-rendering:auto;enable-background:accumulate;stop-color:#000000;stop-opacity:1"
       d="m 3.9651897,279.38711 c -0.7285655,0 -1.31574,0.62172 -1.2729501,1.34902 9.985e-4,0.003 0.00166,0.005 0.00267,0.008 l 0.2450988,3.09915 c -0.00623,9.7e-4 -0.012649,2.9e-4 -0.01884,0.001 -0.2559101,0.0424 -0.4895983,0.14413 -0.7151411,0.24705 -0.002,10e-4 -0.00437,0.003 -0.00649,0.004 -0.730891,0.39361 -1.22939683,1.16664 -1.22939683,2.05224 0,0.23707 0.0393777,0.46123 0.10921973,0.67158 0.075145,0.25452 0.195585,0.49922 0.3647239,0.72165 0.084178,0.11071 0.1880922,0.19101 0.297758,0.26264 0.1684066,0.14877 0.356086,0.27746 0.5597596,0.37968 0.00962,0.78754 0,1.5313 0,2.3112 0,0.29463 0.246317,0.54286 0.5409061,0.54286 h 0.125474 v 0.66573 c 6.658e-4,0.18293 0.1486244,0.33159 0.3315672,0.33222 0.1838981,7.3e-4 0.3335311,-0.14832 0.3341635,-0.33222 v -0.66573 H 18.944217 v 0.66573 c 6.66e-4,0.1839 0.150266,0.33295 0.334164,0.33222 0.182942,-6.3e-4 0.330935,-0.14929 0.331566,-0.33222 v -0.66573 h 0.122876 c 0.294612,0 0.543506,-0.24823 0.543506,-0.54286 -0.0084,-0.78461 0,-1.52715 0,-2.31381 0.832553,-0.40422 1.285918,-1.16324 1.331308,-2.23538 -0.124599,-1.31499 -0.921641,-1.85243 -1.931451,-2.09511 -0.0045,-7.3e-4 -0.0092,-5.6e-4 -0.01365,-10e-4 l 0.220393,-3.10696 c 1.4e-5,-10e-4 1.4e-5,-0.004 0,-0.005 0.04279,-0.72729 -0.541788,-1.34901 -1.27035,-1.34901 z m 0,0.66639 H 18.612564 c 0.354957,0 0.62741,0.28928 0.60657,0.64362 l -0.224294,3.13947 c -0.594099,0.0554 -1.164923,0.491 -1.533651,0.82826 -2.0173,-0.76966 -4.126808,-0.88107 -6.173614,0.37642 -2.1774888,-1.29396 -4.2464666,-1.076 -6.1781607,-0.36666 -0.3656758,-0.45471 -1.0216702,-0.72776 -1.5024442,-0.83413 l -0.2483475,-3.14337 c -0.020837,-0.35434 0.2516128,-0.64362 0.6065705,-0.64362 z m 1.6539246,1.66303 c -0.084026,0.003 -0.1639228,0.037 -0.2236455,0.0962 -0.1303933,0.13006 -0.1303933,0.34128 0,0.47134 l 0.09687,0.0975 -0.09687,0.0969 c -0.1308261,0.13012 -0.1308261,0.34185 0,0.47199 0.1298375,0.12909 0.3395559,0.12909 0.4693934,0 l 0.098169,-0.0981 0.098169,0.0981 c 0.1298374,0.12909 0.3395559,0.12909 0.4693934,0 0.1308261,-0.13014 0.1308261,-0.34187 0,-0.47199 l -0.09687,-0.0969 0.09687,-0.0975 c 0.1303933,-0.13006 0.1303933,-0.34128 0,-0.47134 -0.065158,-0.0645 -0.1540734,-0.0994 -0.2457478,-0.0962 -0.084026,0.003 -0.1639229,0.037 -0.2236456,0.0962 l -0.098169,0.0981 -0.098169,-0.0981 c -0.065158,-0.0645 -0.1540734,-0.0994 -0.2457479,-0.0962 z m 5.3271427,0 c -0.08493,0.003 -0.165873,0.0365 -0.226244,0.0962 -0.130393,0.13006 -0.130393,0.34128 0,0.47134 l 0.09687,0.0975 -0.09687,0.0969 c -0.130826,0.13012 -0.130826,0.34185 0,0.47199 0.130134,0.13083 0.341859,0.13083 0.471993,0 l 0.09687,-0.0969 0.09687,0.0969 c 0.130134,0.13083 0.341859,0.13083 0.471993,0 0.130826,-0.13014 0.130826,-0.34187 0,-0.47199 l -0.09687,-0.0969 0.09687,-0.0975 c 0.130393,-0.13006 0.130393,-0.34128 0,-0.47134 -0.06516,-0.0645 -0.154074,-0.0994 -0.245747,-0.0962 -0.08493,0.003 -0.165875,0.0365 -0.226246,0.0962 l -0.09687,0.0969 -0.09687,-0.0969 c -0.06516,-0.0645 -0.154074,-0.0994 -0.245749,-0.0962 z m 5.324549,0 c -0.08403,0.003 -0.163924,0.037 -0.223646,0.0962 -0.130393,0.13006 -0.130393,0.34128 0,0.47134 l 0.09687,0.0975 -0.09687,0.0969 c -0.130825,0.13012 -0.130825,0.34185 0,0.47199 0.129837,0.12909 0.339556,0.12909 0.469394,0 l 0.09817,-0.0981 0.09817,0.0981 c 0.129837,0.12909 0.339555,0.12909 0.469392,0 0.130827,-0.13014 0.130827,-0.34187 0,-0.47199 l -0.09687,-0.0969 0.09687,-0.0975 c 0.130395,-0.13006 0.130395,-0.34128 0,-0.47134 -0.06516,-0.0645 -0.154072,-0.0994 -0.245747,-0.0962 -0.08403,0.003 -0.163923,0.037 -0.223645,0.0962 l -0.09817,0.0981 -0.09817,-0.0981 c -0.06516,-0.0645 -0.154074,-0.0994 -0.245748,-0.0962 z m 4.31498,5.43767 c -0.480584,0.63197 -1.334464,0.83521 -2.049202,0.48954 -0.165525,-0.0801 -0.364644,-0.0113 -0.444689,0.15473 -0.08011,0.16552 -0.01082,0.36465 0.154729,0.44469 0.435695,0.21072 0.909126,0.21667 1.362018,0.14759 l 0.0014,0.64817 H 17.61285 c -0.002,-0.79316 -0.0063,-1.6305 -0.0065,-2.40808 0.002,-0.4109 0.02973,-0.72099 0.08388,-0.96153 0.07448,-0.73371 1.136978,-1.32288 1.620046,-1.22054 1.606804,0.10795 2.168566,1.79531 1.275579,2.70543 z M 3.2155904,284.48542 c 0.7627309,0.005 1.3326396,0.36011 1.5967216,0.97 0.1015278,0.26852 0.1527786,0.64602 0.1527786,1.21964 v 0.008 c -9.986e-4,0.0147 -9.986e-4,0.0294 0,0.0442 v 2.31186 h -1.997192 l 0.00133,-0.66834 c 0.4477039,0.0649 0.9149402,0.063 1.3451121,-0.14498 0.165554,-0.08 0.2348431,-0.27916 0.1547325,-0.44468 -0.080044,-0.16556 -0.2791641,-0.23484 -0.4446881,-0.15473 -0.7147351,0.34568 -1.5686179,0.14307 -2.0492022,-0.4889 -0.4767131,-0.62689 -0.4201292,-1.50485 0.1079213,-2.10576 0.1106917,-0.12596 0.2342274,-0.22624 0.3640715,-0.31012 0.2269908,-0.13585 0.4868622,-0.22209 0.7684496,-0.23599 z m 11.2608616,0.20414 c 0.879148,-0.015 1.762402,0.18711 2.657071,0.5214 -0.148984,0.37023 -0.186006,0.814 -0.187903,1.15982 H 5.623648 c 0.014813,-0.39667 -0.050353,-0.82512 -0.1852928,-1.14357 1.8447962,-0.66425 3.6513502,-0.84734 5.6723618,0.43104 0.111012,0.0696 0.252497,0.0676 0.361472,-0.005 1.004734,-0.65858 2.002062,-0.94644 3.00424,-0.96348 z m -11.1776453,1.0207 c -0.182823,7e-4 -0.3308515,0.14874 -0.3315638,0.33156 -6.658e-4,0.18384 0.1477257,0.33345 0.3315638,0.33417 0.1848534,7.3e-4 0.3348892,-0.14932 0.3341668,-0.33417 -6.657e-4,-0.18384 -0.1503286,-0.33228 -0.3341668,-0.33156 z m 15.9775373,0 c -0.182824,7e-4 -0.330852,0.14874 -0.331564,0.33156 -6.66e-4,0.18384 0.147725,0.33345 0.331564,0.33417 0.184852,7.3e-4 0.334889,-0.14932 0.334167,-0.33417 -6.67e-4,-0.18384 -0.15033,-0.33228 -0.334167,-0.33156 z m -13.64748,1.32626 h 11.310921 l 0.0059,2.00238 H 5.628864 Z m 0.998596,0.67093 c -0.183076,3.6e-4 -0.3314972,0.14849 -0.332213,0.33156 -6.656e-4,0.1841 0.1481219,0.33381 0.332213,0.33417 0.1848534,7.3e-4 0.3348892,-0.14932 0.3341668,-0.33417 -6.658e-4,-0.18384 -0.1503286,-0.33228 -0.3341668,-0.33156 z m 2.9957881,0 c -0.1830761,3.6e-4 -0.3314973,0.14849 -0.3322132,0.33156 -6.655e-4,0.1841 0.1481218,0.33381 0.3322132,0.33417 0.1848538,7.3e-4 0.3348892,-0.14932 0.3341671,-0.33417 -6.656e-4,-0.18384 -0.1503285,-0.33228 -0.3341671,-0.33156 z m 3.3286539,0 c -0.182824,7e-4 -0.330851,0.14874 -0.331565,0.33156 -6.65e-4,0.18385 0.147726,0.33346 0.331565,0.33417 0.184853,7.3e-4 0.334889,-0.14932 0.334167,-0.33417 -6.66e-4,-0.18384 -0.150329,-0.33228 -0.334167,-0.33156 z m 2.995788,0 c -0.182822,7e-4 -0.330851,0.14874 -0.331563,0.33156 -6.67e-4,0.18385 0.147725,0.33346 0.331563,0.33417 0.184853,7.3e-4 0.334889,-0.14932 0.334167,-0.33417 -6.66e-4,-0.18384 -0.150329,-0.33228 -0.334167,-0.33156 z M 2.967892,289.70529 H 5.2973002 19.609862 v 0.66573 H 2.967892 Z"
       sodipodi:nodetypes="sccccccscscccsccccccccccscccccccsscscccccccsccccccccccccccccccccccccccccccccccccccccccccccccccccccccccccccccccccccccccccccssccsccsccccssssssssscccccscscsscscsssssssssssccccccccccc" />
  </g>
</svg>
