<svg width="64" height="64" xmlns="http://www.w3.org/2000/svg">

 <g>
  <title>background</title>
  <rect fill="none" id="canvas_background" height="402" width="582" y="-1" x="-1"/>
 </g>
 <g>
  <title>Layer 1</title>
  <g id="Chair-2">
   <path id="svg_1" d="m23.63,15.5a1.25,1.25 0 0 0 1.25,-1.25l0,0a1.25,1.25 0 0 0 -1.25,-1.25l0,0a1.25,1.25 0 1 0 0,2.5z"/>
   <path id="svg_2" d="m10,31.43l0,8.17a7.53,7.53 0 0 0 4.58,6.92l-1.76,6.54a3.14,3.14 0 0 0 6.06,1.62l2,-7.57l22.2,0l2,7.57a3.14,3.14 0 0 0 6.06,-1.62l-1.74,-6.54a7.53,7.53 0 0 0 4.6,-6.92l0,-8.17a8.75,8.75 0 0 0 -6.55,-8.43l1.28,-9.18a5.81,5.81 0 0 0 -1.26,-4.82a6.11,6.11 0 0 0 -4.64,-2l-21.66,0a6.11,6.11 0 0 0 -4.64,2a5.81,5.81 0 0 0 -1.26,4.81l1.28,9.19a8.75,8.75 0 0 0 -6.55,8.43zm7,22.73a1.13,1.13 0 0 1 -2.19,-0.58l1.72,-6.58a8.12,8.12 0 0 0 1,0.07l1.32,0l-1.85,7.09zm34.12,-7.67a1.13,1.13 0 0 1 -2.19,0.58l-1.89,-7l1.32,0a8.12,8.12 0 0 0 1,-0.07l1.76,6.49zm-32,-40.06a3.89,3.89 0 0 1 -1.12,3.87a4.13,4.13 0 0 1 3.17,-1.3l21.66,0a4.13,4.13 0 0 1 3.17,1.3a3.89,3.89 0 0 1 0.79,3.22l-1.32,9.18l-0.22,0a2.66,2.66 0 0 0 -2.66,2.65l0,6.57a4.48,4.48 0 0 0 -2.48,-0.75l-16.22,0a4.48,4.48 0 0 0 -2.48,0.75l0,-6.58a2.66,2.66 0 0 0 -2.66,-2.65l-0.23,0l0.6,-16.26zm4.16,22.13a2.48,2.48 0 0 1 2.48,-2.49l14.35,0a2.48,2.48 0 0 1 2.48,2.49l0,2.49l-21.18,0l1.87,-2.49zm-2.66,-11a0.66,0.66 0 0 1 0.66,0.65l0,12.8l-0.58,0a1,1 0 0 0 0,2l24.47,0a1,1 0 0 0 0,-2l-0.58,0l0,-5.67a0.66,0.66 0 0 1 0.66,-0.65a6.75,6.75 0 0 1 6.75,6.74l0,8.17a5.51,5.51 0 0 1 -5.51,5.51l-28.96,0a5.51,5.51 0 0 1 -5.53,-5.51l0,-8.17a6.75,6.75 0 0 1 6.75,-6.74l1.87,-7.13z"/>
   <path id="svg_3" d="m32,15.5a1.25,1.25 0 0 0 1.25,-1.25l0,0a1.25,1.25 0 0 0 -1.25,-1.25l0,0a1.25,1.25 0 0 0 0,2.5z"/>
   <path id="svg_4" d="m40.37,15.5a1.25,1.25 0 0 0 1.25,-1.25l0,0a1.25,1.25 0 0 0 -1.25,-1.25l0,0a1.25,1.25 0 0 0 0,2.5z"/>
   <path id="svg_5" d="m23.63,21.52a1.25,1.25 0 0 0 1.25,-1.25l0,0a1.25,1.25 0 0 0 -1.25,-1.27l0,0a1.25,1.25 0 0 0 0,2.5l0,0.02z"/>
   <path id="svg_6" d="m32,21.52a1.25,1.25 0 0 0 1.25,-1.25l0,0a1.25,1.25 0 0 0 -1.25,-1.27l0,0a1.25,1.25 0 0 0 0,2.5l0,0.02z"/>
   <path id="svg_7" d="m40.37,21.52a1.25,1.25 0 0 0 1.25,-1.25l0,0a1.25,1.25 0 0 0 -1.25,-1.27l0,0a1.25,1.25 0 0 0 0,2.5l0,0.02z"/>
   <path id="svg_8" d="m27.82,27.55l0,0a1.25,1.25 0 0 0 1.25,-1.25l0,0a1.25,1.25 0 1 0 -1.25,1.25z"/>
   <circle id="svg_9" r="1.25" cy="26.3" cx="36.18"/>
  </g>
 </g>
</svg>