<svg width="128" height="128" xmlns="http://www.w3.org/2000/svg">

 <g>
  <title>background</title>
  <rect fill="none" id="canvas_background" height="402" width="582" y="-1" x="-1"/>
 </g>
 <g>
  <title>Layer 1</title>
  <circle id="svg_1" r="45" fill="#288CA3" cy="72" cx="64"/>
  <g id="svg_2">
   <path id="svg_3" fill="#FFFFFF" d="m31,72c0,-22.8 17,-41.7 39,-44.6c-2,-0.3 -4,-0.4 -6,-0.4c-24.9,0 -45,20.1 -45,45s20.1,45 45,45c2,0 4,-0.1 6,-0.4c-22,-2.9 -39,-21.8 -39,-44.6z"/>
  </g>
  <circle id="svg_4" r="12.5" fill="#F0EF98" cy="16.5" cx="111.5"/>
  <path id="svg_5" fill="#62355C" d="m13.9,83.2c-0.7,-0.5 -1.6,-0.3 -2.1,0.3c-4.1,5.7 -5.3,10.7 -3.5,14.5c2.1,4.5 8.1,6.6 16.6,6.6c1.8,0 3.8,-0.1 5.8,-0.3c8.5,8.7 20.3,14.2 33.4,14.2c25.6,0 46.5,-20.9 46.5,-46.5c0,-1.6 -0.1,-3.2 -0.3,-4.8c8.2,-8.1 12,-15.7 9.5,-21.2c-1.7,-3.7 -6.2,-6 -13,-6.6c-0.8,-0.1 -1.5,0.5 -1.6,1.4s0.5,1.5 1.4,1.6c3.9,0.3 8.9,1.4 10.5,4.8c1.7,3.7 -0.9,9.5 -7.3,16.2c-4,-21.6 -23,-38 -45.7,-38c-25.6,0 -46.5,20.9 -46.5,46.5c0,11.2 4,21.5 10.6,29.5c-9.2,0.6 -15.4,-1.1 -17.1,-4.8c-1.6,-3.5 0.9,-8.1 3.2,-11.4c0.4,-0.6 0.3,-1.5 -0.4,-2zm50.1,32.3c-11.4,0 -21.8,-4.4 -29.6,-11.6c11.1,-1.6 24.6,-5.8 38.7,-12.4c14.1,-6.6 26,-14.3 34.4,-21.7c0,0.7 0.1,1.5 0.1,2.2c-0.1,24 -19.6,43.5 -43.6,43.5zm0,-87c22,0 40.2,16.4 43.1,37.6c-7.8,7.4 -19.8,15.5 -35.3,22.7c-14.2,6.6 -28.4,11 -40,12.4c-7,-7.7 -11.3,-18 -11.3,-29.2c0,-24 19.5,-43.5 43.5,-43.5z"/>
  <path id="svg_6" fill="#62355C" d="m111.5,2.5c-7.7,0 -14,6.3 -14,14s6.3,14 14,14s14,-6.3 14,-14s-6.3,-14 -14,-14zm0,25c-6.1,0 -11,-4.9 -11,-11s4.9,-11 11,-11s11,4.9 11,11s-4.9,11 -11,11z"/>
  <defs>
   <pattern y="0" x="0" height="6" width="6" patternUnits="userSpaceOnUse" id="svg_69"/>
   <pattern y="0" x="0" height="6" width="6" patternUnits="userSpaceOnUse" id="svg_68"/>
   <pattern y="0" x="0" height="6" width="6" patternUnits="userSpaceOnUse" id="svg_67"/>
   <pattern y="0" x="0" height="6" width="6" patternUnits="userSpaceOnUse" id="svg_66"/>
   <pattern y="0" x="0" height="6" width="6" patternUnits="userSpaceOnUse" id="svg_65"/>
   <pattern y="0" x="0" height="6" width="6" patternUnits="userSpaceOnUse" id="svg_64"/>
   <pattern y="0" x="0" height="6" width="6" patternUnits="userSpaceOnUse" id="svg_63"/>
   <pattern y="0" x="0" height="6" width="6" patternUnits="userSpaceOnUse" id="svg_62"/>
   <pattern y="0" x="0" height="6" width="6" patternUnits="userSpaceOnUse" id="svg_61"/>
   <pattern y="0" x="0" height="6" width="6" patternUnits="userSpaceOnUse" id="svg_60"/>
   <pattern y="0" x="0" height="6" width="6" patternUnits="userSpaceOnUse" id="svg_59"/>
   <pattern y="0" x="0" height="6" width="6" patternUnits="userSpaceOnUse" id="svg_58"/>
   <pattern y="0" x="0" height="6" width="6" patternUnits="userSpaceOnUse" id="svg_57"/>
   <pattern y="0" x="0" height="6" width="6" patternUnits="userSpaceOnUse" id="svg_56"/>
   <pattern y="0" x="0" height="6" width="6" patternUnits="userSpaceOnUse" id="svg_55"/>
   <pattern y="0" x="0" height="6" width="6" patternUnits="userSpaceOnUse" id="svg_54"/>
   <pattern y="0" x="0" height="6" width="6" patternUnits="userSpaceOnUse" id="svg_53"/>
   <pattern y="0" x="0" height="6" width="6" patternUnits="userSpaceOnUse" id="svg_52"/>
   <pattern y="0" x="0" height="6" width="6" patternUnits="userSpaceOnUse" id="svg_51"/>
  </defs>
  <metadata transform="matrix(16.354862814552916,0,0,16.354862814552916,0,0) " id="svg_50">image/svg+xml</metadata>
  <g stroke="null" transform="rotate(-43 21.497167587280284,27.756637573242195) " id="svg_71">
   <g stroke="null" transform="matrix(1.5816039825870858,0,0,1.5816039825870858,-7.232946617640852,102.30534380572027) " id="svg_40">
    <g stroke="null" display="inline" stroke-width="0.782218" transform="matrix(1.2784157,0,0,1.2784157,39.460221,-44.148493) " id="svg_41">
     <path stroke="null" fill="#ebc8b6" stroke-width="0.782218" stroke-linecap="round" stroke-linejoin="round" d="m-21.949294,3.55183a0.26461,0.26461 0 0 0 -0.26355,0.26355l0,1.58802a0.26461,0.26461 0 0 0 0.26355,0.26562l1.05833,0a0.26461,0.26461 0 0 0 0.22066,-0.11886l1.05885,-1.58802a0.26461,0.26461 0 0 0 -0.22066,-0.41031l-2.11718,0zm8.46667,0a0.26461,0.26461 0 0 0 -0.22066,0.41031l1.05885,1.58802a0.26461,0.26461 0 0 0 0.22066,0.11886l1.05833,0a0.26461,0.26461 0 0 0 0.26355,-0.26562l0,-1.58802a0.26461,0.26461 0 0 0 -0.26355,-0.26355l-2.11718,0z" id="svg_49"/>
     <path stroke="null" fill="#dc1c4b" stroke-width="0.782218" stroke-linecap="round" stroke-linejoin="round" id="svg_48" d="m-16.658354,-10.32303c-0.90272,0 -1.80447,0.13688 -2.67578,0.41015l-1.55469,0.48633c-1.61483,0.50646 -2.6151,2.12606 -2.3457,3.79688l0.49219,3.04687l-0.002,2.64258a0.26461,0.26461 0 0 0 0.01172,0.0762l0.63281,2.14453a0.26461,0.26461 0 0 0 0.26562,0.18945l4.73829,-0.20507a0.26461,0.26461 0 0 0 0.002,0l4.24804,-0.22461a0.26461,0.26461 0 0 0 0.09766,-0.0234l2.61524,-1.22656a0.26461,0.26461 0 0 0 0.14648,-0.29102l-0.38672,-1.91601l-0.19531,-1.1875l0.48828,-3.02539c0.2694,-1.67082 -0.73087,-3.29042 -2.3457,-3.79688l-1.55469,-0.48633c-0.87131,-0.27327 -1.77501,-0.41015 -2.67773,-0.41015l-0.00001,-0.00007z"/>
     <path stroke="null" fill="#d1b3a2" stroke-width="0.782218" stroke-linecap="round" stroke-linejoin="round" d="m-21.949294,3.55183a0.26461,0.26461 0 0 0 -0.26355,0.26355l0,0.7953l2.16886,0l0.43253,-0.64854a0.26461,0.26461 0 0 0 -0.22065,-0.41031l-2.11719,0zm8.46667,0a0.26461,0.26461 0 0 0 -0.22066,0.41031l0.43253,0.64854l2.16886,0l0,-0.7953a0.26461,0.26461 0 0 0 -0.26355,-0.26355l-2.11718,0z" id="svg_47"/>
     <path stroke="null" fill="#b01d47" stroke-width="0.782218" stroke-linecap="round" stroke-linejoin="round" id="svg_46" d="m-22.273824,-2.87568c-0.89876,0 -1.6958,0.4507 -2.17351,1.13843c-0.19012,0.27371 -0.2552,0.6174 -0.27543,0.96118c-0.02024,0.34378 0.01103,0.68654 0.07441,0.96067l0.67541,2.91816c0.13212,0.5713 0.64404,0.97876 1.23041,0.97876l12.17032,0c0.58638,0 1.0983,-0.40746 1.23042,-0.97876l0.67541,-2.91816c0.06339,-0.27413 0.09464,-0.61689 0.07441,-0.96067c-0.02024,-0.34378 -0.0853,-0.68902 -0.27544,-0.96273c-0.47771,-0.68772 -1.27475,-1.13688 -2.17351,-1.13688c-1.45811,0 -2.64686,1.18824 -2.64686,2.64635c0,0.18916 0.02063,0.37375 0.05839,0.5519c-0.99266,-0.18536 -1.99052,-0.28239 -2.99207,-0.28628c-1.01655,-0.004 -2.03739,0.0876 -3.06234,0.27905c0.03677,-0.17591 0.05684,-0.35808 0.05684,-0.54467c-0.00001,-1.45811 -1.18876,-2.64635 -2.64687,-2.64635l0.00001,0z"/>
     <path stroke="null" fill="#b01d47" stroke-width="0.782218" stroke-linecap="round" stroke-linejoin="round" d="m-10.568564,-2.60441l0.48835,-3.02514c0.17383,-1.15922 -0.24177,-2.32677 -1.06767,-3.0608c-0.39217,-0.36939 -0.84986,-0.56985 -1.27796,-0.73642c-0.56557,-0.17552 -1.16535,-0.36714 -1.71876,-0.53588c-0.9467,-0.30897 -1.92299,-0.39605 -2.8873,-0.37554c-0.54301,-0.0153 -1.53965,0.1905 -2.30204,0.4252l-1.55495,0.48628c-1.5246,0.47816 -2.50047,1.94868 -2.37815,3.51761c0.10649,-1.36077 1.02662,-2.56456 2.37815,-2.98845l1.55495,-0.48627c0.87131,-0.27327 1.77308,-0.40979 2.6758,-0.40979c0.90272,0 1.80605,0.13652 2.67736,0.40979l1.55494,0.48627c0.41363,0.12973 0.7866,0.33269 1.10846,0.59067c0.58579,0.7311 0.8663,1.69536 0.70797,2.67735l-0.48834,3.02514l0.52919,-0.00002z" id="svg_45"/>
     <path stroke="null" fill="#801231" stroke-width="0.782218" stroke-linecap="round" stroke-linejoin="round" d="m-22.273824,-2.87568c-0.89876,0 -1.6958,0.4507 -2.17351,1.13843c-0.19012,0.27371 -0.2552,0.6174 -0.27543,0.96118c-0.0096,0.16201 -0.0072,0.32353 0.0041,0.47801c0.09793,-1.23679 1.46713,-2.02996 2.44481,-2.04846c1.36875,0 2.49988,1.04732 2.63343,2.38177c0.0088,-0.087 0.01344,-0.17533 0.01344,-0.26458c0,-1.45812 -1.18875,-2.64635 -2.64686,-2.64635l0.00001,0l0.00001,0zm13.68183,2.09961c-0.02024,-0.34378 -0.0853,-0.68902 -0.27544,-0.96273c-0.47771,-0.68772 -1.27475,-1.13688 -2.17351,-1.13688l0.00002,0l0.00001,0c-1.45811,0 -2.64686,1.18823 -2.64687,2.64635c0,0.0889 0.0047,0.17681 0.01344,0.26355c0.13403,-1.33397 1.26504,-2.38074 2.63343,-2.38074c0.89876,0 1.6958,0.44917 2.17352,1.13689l0.2754,0.43356zm-11.08977,1.09103c-0.0004,0.18458 -0.02045,0.36488 -0.05684,0.53898c2.0978,-0.38152 4.2112,-0.35037 6.16493,0.008c-0.03693,-0.17423 -0.05699,-0.35471 -0.05788,-0.5395c-2.05473,-0.37012 -4.13928,-0.35059 -6.05021,-0.007l0,-0.00048z" id="svg_44"/>
     <path stroke="null" fill="#801231" stroke-width="0.782218" stroke-linecap="round" stroke-linejoin="round" d="m-11.304984,-2.86228c1.18861,0.24562 2.11003,0.9356 2.18385,2.08618c-0.01713,1.30764 -0.45005,2.58359 -0.74983,3.87883c-0.13212,0.5713 -0.64404,0.97876 -1.23042,0.97876l0.52917,0c0.58638,0 1.0983,-0.40746 1.23042,-0.97876c0.17958,-1.00263 0.81512,-2.65179 0.74982,-3.87883c-0.07677,-1.26467 -1.44381,-2.08065 -2.44895,-2.09961l-0.26406,0.01343z" id="svg_43"/>
     <path stroke="null" fill="#000000" stroke-width="0.782218" stroke-linecap="round" stroke-linejoin="round" d="m-16.658144,-10.32277c-0.90272,0 -1.80449,0.13652 -2.6758,0.40979l-1.55495,0.48628c-1.61483,0.50646 -2.615,2.12636 -2.34559,3.79718l0.45113,2.80345c-0.68606,0.13453 -1.27894,0.53451 -1.66398,1.08882c-0.19012,0.27371 -0.2552,0.6174 -0.27543,0.96118c-0.02024,0.34378 0.01103,0.68654 0.07441,0.96067l0.67541,2.91816c0.13211,0.5713 0.64404,0.97876 1.23041,0.97876l0.52969,0l0,1.32188c-0.00053,0.14612 0.11743,0.26503 0.26355,0.26562l1.05833,0c0.08884,-0.00007 0.17172,-0.0447 0.22066,-0.11886l0.97927,-1.46864l6.06733,0l0.97927,1.46864c0.04894,0.0742 0.13181,0.11879 0.22065,0.11886l1.05834,0c0.14612,-0.00059 0.2641,-0.1195 0.26355,-0.26562l0,-1.32188l0.52968,0c0.58638,0 1.0983,-0.40746 1.23042,-0.97876l0.67541,-2.91816c0.06339,-0.27413 0.09464,-0.61689 0.07441,-0.96067c-0.02024,-0.34378 -0.0853,-0.68902 -0.27544,-0.96273c-0.38542,-0.55486 -0.97911,-0.95415 -1.66605,-1.08779l0.45321,-2.80293c0.2694,-1.67082 -0.73076,-3.29072 -2.3456,-3.79718l-1.55494,-0.48628c-0.87131,-0.27327 -1.77464,-0.40979 -2.67736,-0.40979l0.00001,0zm0.00053,0.52813c0.84938,0 1.69892,0.1284 2.51871,0.38551l1.55288,0.48834c1.3677,0.42895 2.21048,1.79193 1.9823,3.20704l-0.45681,2.83858c-1.44909,0.0107 -2.62723,1.19431 -2.62723,2.64584c0,0.18916 0.02063,0.37375 0.05839,0.5519c-2.06033,-0.37191 -4.15156,-0.3556 -6.05442,-0.007c0.03677,-0.17591 0.05684,-0.35808 0.05684,-0.54467c0,-1.45153 -1.17814,-2.63517 -2.62722,-2.64583l-0.45683,-2.83859c-0.22817,-1.41511 0.61461,-2.77809 1.98231,-3.20704l1.55288,-0.48834c0.81979,-0.25711 1.66881,-0.38551 2.51819,-0.38551l0.00001,-0.00023zm-0.00053,0.51831c-0.71959,0 -1.43865,0.10825 -2.1332,0.32608l-1.22835,0.38706c-1.30309,0.4087 -2.11185,1.71615 -1.89446,3.06441l0.19534,1.21285c0.0235,0.14454 0.15991,0.24251 0.30437,0.21859c0.14404,-0.0233 0.24206,-0.15874 0.21911,-0.30282l-0.19534,-1.21285c-0.17616,-1.09257 0.47315,-2.14515 1.52911,-2.47634l1.22835,-0.38499c1.28607,-0.40334 2.66511,-0.40334 3.95118,0l1.22886,0.38499c1.05597,0.33119 1.70527,1.38377 1.52911,2.47634l-0.19534,1.21285c-0.02295,0.14408 0.07507,0.27956 0.21911,0.30282c0.14447,0.0239 0.28089,-0.074 0.30437,-0.21859l0.19534,-1.21285c0.21739,-1.34826 -0.59137,-2.65571 -1.89446,-3.06441l-1.22835,-0.38706c-0.69455,-0.21783 -1.41515,-0.32608 -2.13475,-0.32608zm-3.01997,2.13476c-0.07024,0.00015 -0.13754,0.0282 -0.18707,0.078c-0.10261,0.1032 -0.10261,0.2699 0,0.3731l0.1881,0.18759l-0.1881,0.18758c-0.10261,0.10321 -0.10261,0.26991 0,0.37311c0.10338,0.10364 0.27128,0.10364 0.37466,0l0.18758,-0.18759l0.18759,0.18759c0.1032,0.10261 0.2699,0.10261 0.3731,0c0.10261,-0.1032 0.10261,-0.2699 0,-0.37311l-0.18758,-0.18758l0.18758,-0.18759c0.10261,-0.1032 0.10261,-0.2699 0,-0.3731c-0.04965,-0.0499 -0.11716,-0.078 -0.18758,-0.078c-0.0697,0.00053 -0.13638,0.0286 -0.18552,0.078l-0.18759,0.18759l-0.18758,-0.18759c-0.04965,-0.0499 -0.11717,-0.078 -0.18759,-0.078zm5.29322,0c-0.07042,0.00001 -0.13794,0.0281 -0.18759,0.078c-0.10261,0.1032 -0.10261,0.2699 0,0.3731l0.18759,0.18759l-0.18759,0.18758c-0.10261,0.10321 -0.10261,0.26991 0,0.37311c0.10321,0.10261 0.2699,0.10261 0.37311,0l0.18758,-0.18759l0.18759,0.18759c0.10338,0.10364 0.27127,0.10364 0.37465,0c0.10261,-0.1032 0.10261,-0.2699 0,-0.37311l-0.1881,-0.18758l0.1881,-0.18759c0.10227,-0.10314 0.10227,-0.26944 0,-0.37258c-0.10338,-0.10365 -0.27127,-0.10365 -0.37465,0l-0.18707,0.18707l-0.1881,-0.18759c-0.04915,-0.0494 -0.11582,-0.0775 -0.18552,-0.078zm-2.64635,1.58802c-0.07042,0.00001 -0.13793,0.0281 -0.18759,0.078c-0.10261,0.1032 -0.10261,0.2699 0,0.3731l0.18759,0.18759l-0.18759,0.18758c-0.10261,0.1032 -0.10261,0.2699 0,0.37311c0.10344,0.10399 0.27174,0.10399 0.37517,0l0.18656,-0.18656l0.18603,0.18656c0.10344,0.10399 0.27173,0.10399 0.37517,0c0.10261,-0.10321 0.10261,-0.26991 0,-0.37311l-0.18758,-0.18758l0.18758,-0.18759c0.10261,-0.1032 0.10261,-0.2699 0,-0.3731c-0.04965,-0.0499 -0.11716,-0.078 -0.18758,-0.078c-0.07042,0.00001 -0.13794,0.0281 -0.18759,0.078l-0.18603,0.18655l-0.18656,-0.18655c-0.04965,-0.0499 -0.11716,-0.078 -0.18758,-0.078zm-2.11719,2.11718c-0.0702,-0.0004 -0.13767,0.0271 -0.18758,0.0765c-0.10365,0.10338 -0.10365,0.27127 0,0.37465l0.18707,0.18656l-0.18707,0.18655c-0.10399,0.10344 -0.10399,0.27173 0,0.37517c0.10344,0.10399 0.27173,0.10399 0.37517,0l0.18707,-0.18707l0.18758,0.18707c0.10321,0.10261 0.26991,0.10261 0.37311,0c0.10399,-0.10344 0.10399,-0.27173 0,-0.37517l-0.18655,-0.18655l0.18655,-0.18656c0.10364,-0.10338 0.10364,-0.27127 0,-0.37465c-0.04991,-0.0494 -0.11739,-0.0769 -0.18759,-0.0765c-0.06948,0.00014 -0.13612,0.0276 -0.18552,0.0765l-0.18758,0.18707l-0.18707,-0.18707c-0.04991,-0.0494 -0.11739,-0.0769 -0.18759,-0.0765zm4.23437,0c-0.0702,-0.0004 -0.13768,0.0271 -0.18758,0.0765c-0.10365,0.10338 -0.10365,0.27127 0,0.37465l0.18655,0.18656l-0.18655,0.18655c-0.10399,0.10344 -0.10399,0.27173 0,0.37517c0.1032,0.10261 0.2699,0.10261 0.3731,0l0.18758,-0.18707l0.18707,0.18707c0.10344,0.10399 0.27174,0.10399 0.37518,0c0.10399,-0.10344 0.10399,-0.27173 0,-0.37517l-0.18707,-0.18655l0.18707,-0.18656c0.10364,-0.10338 0.10364,-0.27127 0,-0.37465c-0.04991,-0.0494 -0.11739,-0.0769 -0.18759,-0.0765c-0.0702,-0.0004 -0.13768,0.0271 -0.18759,0.0765l-0.18706,0.18707l-0.18759,-0.18707c-0.0494,-0.0489 -0.11604,-0.0763 -0.18552,-0.0765zm-7.35976,1.08985c1.17213,0 2.11718,0.94506 2.11719,2.11719c0,0.2333 -0.03848,0.45528 -0.10801,0.66404c-0.17398,0.0389 -0.34826,0.0804 -0.52245,0.12506c0.06269,-0.4187 0.0402,-0.86785 -0.09198,-1.26969c-0.18119,-0.55081 -0.63547,-1.02856 -1.31619,-1.03095c-0.49193,0 -0.9343,0.22842 -1.22267,0.58395c-0.16084,0.19832 -0.21216,0.44084 -0.23254,0.67747c-0.02037,0.23662 -0.0028,0.47055 0.03514,0.66043l0.46457,2.32389c0.02883,0.14279 0.16765,0.23542 0.31057,0.20722c0.14364,-0.0279 0.2374,-0.16699 0.20929,-0.31057l-0.46508,-2.32441c-0.02677,-0.13391 -0.04276,-0.33317 -0.02739,-0.5116c0.01537,-0.17844 0.0699,-0.3327 0.11523,-0.3886c0.19146,-0.23605 0.48209,-0.38802 0.81081,-0.38861c0.4551,0.002 0.67825,0.25425 0.81442,0.66818c0.12214,0.37127 0.1212,0.86085 0.02376,1.26038c-0.13547,0.0397 -0.27111,0.0808 -0.4067,0.12403c-0.13845,0.0451 -0.21443,0.1936 -0.17001,0.33228c0.04445,0.13907 0.19315,0.21585 0.33228,0.17156c0.1764,-0.0563 0.3526,-0.10909 0.52865,-0.15916c0.0038,-0.00095 0.0076,-0.002 0.01137,-0.003c0.35072,-0.0995 0.70068,-0.18679 1.05006,-0.262c0.0069,-0.001 0.01384,-0.002 0.02067,-0.004c2.79515,-0.59796 5.54905,-0.42565 8.28374,0.4284c0.13957,0.0438 0.28818,-0.034 0.33176,-0.17363c0.04278,-0.13909 -0.03479,-0.28662 -0.17363,-0.33021c-0.13441,-0.042 -0.26898,-0.0822 -0.4036,-0.12093c-0.0982,-0.4001 -0.09972,-0.89123 0.02274,-1.26349c0.13598,-0.41334 0.35857,-0.66585 0.81236,-0.66817c0.32951,0 0.62104,0.15209 0.81287,0.3886c0.04534,0.0559 0.09986,0.21017 0.11524,0.38861c0.01537,0.17843 -0.00061,0.3777 -0.02739,0.5116l-0.46509,2.3244c-0.0282,0.14292 0.06443,0.28175 0.20722,0.31058c0.14363,0.0295 0.28385,-0.0635 0.31264,-0.20722l0.46457,-2.32389c0.03797,-0.18989 0.05552,-0.42381 0.03514,-0.66043c-0.02038,-0.23663 -0.0717,-0.47917 -0.23254,-0.67748c-0.28836,-0.35553 -0.73074,-0.58394 -1.22266,-0.58394c-0.68073,0.002 -1.13501,0.48014 -1.3162,1.03095c-0.13279,0.40366 -0.15471,0.85505 -0.09095,1.27537c-0.17367,-0.044 -0.34742,-0.0854 -0.52142,-0.12402c-0.07094,-0.2107 -0.11007,-0.43499 -0.11007,-0.67076c0.00001,-1.17213 0.94505,-2.11719 2.11718,-2.11719c0.72249,0 1.35548,0.35952 1.73788,0.91003c0.09467,0.13629 0.16703,0.40358 0.18397,0.69143c0.01694,0.28785 -0.01276,0.59557 -0.06253,0.8108l-0.67593,2.91765c-0.07727,0.33414 -0.37172,0.56844 -0.71468,0.56844l-12.17032,0c-0.34296,0 -0.63741,-0.2343 -0.71468,-0.56844l-0.67593,-2.91765c-0.04977,-0.21523 -0.07947,-0.52295 -0.06253,-0.8108c0.01693,-0.28785 0.0893,-0.55514 0.18397,-0.69143c0.3824,-0.55052 1.01538,-0.91003 1.73787,-0.91003l0.00001,-0.00024zm0.59015,6.42804l1.35547,0l-0.70538,1.05833l-0.65009,0l0,-1.05833zm8.69507,0l1.35754,0l0,1.05833l-0.65215,0l-0.70539,-1.05833z" id="svg_42"/>
    </g>
   </g>
  </g>
 </g>
</svg>