<?xml version="1.0" encoding="utf-8"?>
<!-- Generator: Adobe Illustrator 24.1.2, SVG Export Plug-In . SVG Version: 6.00 Build 0)  -->
<svg version="1.1"
	 id="svg831" xmlns:cc="http://creativecommons.org/ns#" xmlns:dc="http://purl.org/dc/elements/1.1/" xmlns:inkscape="http://www.inkscape.org/namespaces/inkscape" xmlns:rdf="http://www.w3.org/1999/02/22-rdf-syntax-ns#" xmlns:sodipodi="http://sodipodi.sourceforge.net/DTD/sodipodi-0.dtd" xmlns:svg="http://www.w3.org/2000/svg"
	 xmlns="http://www.w3.org/2000/svg" xmlns:xlink="http://www.w3.org/1999/xlink" x="0px" y="0px" viewBox="0 0 64 64"
	 style="enable-background:new 0 0 64 64;" xml:space="preserve">
<style type="text/css">
	.st0{font-family:'ArialMT';}
	.st1{font-size:15.14px;}
</style>
<sodipodi:namedview  bordercolor="#666666" borderopacity="1.0" id="base" inkscape:bbox-nodes="true" inkscape:current-layer="layer1" inkscape:cx="42.666667" inkscape:cy="42.666667" inkscape:document-rotation="0" inkscape:document-units="pt" inkscape:object-paths="true" inkscape:pagecheckerboard="true" inkscape:pageopacity="0.0" inkscape:pageshadow="2" inkscape:showpageshadow="false" inkscape:snap-bbox="true" inkscape:snap-global="true" inkscape:snap-intersection-paths="true" inkscape:snap-midpoints="true" inkscape:snap-nodes="false" inkscape:snap-smooth-nodes="true" inkscape:window-height="705" inkscape:window-maximized="1" inkscape:window-width="1366" inkscape:window-x="-8" inkscape:window-y="-8" inkscape:zoom="6.2578125" pagecolor="#ffffff" showgrid="false" showguides="true" units="pt">
	<inkscape:grid  id="grid1378" type="xygrid"></inkscape:grid>
	<sodipodi:guide  id="guide1380" inkscape:locked="false" orientation="78.000048,0" position="0.97013831,21.607643">
		</sodipodi:guide>
	<sodipodi:guide  id="guide1382" inkscape:locked="false" orientation="0,78.000005" position="0.97013831,0.97013129">
		</sodipodi:guide>
	<sodipodi:guide  id="guide1384" inkscape:locked="false" orientation="-78.000048,0" position="21.607639,0.97013129">
		</sodipodi:guide>
	<sodipodi:guide  id="guide1386" inkscape:locked="false" orientation="0,-78.000005" position="21.607639,21.607643">
		</sodipodi:guide>
</sodipodi:namedview>
<g id="layer1" transform="translate(0,-274.42223)" inkscape:groupmode="layer" inkscape:label="Icon">
	<path id="path417" sodipodi:nodetypes="ccccccccccccssssccssssccccccccccccccccccccccccccccccccccccccccccccccccc" d="M57.4,280
		c-0.1-0.4-0.5-0.7-0.9-0.7h-49c-0.4,0-0.8,0.3-0.9,0.7l-3.8,12.4c0,10.1,0,20.2,0,30.3l0,0c0,1,0.9,1.9,1.9,1.9h2.9
		c1,0,1.9-0.9,1.9-1.9v-16.6l3.8-4.3v6.8c0,1,0.9,1.9,1.9,1.9H18c1,0,1.9-0.9,1.9-1.9v-9.4h24.5v9.4c0,1,0.9,1.9,1.9,1.9H49
		c1,0,1.9-0.9,1.9-1.9V302l3.7,4.1v16.7c0,1,0.9,1.9,1.9,1.9h2.9c1,0,1.9-0.9,1.9-1.9c0-10.1-0.1-20.1,0-30.3L57.4,280z M8.2,281.3
		h47.7l3.2,10.4H5L8.2,281.3z M4.6,293.5h54.7v3.8H4.6V293.5z M4.6,322.8v-23.6h2.8c0,7.9,0,19.7,0.1,23.6H4.6z M9.4,299.2H13
		l-3.6,4.1V299.2z M15.5,299.2h2.4v9.4H15v-8.9L15.5,299.2z M46.2,299.2h2.2l0.7,0.7v8.7h-2.8L46.2,299.2z M50.9,299.2h3.7v4.1
		L50.9,299.2L50.9,299.2z M56.5,299.2h2.8l0.1,23.6h-2.9C56.5,314.9,56.5,307,56.5,299.2z"/>
</g>
<text id="svg_24" transform="matrix(1.2344 0 0 1 7.5273 62.3477)" class="st0 st1">Столы</text>
</svg>
