<?xml version="1.0" encoding="utf-8"?>
<!-- Generator: Adobe Illustrator 24.1.2, SVG Export Plug-In . SVG Version: 6.00 Build 0)  -->
<svg version="1.1" id="Layer_1" xmlns="http://www.w3.org/2000/svg" xmlns:xlink="http://www.w3.org/1999/xlink" x="0px" y="0px"
	 viewBox="0 0 512 636" style="enable-background:new 0 0 512 636;" xml:space="preserve">
<style type="text/css">
	.st0{font-family:'ArialMT';}
	.st1{font-size:111.362px;}
</style>
<g>
	<g>
		<g>
			<path d="M433.2,462.2c-37.5,0-75.1,0-112.6,0c-62.3,0-124.6,0-186.9,0c-18,0-35.9,0-53.9,0c2.5,2.5,5,5,7.5,7.5c0-32,0-64,0-96
				c0-64,0-128,0-192c0-47.9,0-95.8,0-143.6c0-4.1,0-8.1,0-12.2c-2.5,2.5-5,5-7.5,7.5c37.5,0,75.1,0,112.6,0c62.3,0,124.6,0,186.9,0
				c18,0,35.9,0,53.9,0c-2.5-2.5-5-5-7.5-7.5c0,32,0,64,0,96c0,64,0,128,0,192c0,47.9,0,95.8,0,143.6c0,4.1,0,8.1,0,12.2
				c0,9.7,15,9.7,15,0c0-32,0-64,0-96c0-64,0-128,0-192c0-47.9,0-95.8,0-143.6c0-4.1,0-8.1,0-12.2s-3.4-7.5-7.5-7.5
				c-37.5,0-75.1,0-112.6,0c-62.3,0-124.6,0-186.9,0c-18,0-35.9,0-53.9,0c-4.1,0-7.5,3.4-7.5,7.5c0,32,0,64,0,96c0,64,0,128,0,192
				c0,47.9,0,95.8,0,143.6c0,4.1,0,8.1,0,12.2s3.4,7.5,7.5,7.5c37.5,0,75.1,0,112.6,0c62.3,0,124.6,0,186.9,0c18,0,35.9,0,53.9,0
				C442.9,477.2,442.9,462.2,433.2,462.2z"/>
		</g>
	</g>
	<g>
		<g>
			<path d="M249,25.9c0,32,0,64,0,96c0,64,0,128,0,192c0,47.9,0,95.8,0,143.6c0,4.1,0,8.1,0,12.2c0,9.7,15,9.7,15,0c0-32,0-64,0-96
				c0-64,0-128,0-192c0-47.9,0-95.8,0-143.6c0-4.1,0-8.1,0-12.2C264,16.2,249,16.2,249,25.9L249,25.9z"/>
		</g>
	</g>
	<g>
		<g>
			<path d="M79.8,130.2c37.5,0,75.1,0,112.6,0c62.3,0,124.6,0,186.9,0c18,0,35.9,0,53.9,0c9.7,0,9.7-15,0-15c-37.5,0-75.1,0-112.6,0
				c-62.3,0-124.6,0-186.9,0c-18,0-35.9,0-53.9,0C70.1,115.2,70.1,130.2,79.8,130.2L79.8,130.2z"/>
		</g>
	</g>
	<g>
		<g>
			<path d="M433.2,115.2c-37.5,0-75.1,0-112.6,0c-62.3,0-124.6,0-186.9,0c-18,0-35.9,0-53.9,0c2.5,2.5,5,5,7.5,7.5
				c0-32.3,0-64.5,0-96.8c-2.5,2.5-5,5-7.5,7.5c37.5,0,75.1,0,112.6,0c62.3,0,124.6,0,186.9,0c18,0,35.9,0,53.9,0
				c-2.5-2.5-5-5-7.5-7.5c0,32.3,0,64.5,0,96.8c0,9.7,15,9.7,15,0c0-32.3,0-64.5,0-96.8c0-4.1-3.4-7.5-7.5-7.5
				c-37.5,0-75.1,0-112.6,0c-62.3,0-124.6,0-186.9,0c-18,0-35.9,0-53.9,0c-4.1,0-7.5,3.4-7.5,7.5c0,32.3,0,64.5,0,96.8
				c0,4.1,3.4,7.5,7.5,7.5c37.5,0,75.1,0,112.6,0c62.3,0,124.6,0,186.9,0c18,0,35.9,0,53.9,0C442.9,130.2,442.9,115.2,433.2,115.2z"
				/>
		</g>
	</g>
	<g>
		<g>
			<path d="M433.2,462.2c-37.5,0-75.1,0-112.6,0c-62.3,0-124.6,0-186.9,0c-18,0-35.9,0-53.9,0c2.5,2.5,5,5,7.5,7.5
				c0-38.1,0-76.1,0-114.2c0-61.8,0-123.6,0-185.4c0-15.8,0-31.6,0-47.5c-2.5,2.5-5,5-7.5,7.5c37.5,0,75.1,0,112.6,0
				c62.3,0,124.6,0,186.9,0c18,0,35.9,0,53.9,0c-2.5-2.5-5-5-7.5-7.5c0,38.1,0,76.1,0,114.2c0,61.8,0,123.6,0,185.4
				c0,15.8,0,31.6,0,47.5c0,9.7,15,9.7,15,0c0-38.1,0-76.1,0-114.2c0-61.8,0-123.6,0-185.4c0-15.8,0-31.6,0-47.5
				c0-4.1-3.4-7.5-7.5-7.5c-37.5,0-75.1,0-112.6,0c-62.3,0-124.6,0-186.9,0c-18,0-35.9,0-53.9,0c-4.1,0-7.5,3.4-7.5,7.5
				c0,38.1,0,76.1,0,114.2c0,61.8,0,123.6,0,185.4c0,15.8,0,31.6,0,47.5c0,4.1,3.4,7.5,7.5,7.5c37.5,0,75.1,0,112.6,0
				c62.3,0,124.6,0,186.9,0c18,0,35.9,0,53.9,0C442.9,477.2,442.9,462.2,433.2,462.2z"/>
		</g>
	</g>
	<g>
		<g>
			<path d="M275.4,280.2c0,10.7,0,21.3,0,32c0,9.7,15,9.7,15,0c0-10.7,0-21.3,0-32C290.4,270.6,275.4,270.6,275.4,280.2L275.4,280.2
				z"/>
		</g>
	</g>
	<g>
		<g>
			<path d="M222.6,280.2c0,10.7,0,21.3,0,32c0,9.7,15,9.7,15,0c0-10.7,0-21.3,0-32C237.6,270.6,222.6,270.6,222.6,280.2L222.6,280.2
				z"/>
		</g>
	</g>
	<g>
		<g>
			<path d="M275.4,58.3c0,10.7,0,21.3,0,32c0,9.7,15,9.7,15,0c0-10.7,0-21.3,0-32C290.4,48.6,275.4,48.6,275.4,58.3L275.4,58.3z"/>
		</g>
	</g>
	<g>
		<g>
			<path d="M222.6,58.3c0,10.7,0,21.3,0,32c0,9.7,15,9.7,15,0c0-10.7,0-21.3,0-32C237.6,48.6,222.6,48.6,222.6,58.3L222.6,58.3z"/>
		</g>
	</g>
	<g>
		<g>
			<path d="M114.5,500.6c-11.6,0-23.1,0-34.7,0c2.5,2.5,5,5,7.5,7.5c0-12.8,0-25.6,0-38.4c-2.5,2.5-5,5-7.5,7.5
				c11.6,0,23.1,0,34.7,0c-2.5-2.5-5-5-7.5-7.5c0,12.8,0,25.6,0,38.4c0,9.7,15,9.7,15,0c0-12.8,0-25.6,0-38.4c0-4.1-3.4-7.5-7.5-7.5
				c-11.6,0-23.1,0-34.7,0c-4.1,0-7.5,3.4-7.5,7.5c0,12.8,0,25.6,0,38.4c0,4.1,3.4,7.5,7.5,7.5c11.6,0,23.1,0,34.7,0
				C124.2,515.6,124.2,500.6,114.5,500.6z"/>
		</g>
	</g>
	<g>
		<g>
			<path d="M433.2,500.6c-11.6,0-23.1,0-34.7,0c2.5,2.5,5,5,7.5,7.5c0-12.8,0-25.6,0-38.4c-2.5,2.5-5,5-7.5,7.5
				c11.6,0,23.1,0,34.7,0c-2.5-2.5-5-5-7.5-7.5c0,12.8,0,25.6,0,38.4c0,9.7,15,9.7,15,0c0-12.8,0-25.6,0-38.4c0-4.1-3.4-7.5-7.5-7.5
				c-11.6,0-23.1,0-34.7,0c-4.1,0-7.5,3.4-7.5,7.5c0,12.8,0,25.6,0,38.4c0,4.1,3.4,7.5,7.5,7.5c11.6,0,23.1,0,34.7,0
				C442.9,515.6,442.9,500.6,433.2,500.6z"/>
		</g>
	</g>
</g>
<text id="svg_24" transform="matrix(1.1444 0 0 1 58.2999 614.5654)" class="st0 st1">Шкафы</text>
</svg>
